
<svg width="871px" height="1820px" viewBox="0 0 871 1820" version="1.1" xmlns="http://www.w3.org/2000/svg" xmlns:xlink="http://www.w3.org/1999/xlink">
    <!-- Generator: Sketch 43.2 (39069) - http://www.bohemiancoding.com/sketch -->
    <desc>Created with Sketch.</desc>
    <defs>
        <path d="M375,24.1113841 C582.106781,24.1113841 750,18.1228979 750,10.7357258 C750,3.34855365 520.038168,5.7853704e-16 375,0 C229.961832,-5.71023571e-16 0,3.34855365 0,10.7357258 C0,18.1228979 167.893219,24.1113841 375,24.1113841 Z" id="path-1"></path>
        <filter x="-6.1%" y="-182.5%" width="112.3%" height="481.6%" filterUnits="objectBoundingBox" id="filter-2">
            <feOffset dx="0" dy="2" in="SourceAlpha" result="shadowOffsetOuter1"></feOffset>
            <feGaussianBlur stdDeviation="15" in="shadowOffsetOuter1" result="shadowBlurOuter1"></feGaussianBlur>
            <feColorMatrix values="0 0 0 0 0   0 0 0 0 0   0 0 0 0 0  0 0 0 0.12 0" type="matrix" in="shadowBlurOuter1"></feColorMatrix>
        </filter>
        <path d="M374.89899,20.7824188 C575.102212,20.7824188 737.39899,15.9916298 737.39899,10.0818921 C737.39899,4.17215442 515.102552,1.49331149 374.89899,1.49331149 C234.695428,1.49331149 12.3989899,4.17215442 12.3989899,10.0818921 C12.3989899,15.9916298 174.695768,20.7824188 374.89899,20.7824188 Z" id="path-3"></path>
        <filter x="-2.6%" y="-88.1%" width="105.2%" height="297.0%" filterUnits="objectBoundingBox" id="filter-4">
            <feOffset dx="0" dy="2" in="SourceAlpha" result="shadowOffsetOuter1"></feOffset>
            <feGaussianBlur stdDeviation="6" in="shadowOffsetOuter1" result="shadowBlurOuter1"></feGaussianBlur>
            <feColorMatrix values="0 0 0 0 0   0 0 0 0 0   0 0 0 0 0  0 0 0 0.08 0" type="matrix" in="shadowBlurOuter1"></feColorMatrix>
        </filter>
        <path d="M375.5,14.8116298 C561.896103,14.8116298 713,12.4162353 713,9.46136648 C713,6.50649763 506.034351,5.16707617 375.5,5.16707617 C244.965649,5.16707617 38,6.50649763 38,9.46136648 C38,12.4162353 189.103897,14.8116298 375.5,14.8116298 Z" id="path-5"></path>
        <filter x="-1.9%" y="-114.1%" width="103.9%" height="369.6%" filterUnits="objectBoundingBox" id="filter-6">
            <feOffset dx="0" dy="2" in="SourceAlpha" result="shadowOffsetOuter1"></feOffset>
            <feGaussianBlur stdDeviation="4" in="shadowOffsetOuter1" result="shadowBlurOuter1"></feGaussianBlur>
            <feColorMatrix values="0 0 0 0 0   0 0 0 0 0   0 0 0 0 0  0 0 0 0.24 0" type="matrix" in="shadowBlurOuter1"></feColorMatrix>
        </filter>
        <linearGradient x1="50%" y1="0%" x2="50%" y2="100%" id="linearGradient-7">
            <stop stop-color="#BDBEC6" offset="0%"></stop>
            <stop stop-color="#6F7076" offset="100%"></stop>
        </linearGradient>
        <path d="M185.797103,1776 L716,1776 C852.845703,1776 867,1676.57682 867,1627 L867,512.900849 C865.762813,511.639469 865,509.911969 865,508.006633 L865,379.993367 C865,378.089363 865.76353,376.363075 867,375.101993 L867,149 C867,29.7890625 787.796875,-1.08235242e-14 719,0 C675.771441,1.08235239e-14 260.320312,6.20727465e-15 155,0 C50.0078125,0 5,61.4667969 5,149 L5,375.099738 C6.23718702,376.361327 7,378.088889 7,379.993651 L7,670.006349 C7,671.910431 6.23647049,673.636788 5,674.897922 L5,1627 C5,1676.30483 19.2671401,1772.76245 148.426923,1775.9205 C152.331047,1773.92368 159.190304,1772 167,1772 C174.961308,1772 181.934916,1773.96346 185.797103,1776 Z" id="path-8"></path>
        <filter x="-2.7%" y="-0.6%" width="105.3%" height="101.8%" filterUnits="objectBoundingBox" id="filter-9">
            <feMorphology radius="12" operator="erode" in="SourceAlpha" result="shadowSpreadInner1"></feMorphology>
            <feGaussianBlur stdDeviation="5" in="shadowSpreadInner1" result="shadowBlurInner1"></feGaussianBlur>
            <feOffset dx="0" dy="0" in="shadowBlurInner1" result="shadowOffsetInner1"></feOffset>
            <feComposite in="shadowOffsetInner1" in2="SourceAlpha" operator="arithmetic" k2="-1" k3="1" result="shadowInnerInner1"></feComposite>
            <feColorMatrix values="0 0 0 0 0.223529412   0 0 0 0 0.231372549   0 0 0 0 0.239215686  0 0 0 0.6 0" type="matrix" in="shadowInnerInner1"></feColorMatrix>
        </filter>
        <linearGradient x1="-1.11022302e-14%" y1="50%" x2="100%" y2="50%" id="linearGradient-10">
            <stop stop-color="#242628" offset="0%"></stop>
            <stop stop-color="#404246" offset="32.9833984%"></stop>
            <stop stop-color="#5D5F61" offset="100%"></stop>
        </linearGradient>
        <linearGradient x1="50%" y1="0%" x2="50%" y2="100%" id="linearGradient-11">
            <stop stop-color="#191B19" offset="0%"></stop>
            <stop stop-color="#141414" offset="100%"></stop>
        </linearGradient>
        <path d="M240.068359,2.99991782 C244.039829,3.04214633 250.995865,3.00776849 250.995865,3.00776849 C252.102718,3.00343268 253.895725,2.99991782 254.998468,2.99991782 L325.001532,2.99991782 C326.105255,2.99991782 327.893205,2.99991782 329.007435,2.99991782 C329.007435,2.99991782 335.825179,2.99991781 340.105225,2.99991782 C344.38527,2.99991782 349,6.99958921 349,6.99958921 L231,6.99958921 C231,6.99958921 236.09689,2.9576893 240.068359,2.99991782 Z" id="path-12"></path>
        <filter x="-1.3%" y="-37.5%" width="102.5%" height="175.0%" filterUnits="objectBoundingBox" id="filter-13">
            <feMorphology radius="0.5" operator="dilate" in="SourceAlpha" result="shadowSpreadOuter1"></feMorphology>
            <feOffset dx="0" dy="0" in="shadowSpreadOuter1" result="shadowOffsetOuter1"></feOffset>
            <feColorMatrix values="0 0 0 0 1   0 0 0 0 1   0 0 0 0 1  0 0 0 0.1 0" type="matrix" in="shadowOffsetOuter1"></feColorMatrix>
        </filter>
        <linearGradient x1="50%" y1="0%" x2="50%" y2="100%" id="linearGradient-14">
            <stop stop-color="#222328" offset="0%"></stop>
            <stop stop-color="#46474C" offset="4.23815813%"></stop>
            <stop stop-color="#E5E6EB" offset="8.18956163%"></stop>
            <stop stop-color="#A9AAAF" offset="15.9206814%"></stop>
            <stop stop-color="#8A8B90" offset="74.3404208%"></stop>
            <stop stop-color="#9D9EA3" offset="87.6831055%"></stop>
            <stop stop-color="#C7C8CD" offset="90.7287881%"></stop>
            <stop stop-color="#4D4E53" offset="95.2799479%"></stop>
            <stop stop-color="#25262A" offset="100%"></stop>
        </linearGradient>
        <path d="M0,3.0020839 C0,1.34407874 1.33312307,0.190446153 2.96863019,0.424090028 L4.03136981,0.575909972 C5.67089899,0.810128427 7,2.33583665 7,4.0078125 L7,67.9921875 C7,69.6533565 5.66687693,71.1904462 4.03136981,71.42409 L2.96863019,71.57591 C1.32910101,71.8101284 0,70.6575923 0,68.9979161 L0,3.0020839 Z" id="path-15"></path>
        <filter x="-14.3%" y="-2.8%" width="157.1%" height="105.6%" filterUnits="objectBoundingBox" id="filter-16">
            <feOffset dx="1" dy="0" in="SourceAlpha" result="shadowOffsetOuter1"></feOffset>
            <feGaussianBlur stdDeviation="0.5" in="shadowOffsetOuter1" result="shadowBlurOuter1"></feGaussianBlur>
            <feColorMatrix values="0 0 0 0 0   0 0 0 0 0   0 0 0 0 0  0 0 0 0.1 0" type="matrix" in="shadowBlurOuter1"></feColorMatrix>
        </filter>
        <filter x="-7.1%" y="-2.1%" width="142.9%" height="104.2%" filterUnits="objectBoundingBox" id="filter-17">
            <feOffset dx="1" dy="0" in="SourceAlpha" result="shadowOffsetInner1"></feOffset>
            <feComposite in="shadowOffsetInner1" in2="SourceAlpha" operator="arithmetic" k2="-1" k3="1" result="shadowInnerInner1"></feComposite>
            <feColorMatrix values="0 0 0 0 0.317647059   0 0 0 0 0.321568627   0 0 0 0 0.333333333  0 0 0 1 0" type="matrix" in="shadowInnerInner1"></feColorMatrix>
        </filter>
        <linearGradient x1="50%" y1="0%" x2="50%" y2="98.2554408%" id="linearGradient-18">
            <stop stop-color="#898A8F" offset="0%"></stop>
            <stop stop-color="#16171C" offset="2.09784252%"></stop>
            <stop stop-color="#222328" offset="4.73708843%"></stop>
            <stop stop-color="#D2D3D8" offset="11.3476562%"></stop>
            <stop stop-color="#DDDEE3" offset="14.244905%"></stop>
            <stop stop-color="#D2D3D8" offset="84.8754374%"></stop>
            <stop stop-color="#B9BABF" offset="89.3643234%"></stop>
            <stop stop-color="#212227" offset="97.993793%"></stop>
            <stop stop-color="#A3A4A9" offset="100%"></stop>
        </linearGradient>
        <linearGradient x1="50%" y1="0%" x2="50%" y2="100%" id="linearGradient-19">
            <stop stop-color="#222328" offset="0%"></stop>
            <stop stop-color="#76777C" offset="8.18956163%"></stop>
            <stop stop-color="#A9AAAF" offset="15.9206814%"></stop>
            <stop stop-color="#8A8B90" offset="74.3404208%"></stop>
            <stop stop-color="#9D9EA3" offset="87.6831055%"></stop>
            <stop stop-color="#4D4E53" offset="95.2799479%"></stop>
            <stop stop-color="#25262A" offset="100%"></stop>
        </linearGradient>
        <path d="M0,3.0050168 C0,1.34539185 1.33312307,0.190446153 2.96863019,0.424090028 L4.03136981,0.575909972 C5.67089899,0.810128427 7,2.33922365 7,3.99796231 L7,132 L3.00925446,132 C1.34728911,132 0,130.650553 0,128.994983 L0,3.0050168 Z" id="path-20"></path>
        <filter x="-14.3%" y="-1.5%" width="157.1%" height="103.0%" filterUnits="objectBoundingBox" id="filter-21">
            <feOffset dx="1" dy="0" in="SourceAlpha" result="shadowOffsetOuter1"></feOffset>
            <feGaussianBlur stdDeviation="0.5" in="shadowOffsetOuter1" result="shadowBlurOuter1"></feGaussianBlur>
            <feColorMatrix values="0 0 0 0 0   0 0 0 0 0   0 0 0 0 0  0 0 0 0.1 0" type="matrix" in="shadowBlurOuter1"></feColorMatrix>
        </filter>
        <filter x="-7.1%" y="-1.1%" width="142.9%" height="102.3%" filterUnits="objectBoundingBox" id="filter-22">
            <feOffset dx="1" dy="0" in="SourceAlpha" result="shadowOffsetInner1"></feOffset>
            <feComposite in="shadowOffsetInner1" in2="SourceAlpha" operator="arithmetic" k2="-1" k3="1" result="shadowInnerInner1"></feComposite>
            <feColorMatrix values="0 0 0 0 0.317647059   0 0 0 0 0.321568627   0 0 0 0 0.333333333  0 0 0 1 0" type="matrix" in="shadowInnerInner1"></feColorMatrix>
        </filter>
        <path d="M0,4.0050168 C0,2.34539185 1.34967041,1 3.00925446,1 L7,1 L7,131.994666 C7,132.549897 6.56211865,133 5.99707067,133 L3.00925446,133 C1.34728911,133 0,131.650553 0,129.994983 L0,4.0050168 Z" id="path-23"></path>
        <filter x="-14.3%" y="-1.5%" width="157.1%" height="103.0%" filterUnits="objectBoundingBox" id="filter-24">
            <feOffset dx="1" dy="0" in="SourceAlpha" result="shadowOffsetOuter1"></feOffset>
            <feGaussianBlur stdDeviation="0.5" in="shadowOffsetOuter1" result="shadowBlurOuter1"></feGaussianBlur>
            <feColorMatrix values="0 0 0 0 0   0 0 0 0 0   0 0 0 0 0  0 0 0 0.1 0" type="matrix" in="shadowBlurOuter1"></feColorMatrix>
        </filter>
        <filter x="-7.1%" y="-1.1%" width="142.9%" height="102.3%" filterUnits="objectBoundingBox" id="filter-25">
            <feOffset dx="1" dy="0" in="SourceAlpha" result="shadowOffsetInner1"></feOffset>
            <feComposite in="shadowOffsetInner1" in2="SourceAlpha" operator="arithmetic" k2="-1" k3="1" result="shadowInnerInner1"></feComposite>
            <feColorMatrix values="0 0 0 0 0.317647059   0 0 0 0 0.321568627   0 0 0 0 0.333333333  0 0 0 1 0" type="matrix" in="shadowInnerInner1"></feColorMatrix>
        </filter>
        <path d="M0,3.0050168 C0,1.34539185 1.33312307,0.190446153 2.96863019,0.424090028 L4.03136981,0.575909972 C5.67089899,0.810128427 7,2.35041883 7,3.99070607 L7,128.009294 C7,129.661015 5.66687693,131.190446 4.03136981,131.42409 L2.96863019,131.57591 C1.32910101,131.810128 0,130.650553 0,128.994983 L0,3.0050168 Z" id="path-26"></path>
        <filter x="-14.3%" y="-1.5%" width="157.1%" height="103.0%" filterUnits="objectBoundingBox" id="filter-27">
            <feOffset dx="1" dy="0" in="SourceAlpha" result="shadowOffsetOuter1"></feOffset>
            <feGaussianBlur stdDeviation="0.5" in="shadowOffsetOuter1" result="shadowBlurOuter1"></feGaussianBlur>
            <feColorMatrix values="0 0 0 0 0   0 0 0 0 0   0 0 0 0 0  0 0 0 0.1 0" type="matrix" in="shadowBlurOuter1"></feColorMatrix>
        </filter>
        <filter x="-7.1%" y="-1.1%" width="142.9%" height="102.3%" filterUnits="objectBoundingBox" id="filter-28">
            <feOffset dx="1" dy="0" in="SourceAlpha" result="shadowOffsetInner1"></feOffset>
            <feComposite in="shadowOffsetInner1" in2="SourceAlpha" operator="arithmetic" k2="-1" k3="1" result="shadowInnerInner1"></feComposite>
            <feColorMatrix values="0 0 0 0 0.317647059   0 0 0 0 0.321568627   0 0 0 0 0.333333333  0 0 0 1 0" type="matrix" in="shadowInnerInner1"></feColorMatrix>
        </filter>
        <linearGradient x1="50%" y1="0%" x2="50%" y2="100%" id="linearGradient-29">
            <stop stop-color="#020202" offset="0%"></stop>
            <stop stop-color="#000000" offset="100%"></stop>
        </linearGradient>
        <path d="M0.00200381812,1618 C0.00200381818,1569.55078 -0.00250477268,623.261068 0.00200381812,129 C0.00256285404,67.7148438 27.6133327,-1.11022302e-16 130.002004,-2.22044605e-15 C232.390675,-4.3298698e-15 662.773445,1.08801856e-14 706.002004,-1.11022302e-16 C774.798879,-1.0658141e-14 834.002014,35.6816406 834.002004,129 C834.001949,622.348307 834.002004,1583.68359 834.002004,1619 C834.002004,1654.31641 823.562551,1748 704.002004,1748 L131.002004,1748 C18.1592312,1748 0.00200381806,1666.44922 0.00200381812,1618 Z" id="path-30"></path>
        <filter x="-1.9%" y="-0.8%" width="103.8%" height="101.8%" filterUnits="objectBoundingBox" id="filter-31">
            <feMorphology radius="3" operator="dilate" in="SourceAlpha" result="shadowSpreadOuter1"></feMorphology>
            <feOffset dx="0" dy="2" in="shadowSpreadOuter1" result="shadowOffsetOuter1"></feOffset>
            <feGaussianBlur stdDeviation="2" in="shadowOffsetOuter1" result="shadowBlurOuter1"></feGaussianBlur>
            <feColorMatrix values="0 0 0 0 1   0 0 0 0 1   0 0 0 0 1  0 0 0 0.25 0" type="matrix" in="shadowBlurOuter1"></feColorMatrix>
        </filter>
        <filter x="-1.4%" y="-0.5%" width="102.8%" height="101.3%" filterUnits="objectBoundingBox" id="filter-32">
            <feGaussianBlur stdDeviation="1" in="SourceAlpha" result="shadowBlurInner1"></feGaussianBlur>
            <feOffset dx="0" dy="1" in="shadowBlurInner1" result="shadowOffsetInner1"></feOffset>
            <feComposite in="shadowOffsetInner1" in2="SourceAlpha" operator="arithmetic" k2="-1" k3="1" result="shadowInnerInner1"></feComposite>
            <feColorMatrix values="0 0 0 0 0   0 0 0 0 0   0 0 0 0 0  0 0 0 0.14 0" type="matrix" in="shadowInnerInner1"></feColorMatrix>
        </filter>
        <filter x="-1.4%" y="-0.3%" width="201.4%" height="100.7%" filterUnits="objectBoundingBox" id="filter-33">
            <feGaussianBlur stdDeviation="2" in="SourceGraphic"></feGaussianBlur>
        </filter>
        <filter x="-100.0%" y="-0.3%" width="201.4%" height="100.7%" filterUnits="objectBoundingBox" id="filter-34">
            <feGaussianBlur stdDeviation="2" in="SourceGraphic"></feGaussianBlur>
        </filter>
        <path d="M417,1712 L417,1712 C450.137085,1712 477,1685.13708 477,1652 C477,1618.86292 450.137085,1592 417,1592 C383.862915,1592 357,1618.86292 357,1652 C357,1685.13708 383.862915,1712 417,1712 L417,1712 Z M417,1720 L417,1720 C379.444637,1720 349,1689.55536 349,1652 C349,1614.44464 379.444637,1584 417,1584 C454.555363,1584 485,1614.44464 485,1652 C485,1689.55536 454.555363,1720 417,1720 L417,1720 Z" id="path-35"></path>
        <filter x="-1.1%" y="-1.1%" width="102.2%" height="102.2%" filterUnits="objectBoundingBox" id="filter-36">
            <feMorphology radius="1" operator="erode" in="SourceAlpha" result="shadowSpreadInner1"></feMorphology>
            <feGaussianBlur stdDeviation="0.5" in="shadowSpreadInner1" result="shadowBlurInner1"></feGaussianBlur>
            <feOffset dx="1" dy="0" in="shadowBlurInner1" result="shadowOffsetInner1"></feOffset>
            <feComposite in="shadowOffsetInner1" in2="SourceAlpha" operator="arithmetic" k2="-1" k3="1" result="shadowInnerInner1"></feComposite>
            <feColorMatrix values="0 0 0 0 0   0 0 0 0 0   0 0 0 0 0  0 0 0 0.112686821 0" type="matrix" in="shadowInnerInner1"></feColorMatrix>
        </filter>
        <rect id="path-37" x="0" y="0" width="136" height="14" rx="7"></rect>
        <rect id="path-39" x="0" y="0" width="136" height="14" rx="7"></rect>
        <filter x="-1.5%" y="-14.3%" width="102.9%" height="128.6%" filterUnits="objectBoundingBox" id="filter-41">
            <feMorphology radius="2" operator="erode" in="SourceAlpha" result="shadowSpreadInner1"></feMorphology>
            <feGaussianBlur stdDeviation="1" in="shadowSpreadInner1" result="shadowBlurInner1"></feGaussianBlur>
            <feOffset dx="0" dy="0" in="shadowBlurInner1" result="shadowOffsetInner1"></feOffset>
            <feComposite in="shadowOffsetInner1" in2="SourceAlpha" operator="arithmetic" k2="-1" k3="1" result="shadowInnerInner1"></feComposite>
            <feColorMatrix values="0 0 0 0 0   0 0 0 0 0   0 0 0 0 0  0 0 0 0.5 0" type="matrix" in="shadowInnerInner1"></feColorMatrix>
        </filter>
        <radialGradient cx="121.058392%" cy="134.125808%" fx="121.058392%" fy="134.125808%" r="100.661381%" id="radialGradient-42">
            <stop stop-color="#434343" offset="0%"></stop>
            <stop stop-color="#161616" offset="100%"></stop>
        </radialGradient>
        <radialGradient cx="50%" cy="0%" fx="50%" fy="0%" r="100%" id="radialGradient-43">
            <stop stop-color="#2A4893" offset="0%"></stop>
            <stop stop-color="#213054" offset="100%"></stop>
        </radialGradient>
        <circle id="path-44" cx="14.5" cy="14.5" r="7.5"></circle>
        <filter x="-40.0%" y="-40.0%" width="180.0%" height="180.0%" filterUnits="objectBoundingBox" id="filter-46">
            <feMorphology radius="1" operator="dilate" in="SourceAlpha" result="shadowSpreadOuter1"></feMorphology>
            <feOffset dx="0" dy="0" in="shadowSpreadOuter1" result="shadowOffsetOuter1"></feOffset>
            <feGaussianBlur stdDeviation="1" in="shadowOffsetOuter1" result="shadowBlurOuter1"></feGaussianBlur>
            <feColorMatrix values="0 0 0 0 0   0 0 0 0 0   0 0 0 0 0  0 0 0 0.4 0" type="matrix" in="shadowBlurOuter1"></feColorMatrix>
        </filter>
        <filter x="-150.0%" y="-150.0%" width="400.0%" height="400.0%" filterUnits="objectBoundingBox" id="filter-47">
            <feGaussianBlur stdDeviation="1" in="SourceGraphic"></feGaussianBlur>
        </filter>
        <filter x="-150.0%" y="-150.0%" width="400.0%" height="400.0%" filterUnits="objectBoundingBox" id="filter-48">
            <feGaussianBlur stdDeviation="1" in="SourceGraphic"></feGaussianBlur>
        </filter>
        <filter x="-100.0%" y="-100.0%" width="300.0%" height="300.0%" filterUnits="objectBoundingBox" id="filter-49">
            <feGaussianBlur stdDeviation="1" in="SourceGraphic"></feGaussianBlur>
        </filter>
        <filter x="-100.0%" y="-100.0%" width="300.0%" height="300.0%" filterUnits="objectBoundingBox" id="filter-50">
            <feGaussianBlur stdDeviation="1" in="SourceGraphic"></feGaussianBlur>
        </filter>
        <filter x="-42.9%" y="-100.0%" width="185.7%" height="300.0%" filterUnits="objectBoundingBox" id="filter-51">
            <feGaussianBlur stdDeviation="1" in="SourceGraphic"></feGaussianBlur>
        </filter>
        <filter x="-42.9%" y="-42.9%" width="185.7%" height="185.7%" filterUnits="objectBoundingBox" id="filter-52">
            <feGaussianBlur stdDeviation="1" in="SourceGraphic"></feGaussianBlur>
        </filter>
    </defs>
    <g id="iPhone-6s" stroke="none" stroke-width="1" fill="none" fill-rule="evenodd">
        <g id="Apple-iPhone-6s-Space-Gray">
            <g id="Shadow" transform="translate(61.000000, 1764.000000)" fill="black" fill-opacity="1">
                <g id="Outer-Shadow">
                    <use filter="url(#filter-2)" xlink:href="#path-1"></use>
                </g>
                <g id="Middle-Shadow">
                    <use filter="url(#filter-4)" xlink:href="#path-3"></use>
                </g>
                <g id="Inner-Shadow">
                    <use filter="url(#filter-6)" xlink:href="#path-5"></use>
                </g>
            </g>
            <g id="Device">
                <g id="Body">
                    <g id="Phone-Shape">
                        <use fill="url(#linearGradient-7)" fill-rule="evenodd" xlink:href="#path-8"></use>
                        <use fill="black" fill-opacity="1" filter="url(#filter-9)" xlink:href="#path-8"></use>
                    </g>
                    <g id="Antenna" transform="translate(5.000000, 139.000000)" fill="url(#linearGradient-10)">
                        <path d="M0,3 C0,3 5.21191406,1.00000001 16,1 L16,26 C5.52832031,26.888916 0,29 0,29 L0,3 Z" id="Top-Left"></path>
                        <path d="M846,3 C846,3 851.211914,1.00000001 862,1 L862,26 C851.52832,26.888916 846,29 846,29 L846,3 Z" id="Top-Right" transform="translate(854.000000, 15.000000) scale(-1, 1) translate(-854.000000, -15.000000) "></path>
                        <path d="M0,1473 C0,1473 5.21191406,1471 16,1471 L16,1497 C4.62646484,1496.6001 0,1498 0,1498 L0,1473 Z" id="Bottom-Left" transform="translate(8.000000, 1484.500000) scale(1, -1) translate(-8.000000, -1484.500000) "></path>
                        <path d="M846,1473 C846,1473 851.211914,1471 862,1471 L862,1497 C850.626465,1496.6001 846,1498 846,1498 L846,1473 Z" id="Bottom-Right" transform="translate(854.000000, 1484.500000) scale(-1, -1) translate(-854.000000, -1484.500000) "></path>
                    </g>
                    <g id="Plug" transform="translate(146.000000, 1769.000000)">
                        <g id="Lightning-Connector" opacity="0.902810168">
                            <use fill="black" fill-opacity="1" filter="url(#filter-13)" xlink:href="#path-12"></use>
                            <use fill="url(#linearGradient-11)" fill-rule="evenodd" xlink:href="#path-12"></use>
                        </g>
                        <path d="M40.528219,7 L41,7 L41,5.43616642 C38.2867679,3.12458541 30.3582388,0.490844727 21,0.490844727 C9.40202025,0.490844727 -1.37488692e-14,4.57324219 -1.42108547e-14,7 L1.57452816,7 C4.71881783,4.69864825 12.2318651,2 21,2 C29.8651365,2 37.4472617,4.65085158 40.528219,7 Z" id="Headpone-Jack-Border" fill="#FFFFFF" opacity="0.300000012"></path>
                    </g>
                    <g id="Silent-Button" transform="translate(0.000000, 226.000000)">
                        <g id="Rectangle-165">
                            <use fill="black" fill-opacity="1" filter="url(#filter-16)" xlink:href="#path-15"></use>
                            <use fill="url(#linearGradient-14)" fill-rule="evenodd" xlink:href="#path-15"></use>
                            <use fill="black" fill-opacity="1" filter="url(#filter-17)" xlink:href="#path-15"></use>
                        </g>
                        <rect id="Rectangle-166" fill="url(#linearGradient-18)" x="1" y="1" width="2" height="70" rx="1"></rect>
                    </g>
                    <g id="Volume-Up-Button" transform="translate(1.000000, 378.000000)">
                        <g id="Rectangle-165">
                            <use fill="black" fill-opacity="1" filter="url(#filter-21)" xlink:href="#path-20"></use>
                            <use fill="url(#linearGradient-19)" fill-rule="evenodd" xlink:href="#path-20"></use>
                            <use fill="black" fill-opacity="1" filter="url(#filter-22)" xlink:href="#path-20"></use>
                        </g>
                        <rect id="Rectangle-166" fill="url(#linearGradient-18)" x="1" y="1" width="2" height="130" rx="1"></rect>
                    </g>
                    <g id="Volume-Down-Button" transform="translate(1.000000, 539.000000)">
                        <g id="Rectangle-165">
                            <use fill="black" fill-opacity="1" filter="url(#filter-24)" xlink:href="#path-23"></use>
                            <use fill="url(#linearGradient-19)" fill-rule="evenodd" xlink:href="#path-23"></use>
                            <use fill="black" fill-opacity="1" filter="url(#filter-25)" xlink:href="#path-23"></use>
                        </g>
                        <rect id="Rectangle-166" fill="url(#linearGradient-18)" x="1" y="2" width="2" height="130" rx="1"></rect>
                    </g>
                    <g id="Sleep-Button" transform="translate(867.500000, 444.000000) scale(-1, 1) translate(-867.500000, -444.000000) translate(864.000000, 378.000000)">
                        <g id="Rectangle-165">
                            <use fill="black" fill-opacity="1" filter="url(#filter-27)" xlink:href="#path-26"></use>
                            <use fill="url(#linearGradient-19)" fill-rule="evenodd" xlink:href="#path-26"></use>
                            <use fill="black" fill-opacity="1" filter="url(#filter-28)" xlink:href="#path-26"></use>
                        </g>
                        <rect id="Rectangle-166" fill="url(#linearGradient-18)" x="1" y="1" width="2" height="130" rx="1"></rect>
                    </g>
                </g>
                <g id="Front" transform="translate(19.000000, 14.000000)">
                    <g id="White-Surface">
                        <use fill="black" fill-opacity="1" filter="url(#filter-31)" xlink:href="#path-30"></use>
                        <use fill="url(#linearGradient-29)" fill-rule="evenodd" xlink:href="#path-30"></use>
                        <use fill="black" fill-opacity="1" filter="url(#filter-32)" xlink:href="#path-30"></use>
                    </g>
                    <path d="M423.5,1 L121.000575,1 C56.9273468,1 5,52.9335585 5,116.99685 L5,1631.00315 C5,1695.07157 56.9352264,1747 121.000575,1747 L423.5,1747 L126.000575,1747 C61.9352264,1747 10,1695.07157 10,1631.00315 L10,116.99685 C10,52.9335585 61.9273468,1 126.000575,1 L423.5,1 Z" id="Light-Left" fill="#FFFFFF" opacity="0.599999964" filter="url(#filter-33)"></path>
                    <path d="M410.5,1 L713.499425,1 C777.564774,1 829.5,52.9284276 829.5,116.99685 L829.5,1631.00315 C829.5,1695.06644 777.572653,1747 713.499425,1747 L410.5,1747 L707.499425,1747 C771.572653,1747 823.5,1695.06644 823.5,1631.00315 L823.5,116.99685 C823.5,52.9284276 771.564774,1 707.499425,1 L410.5,1 Z" id="Light-Right" fill="#FFFFFF" opacity="0.599999964" filter="url(#filter-34)"></path>
                    <path d="M7.00200382,1618 L7.00200382,1618 C7.00200382,1647.68504 13.6767305,1675.53368 28.9069391,1697.13479 C48.7025474,1725.21105 81.7197379,1741 131.002004,1741 L704.002004,1741 C755.36169,1741 788.672277,1723.52335 807.916353,1693.00956 C821.617178,1671.28526 827.002004,1645.27843 827.002004,1619 C827.002004,1617.73341 827.001996,1434.94086 827.001992,1326.64048 C827.001984,1119.48837 827.00198,919.32607 827.00198,731.359247 C827.001979,485.701066 827.001987,280.823692 827.002004,128.999999 C827.002009,86.52624 814.392665,55.1838039 791.177344,34.7614051 C770.212608,16.3188336 740.674734,7 706.002004,7 L599.983279,7 C511.516283,7 511.516283,7 408.866233,7 L363.003797,7 L130.002004,7 C84.2663111,7 52.1736698,20.8026116 32.0693058,45.8949758 C15.1097267,67.0623171 7.00230454,96.0326492 7.00200382,129.000064 C7.00061916,280.795091 6.99999483,483.909544 7.00000003,726.915567 C7.00000403,913.745247 7.00037277,1112.19701 7.00100191,1320.26574 C7.00130485,1420.45481 7.00200382,1612.83602 7.00200382,1618 L7.00200382,1618 Z M0.00200381812,1618 C0.00200381818,1569.55078 -0.00250477268,623.261068 0.00200381812,129 C0.00256285404,67.7148438 27.6133327,2.31327928e-15 130.002004,2.03855535e-16 C232.390675,-1.90556821e-15 662.773445,1.33044872e-14 706.002004,2.31327928e-15 C774.798879,-8.23383945e-15 834.002014,35.6816406 834.002004,129 C834.001949,622.348307 834.002004,1583.68359 834.002004,1619 C834.002004,1654.31641 823.562551,1748 704.002004,1748 L131.002004,1748 C18.1592312,1748 0.00200381806,1666.44922 0.00200381812,1618 L0.00200381812,1618 Z" id="Stroke" fill="#18191A" fill-rule="nonzero"></path>
                    <g id="Home-Button" fill-rule="nonzero">
                        <use fill="" fill-rule="evenodd" xlink:href="#path-35"></use>
                        <use fill="black" fill-opacity="1" filter="url(#filter-36)" xlink:href="#path-35"></use>
                    </g>
                    <g id="Speaker" opacity="0.801364272" transform="translate(349.000000, 96.000000)">
                        <mask id="mask-38" fill="white">
                            <use xlink:href="#path-37"></use>
                        </mask>
                        <use id="Mask" fill="#333333" xlink:href="#path-37"></use>
                        <path d="M-2,0 L137,0 L137,1 L-2,1 L-2,0 Z M-2,3 L137,3 L137,4 L-2,4 L-2,3 Z M-2,6 L137,6 L137,7 L-2,7 L-2,6 Z M-2,9 L137,9 L137,10 L-2,10 L-2,9 Z M-2,12 L137,12 L137,13 L-2,13 L-2,12 Z" id="Grid" fill-opacity="0.149999991" fill="#000000" mask="url(#mask-38)"></path>
                        <path d="M1,-1 L2,-1 L2,16 L1,16 L1,-1 Z M4,-1 L5,-1 L5,16 L4,16 L4,-1 Z M7,-1 L8,-1 L8,16 L7,16 L7,-1 Z M10,-1 L11,-1 L11,16 L10,16 L10,-1 Z M13,-1 L14,-1 L14,16 L13,16 L13,-1 Z M16,-1 L17,-1 L17,16 L16,16 L16,-1 Z M19,-1 L20,-1 L20,16 L19,16 L19,-1 Z M22,-1 L23,-1 L23,16 L22,16 L22,-1 Z M25,-1 L26,-1 L26,16 L25,16 L25,-1 Z M28,-1 L29,-1 L29,16 L28,16 L28,-1 Z M31,-1 L32,-1 L32,16 L31,16 L31,-1 Z M34,-1 L35,-1 L35,16 L34,16 L34,-1 Z M37,-1 L38,-1 L38,16 L37,16 L37,-1 Z M40,-1 L41,-1 L41,16 L40,16 L40,-1 Z M43,-1 L44,-1 L44,16 L43,16 L43,-1 Z M46,-1 L47,-1 L47,16 L46,16 L46,-1 Z M49,-1 L50,-1 L50,16 L49,16 L49,-1 Z M52,-1 L53,-1 L53,16 L52,16 L52,-1 Z M55,-1 L56,-1 L56,16 L55,16 L55,-1 Z M58,-1 L59,-1 L59,16 L58,16 L58,-1 Z M61,-1 L62,-1 L62,16 L61,16 L61,-1 Z M64,-1 L65,-1 L65,16 L64,16 L64,-1 Z M67,-1 L68,-1 L68,16 L67,16 L67,-1 Z M70,-1 L71,-1 L71,16 L70,16 L70,-1 Z M73,-1 L74,-1 L74,16 L73,16 L73,-1 Z M76,-1 L77,-1 L77,16 L76,16 L76,-1 Z M79,-1 L80,-1 L80,16 L79,16 L79,-1 Z M82,-1 L83,-1 L83,16 L82,16 L82,-1 Z M85,-1 L86,-1 L86,16 L85,16 L85,-1 Z M88,-1 L89,-1 L89,16 L88,16 L88,-1 Z M91,-1 L92,-1 L92,16 L91,16 L91,-1 Z M94,-1 L95,-1 L95,16 L94,16 L94,-1 Z M97,-1 L98,-1 L98,16 L97,16 L97,-1 Z M100,-1 L101,-1 L101,16 L100,16 L100,-1 Z M103,-1 L104,-1 L104,16 L103,16 L103,-1 Z M106,-1 L107,-1 L107,16 L106,16 L106,-1 Z M109,-1 L110,-1 L110,16 L109,16 L109,-1 Z M112,-1 L113,-1 L113,16 L112,16 L112,-1 Z M115,-1 L116,-1 L116,16 L115,16 L115,-1 Z M118,-1 L119,-1 L119,16 L118,16 L118,-1 Z M121,-1 L122,-1 L122,16 L121,16 L121,-1 Z M124,-1 L125,-1 L125,16 L124,16 L124,-1 Z M127,-1 L128,-1 L128,16 L127,16 L127,-1 Z M130,-1 L131,-1 L131,16 L130,16 L130,-1 Z M133,-1 L134,-1 L134,16 L133,16 L133,-1 Z" id="Grid" fill-opacity="0.149999991" fill="#000000" mask="url(#mask-38)"></path>
                        <mask id="mask-40" fill="white">
                            <use xlink:href="#path-39"></use>
                        </mask>
                        <g id="Shadow" opacity="0.200000018" fill-opacity="1" fill="black">
                            <use filter="url(#filter-41)" xlink:href="#path-39"></use>
                        </g>
                    </g>
                    <g id="Camera" transform="translate(266.000000, 88.000000)">
                        <circle id="Oval-57" fill="url(#radialGradient-42)" cx="14.5" cy="14.5" r="14.5"></circle>
                        <mask id="mask-45" fill="white">
                            <use xlink:href="#path-44"></use>
                        </mask>
                        <g id="Mask">
                            <use fill="black" fill-opacity="1" filter="url(#filter-46)" xlink:href="#path-44"></use>
                            <use fill="url(#radialGradient-43)" fill-rule="evenodd" xlink:href="#path-44"></use>
                        </g>
                        <circle id="Oval-59" fill="#BEE5FF" filter="url(#filter-47)" mask="url(#mask-45)" cx="10" cy="17" r="1"></circle>
                        <circle id="Oval-59" fill="#BEE5FF" filter="url(#filter-48)" mask="url(#mask-45)" cx="10" cy="17" r="1"></circle>
                        <circle id="Oval-59" fill="#75C9FF" filter="url(#filter-49)" mask="url(#mask-45)" cx="21.5" cy="10.5" r="1.5"></circle>
                        <circle id="Oval-59" fill="#75C9FF" filter="url(#filter-50)" mask="url(#mask-45)" cx="21.5" cy="10.5" r="1.5"></circle>
                        <ellipse id="Oval-61" fill="#3358B6" filter="url(#filter-51)" mask="url(#mask-45)" transform="translate(12.500000, 10.500000) rotate(-29.000000) translate(-12.500000, -10.500000) " cx="12.5" cy="10.5" rx="3.5" ry="1.5"></ellipse>
                        <circle id="Oval-61" fill="#00154F" filter="url(#filter-52)" mask="url(#mask-45)" transform="translate(15.500000, 14.500000) rotate(-16.000000) translate(-15.500000, -14.500000) " cx="15.5" cy="14.5" r="3.5"></circle>
                    </g>
                </g>
            </g>
            <rect id="Screen" fill="#1D2129" x="61" y="228" width="750" height="1334"></rect>
        </g>
    </g>
</svg>