
<svg width="1794px" height="2649px" viewBox="0 0 1794 2649" version="1.1" xmlns="http://www.w3.org/2000/svg" xmlns:xlink="http://www.w3.org/1999/xlink">
    <!-- Generator: Sketch 43.2 (39069) - http://www.bohemiancoding.com/sketch -->
    <desc>Created with Sketch.</desc>
    <defs>
        <path d="M874,35.9767231 C1356.69687,35.9767231 1748,27.0412713 1748,16.0188329 C1748,4.99639453 1212.03562,8.63238162e-16 874,0 C535.964377,-8.52027275e-16 0,4.99639453 0,16.0188329 C0,27.0412713 391.303129,35.9767231 874,35.9767231 Z" id="path-1"></path>
        <filter x="-2.3%" y="-112.6%" width="104.6%" height="325.1%" filterUnits="objectBoundingBox" id="filter-2">
            <feOffset dx="0" dy="0" in="SourceAlpha" result="shadowOffsetOuter1"></feOffset>
            <feGaussianBlur stdDeviation="13.5" in="shadowOffsetOuter1" result="shadowBlurOuter1"></feGaussianBlur>
            <feColorMatrix values="0 0 0 0 0   0 0 0 0 0   0 0 0 0 0  0 0 0 0.12 0" type="matrix" in="shadowBlurOuter1"></feColorMatrix>
        </filter>
        <path d="M873.764579,31.0095564 C1340.37155,31.0095564 1718.63125,23.861195 1718.63125,15.0432443 C1718.63125,6.22529356 1200.53235,2.22817794 873.764579,2.22817794 C546.99681,2.22817794 28.8979125,6.22529356 28.8979125,15.0432443 C28.8979125,23.861195 407.157604,31.0095564 873.764579,31.0095564 Z" id="path-3"></path>
        <filter x="-0.7%" y="-41.7%" width="101.4%" height="183.4%" filterUnits="objectBoundingBox" id="filter-4">
            <feOffset dx="0" dy="0" in="SourceAlpha" result="shadowOffsetOuter1"></feOffset>
            <feGaussianBlur stdDeviation="4" in="shadowOffsetOuter1" result="shadowBlurOuter1"></feGaussianBlur>
            <feColorMatrix values="0 0 0 0 0   0 0 0 0 0   0 0 0 0 0  0 0 0 0.12 0" type="matrix" in="shadowBlurOuter1"></feColorMatrix>
        </filter>
        <path d="M875.165333,22.1005108 C1309.59252,22.1005108 1661.76533,18.5263301 1661.76533,14.1173547 C1661.76533,9.70837936 1179.39739,7.70982154 875.165333,7.70982154 C570.933272,7.70982154 88.5653333,9.70837936 88.5653333,14.1173547 C88.5653333,18.5263301 440.738149,22.1005108 875.165333,22.1005108 Z" id="path-5"></path>
        <filter x="-0.8%" y="-83.4%" width="101.5%" height="266.8%" filterUnits="objectBoundingBox" id="filter-6">
            <feOffset dx="0" dy="0" in="SourceAlpha" result="shadowOffsetOuter1"></feOffset>
            <feGaussianBlur stdDeviation="4" in="shadowOffsetOuter1" result="shadowBlurOuter1"></feGaussianBlur>
            <feColorMatrix values="0 0 0 0 0   0 0 0 0 0   0 0 0 0 0  0 0 0 0.24 0" type="matrix" in="shadowBlurOuter1"></feColorMatrix>
        </filter>
        <path d="M1721,271 L1728,271 L1728,115.004227 C1728,51.4870062 1676.6031,0 1613.19926,0 L114.800738,0 C51.4007243,0 0,51.490555 0,115.004227 L0,271 L7,271 L14,271 L14,115.004227 C14,59.2174626 59.1378013,14 114.800738,14 L1613.19926,14 C1668.86592,14 1714,59.2138105 1714,115.004227 L1714,271 L1721,271 L1721,271 Z" id="path-7"></path>
        <linearGradient x1="97.8411639%" y1="16.5194362%" x2="2.60959201%" y2="16.5194362%" id="linearGradient-9">
            <stop stop-color="#F4F6F5" offset="0%"></stop>
            <stop stop-color="#626262" offset="4.80199918%"></stop>
            <stop stop-color="#D0D0D0" offset="19.0186808%"></stop>
            <stop stop-color="#E0E0E0" offset="32.7166366%"></stop>
            <stop stop-color="#ECECEC" offset="48.9146165%"></stop>
            <stop stop-color="#DCDCDC" offset="82.2965576%"></stop>
            <stop stop-color="#5C5C5C" offset="97.9246286%"></stop>
            <stop stop-color="#D3D3D3" offset="100%"></stop>
        </linearGradient>
        <linearGradient x1="-86.0802238%" y1="37.3769672%" x2="50%" y2="100%" id="linearGradient-10">
            <stop stop-color="#D3D3D3" offset="0%"></stop>
            <stop stop-color="#7C7C7C" offset="23.0535734%"></stop>
            <stop stop-color="#7A7A7A" offset="100%"></stop>
        </linearGradient>
        <linearGradient x1="175.46875%" y1="37.9488566%" x2="50%" y2="100%" id="linearGradient-11">
            <stop stop-color="#D1CFCF" offset="0%"></stop>
            <stop stop-color="#F4F6F5" offset="11.4155251%"></stop>
            <stop stop-color="#7A7A7A" offset="100%"></stop>
        </linearGradient>
        <path d="M1721,0 L1728,0 L1728,155.995773 C1728,219.512994 1676.6031,271 1613.19926,271 L114.800738,271 C51.4007243,271 0,219.509445 0,155.995773 L0,0 L7,0 L14,0 L14,155.995773 C14,211.782537 59.1378013,257 114.800738,257 L1613.19926,257 C1668.86592,257 1714,211.786189 1714,155.995773 L1714,0 L1721,0 L1721,0 Z" id="path-12"></path>
        <linearGradient x1="98.8733362%" y1="84.9346399%" x2="1.23697917%" y2="84.9346399%" id="linearGradient-14">
            <stop stop-color="#F2F4F3" offset="0%"></stop>
            <stop stop-color="#A3A3A3" offset="5.63911167%"></stop>
            <stop stop-color="#2E2E2E" offset="10.2886699%"></stop>
            <stop stop-color="#7F7F7F" offset="21.8688066%"></stop>
            <stop stop-color="#B8B8B8" offset="34.1853522%"></stop>
            <stop stop-color="#C6C6C6" offset="47.8159562%"></stop>
            <stop stop-color="#8F8F8F" offset="80%"></stop>
            <stop stop-color="#3F3F3F" offset="95.1513884%"></stop>
            <stop stop-color="#000000" offset="100%"></stop>
        </linearGradient>
        <linearGradient x1="212.844914%" y1="50%" x2="100%" y2="-8.24928977%" id="linearGradient-15">
            <stop stop-color="#8A8A8A" offset="0%"></stop>
            <stop stop-color="#F3F5F4" offset="16.3432149%"></stop>
            <stop stop-color="#7F7F7F" offset="100%"></stop>
        </linearGradient>
        <linearGradient x1="-103.891226%" y1="69.5810355%" x2="0%" y2="0%" id="linearGradient-16">
            <stop stop-color="#C9C9C9" offset="0%"></stop>
            <stop stop-color="#323232" offset="13.945529%"></stop>
            <stop stop-color="#7F7F7F" offset="100%"></stop>
        </linearGradient>
        <linearGradient x1="50%" y1="0%" x2="50%" y2="100%" id="linearGradient-17">
            <stop stop-color="#7A7A7A" offset="0%"></stop>
            <stop stop-color="#C6C8C7" offset="19.1324555%"></stop>
            <stop stop-color="#C3C5C4" offset="64.6785438%"></stop>
            <stop stop-color="#7F7F7F" offset="100%"></stop>
        </linearGradient>
        <rect id="path-18" x="0" y="0" width="1702" height="2578" rx="112"></rect>
        <filter x="-0.2%" y="-0.1%" width="100.4%" height="100.3%" filterUnits="objectBoundingBox" id="filter-19">
            <feGaussianBlur stdDeviation="1" in="SourceAlpha" result="shadowBlurInner1"></feGaussianBlur>
            <feOffset dx="0" dy="5" in="shadowBlurInner1" result="shadowOffsetInner1"></feOffset>
            <feComposite in="shadowOffsetInner1" in2="SourceAlpha" operator="arithmetic" k2="-1" k3="1" result="shadowInnerInner1"></feComposite>
            <feColorMatrix values="0 0 0 0 0   0 0 0 0 0   0 0 0 0 0  0 0 0 0.08 0" type="matrix" in="shadowInnerInner1" result="shadowMatrixInner1"></feColorMatrix>
            <feGaussianBlur stdDeviation="0.5" in="SourceAlpha" result="shadowBlurInner2"></feGaussianBlur>
            <feOffset dx="0" dy="3" in="shadowBlurInner2" result="shadowOffsetInner2"></feOffset>
            <feComposite in="shadowOffsetInner2" in2="SourceAlpha" operator="arithmetic" k2="-1" k3="1" result="shadowInnerInner2"></feComposite>
            <feColorMatrix values="0 0 0 0 0.956862745   0 0 0 0 0.956862745   0 0 0 0 0.956862745  0 0 0 1 0" type="matrix" in="shadowInnerInner2" result="shadowMatrixInner2"></feColorMatrix>
            <feGaussianBlur stdDeviation="1" in="SourceAlpha" result="shadowBlurInner3"></feGaussianBlur>
            <feOffset dx="0" dy="-5" in="shadowBlurInner3" result="shadowOffsetInner3"></feOffset>
            <feComposite in="shadowOffsetInner3" in2="SourceAlpha" operator="arithmetic" k2="-1" k3="1" result="shadowInnerInner3"></feComposite>
            <feColorMatrix values="0 0 0 0 0   0 0 0 0 0   0 0 0 0 0  0 0 0 0.1 0" type="matrix" in="shadowInnerInner3" result="shadowMatrixInner3"></feColorMatrix>
            <feGaussianBlur stdDeviation="0.5" in="SourceAlpha" result="shadowBlurInner4"></feGaussianBlur>
            <feOffset dx="0" dy="-3" in="shadowBlurInner4" result="shadowOffsetInner4"></feOffset>
            <feComposite in="shadowOffsetInner4" in2="SourceAlpha" operator="arithmetic" k2="-1" k3="1" result="shadowInnerInner4"></feComposite>
            <feColorMatrix values="0 0 0 0 0.956862745   0 0 0 0 0.956862745   0 0 0 0 0.956862745  0 0 0 1 0" type="matrix" in="shadowInnerInner4" result="shadowMatrixInner4"></feColorMatrix>
            <feGaussianBlur stdDeviation="1" in="SourceAlpha" result="shadowBlurInner5"></feGaussianBlur>
            <feOffset dx="0" dy="-2" in="shadowBlurInner5" result="shadowOffsetInner5"></feOffset>
            <feComposite in="shadowOffsetInner5" in2="SourceAlpha" operator="arithmetic" k2="-1" k3="1" result="shadowInnerInner5"></feComposite>
            <feColorMatrix values="0 0 0 0 0   0 0 0 0 0   0 0 0 0 0  0 0 0 0.2 0" type="matrix" in="shadowInnerInner5" result="shadowMatrixInner5"></feColorMatrix>
            <feGaussianBlur stdDeviation="1" in="SourceAlpha" result="shadowBlurInner6"></feGaussianBlur>
            <feOffset dx="3" dy="0" in="shadowBlurInner6" result="shadowOffsetInner6"></feOffset>
            <feComposite in="shadowOffsetInner6" in2="SourceAlpha" operator="arithmetic" k2="-1" k3="1" result="shadowInnerInner6"></feComposite>
            <feColorMatrix values="0 0 0 0 0   0 0 0 0 0   0 0 0 0 0  0 0 0 0.08 0" type="matrix" in="shadowInnerInner6" result="shadowMatrixInner6"></feColorMatrix>
            <feGaussianBlur stdDeviation="0.5" in="SourceAlpha" result="shadowBlurInner7"></feGaussianBlur>
            <feOffset dx="3" dy="0" in="shadowBlurInner7" result="shadowOffsetInner7"></feOffset>
            <feComposite in="shadowOffsetInner7" in2="SourceAlpha" operator="arithmetic" k2="-1" k3="1" result="shadowInnerInner7"></feComposite>
            <feColorMatrix values="0 0 0 0 0.956862745   0 0 0 0 0.956862745   0 0 0 0 0.956862745  0 0 0 1 0" type="matrix" in="shadowInnerInner7" result="shadowMatrixInner7"></feColorMatrix>
            <feGaussianBlur stdDeviation="1" in="SourceAlpha" result="shadowBlurInner8"></feGaussianBlur>
            <feOffset dx="-3" dy="0" in="shadowBlurInner8" result="shadowOffsetInner8"></feOffset>
            <feComposite in="shadowOffsetInner8" in2="SourceAlpha" operator="arithmetic" k2="-1" k3="1" result="shadowInnerInner8"></feComposite>
            <feColorMatrix values="0 0 0 0 0   0 0 0 0 0   0 0 0 0 0  0 0 0 0.08 0" type="matrix" in="shadowInnerInner8" result="shadowMatrixInner8"></feColorMatrix>
            <feGaussianBlur stdDeviation="0.5" in="SourceAlpha" result="shadowBlurInner9"></feGaussianBlur>
            <feOffset dx="-3" dy="0" in="shadowBlurInner9" result="shadowOffsetInner9"></feOffset>
            <feComposite in="shadowOffsetInner9" in2="SourceAlpha" operator="arithmetic" k2="-1" k3="1" result="shadowInnerInner9"></feComposite>
            <feColorMatrix values="0 0 0 0 0.956862745   0 0 0 0 0.956862745   0 0 0 0 0.956862745  0 0 0 1 0" type="matrix" in="shadowInnerInner9" result="shadowMatrixInner9"></feColorMatrix>
            <feMerge>
                <feMergeNode in="shadowMatrixInner1"></feMergeNode>
                <feMergeNode in="shadowMatrixInner2"></feMergeNode>
                <feMergeNode in="shadowMatrixInner3"></feMergeNode>
                <feMergeNode in="shadowMatrixInner4"></feMergeNode>
                <feMergeNode in="shadowMatrixInner5"></feMergeNode>
                <feMergeNode in="shadowMatrixInner6"></feMergeNode>
                <feMergeNode in="shadowMatrixInner7"></feMergeNode>
                <feMergeNode in="shadowMatrixInner8"></feMergeNode>
                <feMergeNode in="shadowMatrixInner9"></feMergeNode>
            </feMerge>
        </filter>
        <path d="M68,136 C105.555363,136 136,105.555363 136,68 C136,30.444637 105.555363,0 68,0 C30.444637,0 0,30.444637 0,68 C0,105.555363 30.444637,136 68,136 Z" id="path-20"></path>
        <filter x="-1.7%" y="-0.9%" width="103.3%" height="104.4%" filterUnits="objectBoundingBox" id="filter-21">
            <feOffset dx="0" dy="1.5" in="SourceAlpha" result="shadowOffsetOuter1"></feOffset>
            <feGaussianBlur stdDeviation="0.5" in="shadowOffsetOuter1" result="shadowBlurOuter1"></feGaussianBlur>
            <feColorMatrix values="0 0 0 0 0   0 0 0 0 0   0 0 0 0 0  0 0 0 0.06 0" type="matrix" in="shadowBlurOuter1" result="shadowMatrixOuter1"></feColorMatrix>
            <feOffset dx="0" dy="1" in="SourceAlpha" result="shadowOffsetOuter2"></feOffset>
            <feColorMatrix values="0 0 0 0 1   0 0 0 0 1   0 0 0 0 1  0 0 0 0.5 0" type="matrix" in="shadowOffsetOuter2" result="shadowMatrixOuter2"></feColorMatrix>
            <feMerge>
                <feMergeNode in="shadowMatrixOuter1"></feMergeNode>
                <feMergeNode in="shadowMatrixOuter2"></feMergeNode>
            </feMerge>
        </filter>
        <filter x="-1.5%" y="-0.7%" width="102.9%" height="104.0%" filterUnits="objectBoundingBox" id="filter-22">
            <feMorphology radius="1" operator="erode" in="SourceAlpha" result="shadowSpreadInner1"></feMorphology>
            <feGaussianBlur stdDeviation="0.5" in="shadowSpreadInner1" result="shadowBlurInner1"></feGaussianBlur>
            <feOffset dx="0" dy="0" in="shadowBlurInner1" result="shadowOffsetInner1"></feOffset>
            <feComposite in="shadowOffsetInner1" in2="SourceAlpha" operator="arithmetic" k2="-1" k3="1" result="shadowInnerInner1"></feComposite>
            <feColorMatrix values="0 0 0 0 0   0 0 0 0 0   0 0 0 0 0  0 0 0 0.1 0" type="matrix" in="shadowInnerInner1"></feColorMatrix>
        </filter>
        <circle id="path-23" cx="68.462585" cy="67.537415" r="59.2108844"></circle>
        <filter x="-1.3%" y="-1.3%" width="102.5%" height="102.5%" filterUnits="objectBoundingBox" id="filter-24">
            <feMorphology radius="0.5" operator="dilate" in="SourceAlpha" result="shadowSpreadOuter1"></feMorphology>
            <feOffset dx="0" dy="0" in="shadowSpreadOuter1" result="shadowOffsetOuter1"></feOffset>
            <feColorMatrix values="0 0 0 0 0   0 0 0 0 0   0 0 0 0 0  0 0 0 0.03 0" type="matrix" in="shadowOffsetOuter1"></feColorMatrix>
        </filter>
        <radialGradient cx="121.058392%" cy="134.125808%" fx="121.058392%" fy="134.125808%" r="100.661381%" gradientTransform="translate(1.210584,1.341258),scale(0.998915,1.000000),rotate(45.162709),translate(-1.210584,-1.341258)" id="radialGradient-25">
            <stop stop-color="#FFFFFF" offset="0%"></stop>
            <stop stop-color="#252525" offset="100%"></stop>
        </radialGradient>
        <ellipse id="path-26" cx="16.3868941" cy="15.5661084" rx="15.5830181" ry="15.5661084"></ellipse>
        <filter x="-1.6%" y="-1.6%" width="103.2%" height="106.4%" filterUnits="objectBoundingBox" id="filter-27">
            <feOffset dx="0" dy="1" in="SourceAlpha" result="shadowOffsetOuter1"></feOffset>
            <feColorMatrix values="0 0 0 0 1   0 0 0 0 1   0 0 0 0 1  0 0 0 1 0" type="matrix" in="shadowOffsetOuter1"></feColorMatrix>
        </filter>
        <radialGradient cx="50%" cy="0%" fx="50%" fy="0%" r="100%" gradientTransform="translate(0.500000,0.000000),scale(0.998915,1.000000),rotate(90.000000),translate(-0.500000,-0.000000)" id="radialGradient-28">
            <stop stop-color="#2A4893" offset="0%"></stop>
            <stop stop-color="#213054" offset="100%"></stop>
        </radialGradient>
        <ellipse id="path-29" cx="8.18176589" cy="8.18149306" rx="7.38142961" ry="7.37341979"></ellipse>
        <filter x="-40.6%" y="-40.7%" width="181.3%" height="181.4%" filterUnits="objectBoundingBox" id="filter-31">
            <feMorphology radius="1" operator="dilate" in="SourceAlpha" result="shadowSpreadOuter1"></feMorphology>
            <feOffset dx="0" dy="0" in="shadowSpreadOuter1" result="shadowOffsetOuter1"></feOffset>
            <feGaussianBlur stdDeviation="1" in="shadowOffsetOuter1" result="shadowBlurOuter1"></feGaussianBlur>
            <feColorMatrix values="0 0 0 0 0   0 0 0 0 0   0 0 0 0 0  0 0 0 0.4 0" type="matrix" in="shadowBlurOuter1"></feColorMatrix>
        </filter>
        <filter x="-182.8%" y="-182.8%" width="465.6%" height="465.6%" filterUnits="objectBoundingBox" id="filter-32">
            <feGaussianBlur stdDeviation="1" in="SourceGraphic"></feGaussianBlur>
        </filter>
        <filter x="-121.9%" y="-121.9%" width="343.8%" height="343.8%" filterUnits="objectBoundingBox" id="filter-33">
            <feGaussianBlur stdDeviation="1" in="SourceGraphic"></feGaussianBlur>
        </filter>
        <filter x="-56.6%" y="-83.0%" width="213.2%" height="266.1%" filterUnits="objectBoundingBox" id="filter-34">
            <feGaussianBlur stdDeviation="1" in="SourceGraphic"></feGaussianBlur>
        </filter>
        <filter x="-50.9%" y="-50.9%" width="201.8%" height="201.8%" filterUnits="objectBoundingBox" id="filter-35">
            <feGaussianBlur stdDeviation="1" in="SourceGraphic"></feGaussianBlur>
        </filter>
    </defs>
    <g id="Apple-iPad-Mini-4" stroke="none" stroke-width="1" fill="none" fill-rule="evenodd">
        <g id="Apple-iPad-Mini-4-Silver" transform="translate(23.000000, 0.000000)">
            <g id="Shadow" transform="translate(0.000000, 2586.000000)" fill="black" fill-opacity="1">
                <g id="Outer-Shadow">
                    <use filter="url(#filter-2)" xlink:href="#path-1"></use>
                </g>
                <g id="Middle-Shadow">
                    <use filter="url(#filter-4)" xlink:href="#path-3"></use>
                </g>
                <g id="Inner-Shadow">
                    <use filter="url(#filter-6)" xlink:href="#path-5"></use>
                </g>
            </g>
            <g id="Device" transform="translate(10.000000, 0.000000)">
                <g id="Bevel">
                    <g id="Top-Bevel">
                        <mask id="mask-8" fill="white">
                            <use xlink:href="#path-7"></use>
                        </mask>
                        <use id="Mask" fill="#9B9B9B" fill-rule="nonzero" xlink:href="#path-7"></use>
                        <path d="M1728,271 L1728,115.004227 C1728,51.4870062 1676.6031,0 1613.19926,0 L114.800738,0 C51.4007243,0 0,51.490555 0,115.004227 L0,271 L7,271 L14,271 L14,115.004227 C14,59.2174626 59.1378013,14 114.800738,14 L1613.19926,14 C1668.86592,14 1714,59.2138105 1714,115.004227 L1714,271 L1721,271 L1728,271 Z" id="Bevel" fill="url(#linearGradient-9)" fill-rule="nonzero" mask="url(#mask-8)"></path>
                        <path d="M1728.59491,115.039126 L1728.59491,152.272305 L1711.84262,152.272305 L1711.84262,116.473115 C1711.84262,85.4545013 1699,61 1679,42 L1693,28 C1716,52 1728.59491,80.6823639 1728.59491,115.039126 Z" id="Bevel" fill="url(#linearGradient-10)" mask="url(#mask-8)"></path>
                        <path d="M0,118.92832 L0,152.245752 L17,152.245758 L17,121 C17,83.9309241 27,59.6482139 60,33 L48,17 C12.4474339,45 0,78.3194616 0,118.92832 Z" id="Bevel" fill="url(#linearGradient-11)" mask="url(#mask-8)"></path>
                    </g>
                    <g id="Bottom-Bevel" transform="translate(0.000000, 2333.000000)">
                        <mask id="mask-13" fill="white">
                            <use xlink:href="#path-12"></use>
                        </mask>
                        <use id="Mask" fill="#9B9B9B" fill-rule="nonzero" xlink:href="#path-12"></use>
                        <path d="M1728,0 L1728,155.995773 C1728,219.512994 1676.6031,271 1613.19926,271 L114.800738,271 C51.4007243,271 0,219.509445 0,155.995773 L0,0 L7,0 L14,0 L14,155.995773 C14,211.782537 59.1378013,257 114.800738,257 L1613.19926,257 C1668.86592,257 1714,211.786189 1714,155.995773 L1714,0 L1721,0 L1728,0 Z" id="Bevel" fill="url(#linearGradient-14)" fill-rule="nonzero" mask="url(#mask-13)"></path>
                        <path d="M-4,153.000348 L-4,127 L15,127 L15,151 C15,180.691715 22.4505808,205.684944 43,224 L30,237 C7.64528893,216.865845 -4,185.45435 -4,153.000348 Z" id="Bevel" fill="url(#linearGradient-15)" mask="url(#mask-13)"></path>
                        <path d="M1703.74478,226.791141 C1720.87856,207.395114 1731,179.910311 1731,152.000348 L1731,126 L1713,126 L1713,150.998977 C1713,176.506538 1707.72354,198.33259 1692,216 L1705,228 L1703.74478,226.791141 Z" id="Bevel" fill="url(#linearGradient-16)" mask="url(#mask-13)"></path>
                    </g>
                    <g id="Side-Bevels" transform="translate(0.000000, 151.000000)" fill="url(#linearGradient-17)">
                        <polygon id="Bevel-Right" points="1728 0 1714 0 1714 2321 1728 2321"></polygon>
                        <polygon id="Bevel-Left" points="0 0 14 0 14 2312 0 2312"></polygon>
                    </g>
                </g>
                <g id="Faceplate" transform="translate(13.000000, 13.000000)">
                    <rect id="Faceplate-Border" stroke="#E4E4E4" stroke-width="2" x="-1" y="-1" width="1704" height="2580" rx="112"></rect>
                    <g>
                        <use fill="#F5F6F8" fill-rule="evenodd" xlink:href="#path-18"></use>
                        <use fill="black" fill-opacity="1" filter="url(#filter-19)" xlink:href="#path-18"></use>
                        <rect stroke-opacity="0.75" stroke="#A8A8A8" stroke-width="1" x="0.5" y="0.5" width="1701" height="2577" rx="112"></rect>
                    </g>
                </g>
                <g id="Home-Button" transform="translate(796.000000, 2414.000000)">
                    <g id="Outer-Ring">
                        <use fill="black" fill-opacity="1" filter="url(#filter-21)" xlink:href="#path-20"></use>
                        <use fill="" fill-rule="evenodd" xlink:href="#path-20"></use>
                        <use fill="black" fill-opacity="1" filter="url(#filter-22)" xlink:href="#path-20"></use>
                    </g>
                    <g id="Inner-Ring">
                        <use fill="black" fill-opacity="1" filter="url(#filter-24)" xlink:href="#path-23"></use>
                        <use fill="#F5F6F8" fill-rule="evenodd" xlink:href="#path-23"></use>
                    </g>
                </g>
                <g id="Camera" transform="translate(849.000000, 125.000000)">
                    <g id="Outer-Lens">
                        <use fill="black" fill-opacity="1" filter="url(#filter-27)" xlink:href="#path-26"></use>
                        <use fill="url(#radialGradient-25)" fill-rule="evenodd" xlink:href="#path-26"></use>
                    </g>
                    <g id="Inner-Lens" transform="translate(8.205128, 7.384615)">
                        <mask id="mask-30" fill="white">
                            <use xlink:href="#path-29"></use>
                        </mask>
                        <g id="Mask">
                            <use fill="black" fill-opacity="1" filter="url(#filter-31)" xlink:href="#path-29"></use>
                            <use fill="url(#radialGradient-28)" fill-rule="evenodd" xlink:href="#path-29"></use>
                        </g>
                        <circle id="Reflection-Bottom-Left" fill="#BEE5FF" filter="url(#filter-32)" mask="url(#mask-30)" cx="3.67425499" cy="10.2019373" r="1"></circle>
                        <circle id="Reflection-Top-Right" fill="#75C9FF" filter="url(#filter-33)" mask="url(#mask-30)" cx="13.1101524" cy="4.86860399" r="1.23076923"></circle>
                        <path d="M6.73144936,5.68783486 C8.15514362,4.89866824 9.03509903,3.7642942 8.69688476,3.15413951 C8.3586705,2.54398482 6.93036142,2.68910267 5.50666716,3.47826929 C4.08297289,4.26743591 3.20301749,5.40180995 3.54123175,6.01196464 C3.87944602,6.62211933 5.30775509,6.47700148 6.73144936,5.68783486 L6.73144936,5.68783486 Z" id="Refection-Top-Left" fill="#3358B6" filter="url(#filter-34)" mask="url(#mask-30)"></path>
                        <path d="M9.07105322,11.0544621 C10.6357822,10.6057833 11.5405196,8.97359382 11.0918408,7.40886488 C10.6431619,5.84413594 9.01097248,4.93939855 7.44624355,5.38807735 C5.88151461,5.83675615 4.97677721,7.46894562 5.42545602,9.03367455 C5.87413482,10.5984035 7.50632428,11.5031409 9.07105322,11.0544621 L9.07105322,11.0544621 Z" id="Center" fill="#00154F" filter="url(#filter-35)" mask="url(#mask-30)"></path>
                    </g>
                </g>
                <path d="M93,278.012791 L93,278.012791 L93,2325.98721 C93,2327.64691 94.3504248,2329 96.0162582,2329 L1631.98374,2329 C1633.64527,2329 1635,2327.65113 1635,2325.98721 L1635,278.012791 C1635,276.353094 1633.64958,275 1631.98374,275 L96.0162582,275 C94.354727,275 93,276.348873 93,278.012791 L93,278.012791 Z" id="Edge" fill="#363535" fill-rule="nonzero"></path>
            </g>
            <rect id="Screen" fill="#1D2129" x="106" y="278" width="1536" height="2048"></rect>
        </g>
    </g>
</svg>