
<svg width="1446px" height="3021px" viewBox="0 0 1446 3021" version="1.1" xmlns="http://www.w3.org/2000/svg" xmlns:xlink="http://www.w3.org/1999/xlink">
    <!-- Generator: Sketch 43.2 (39069) - http://www.bohemiancoding.com/sketch -->
    <desc>Created with Sketch.</desc>
    <defs>
        <path d="M622.5,40.5071253 C966.297257,40.5071253 1245,30.4464685 1245,18.0360193 C1245,5.62557014 863.263359,9.71942227e-16 622.5,0 C381.736641,-9.59319599e-16 0,5.62557014 0,18.0360193 C0,30.4464685 278.702743,40.5071253 622.5,40.5071253 Z" id="path-1"></path>
        <filter x="-6.1%" y="-181.4%" width="112.3%" height="477.7%" filterUnits="objectBoundingBox" id="filter-2">
            <feOffset dx="0" dy="3" in="SourceAlpha" result="shadowOffsetOuter1"></feOffset>
            <feGaussianBlur stdDeviation="25" in="shadowOffsetOuter1" result="shadowBlurOuter1"></feGaussianBlur>
            <feColorMatrix values="0 0 0 0 0   0 0 0 0 0   0 0 0 0 0  0 0 0 0.12 0" type="matrix" in="shadowBlurOuter1"></feColorMatrix>
        </filter>
        <path d="M622.332323,34.9144636 C954.669671,34.9144636 1224.08232,26.8659381 1224.08232,16.9375787 C1224.08232,7.00921942 855.070237,2.50876331 622.332323,2.50876331 C389.59441,2.50876331 20.5823232,7.00921942 20.5823232,16.9375787 C20.5823232,26.8659381 289.994975,34.9144636 622.332323,34.9144636 Z" id="path-3"></path>
        <filter x="-2.6%" y="-87.9%" width="105.2%" height="294.4%" filterUnits="objectBoundingBox" id="filter-4">
            <feOffset dx="0" dy="3" in="SourceAlpha" result="shadowOffsetOuter1"></feOffset>
            <feGaussianBlur stdDeviation="10" in="shadowOffsetOuter1" result="shadowBlurOuter1"></feGaussianBlur>
            <feColorMatrix values="0 0 0 0 0   0 0 0 0 0   0 0 0 0 0  0 0 0 0.08 0" type="matrix" in="shadowBlurOuter1"></feColorMatrix>
        </filter>
        <path d="M623.33,24.8835381 C932.747531,24.8835381 1183.58,20.8592753 1183.58,15.8950957 C1183.58,10.930916 840.017023,8.68068796 623.33,8.68068796 C406.642977,8.68068796 63.08,10.930916 63.08,15.8950957 C63.08,20.8592753 313.912469,24.8835381 623.33,24.8835381 Z" id="path-5"></path>
        <filter x="-1.9%" y="-111.1%" width="103.7%" height="359.2%" filterUnits="objectBoundingBox" id="filter-6">
            <feOffset dx="0" dy="3" in="SourceAlpha" result="shadowOffsetOuter1"></feOffset>
            <feGaussianBlur stdDeviation="6.5" in="shadowOffsetOuter1" result="shadowBlurOuter1"></feGaussianBlur>
            <feColorMatrix values="0 0 0 0 0   0 0 0 0 0   0 0 0 0 0  0 0 0 0.24 0" type="matrix" in="shadowBlurOuter1"></feColorMatrix>
        </filter>
        <path d="M1439.35936,851.487339 L1439.35936,2701.05646 C1439.35936,2783.36119 1415.86095,2948.41811 1188.67509,2948.41811 L257.324914,2948.41811 C32.784932,2948.41811 8.30080367,2784.27773 8.30080367,2701.05646 L8.30080367,1120.42953 C10.3548619,1118.33265 11.6211251,1115.46066 11.6211251,1112.29272 L11.6211251,630.859878 C11.6211251,627.690201 10.354733,624.8184 8.30080367,622.722054 L8.30080367,247.361655 C8.30080367,102.043816 83.0210067,0 257.324914,0 C432.173561,1.0304978e-14 1121.88921,1.79686228e-14 1193.65557,0 C1307.86944,-1.79686232e-14 1439.35936,49.4541731 1439.35936,247.361655 L1439.35936,622.724392 C1437.3053,624.822068 1436.03904,627.695151 1436.03904,630.864294 L1436.03904,843.344761 C1436.03904,846.517802 1437.30543,849.390722 1439.35936,851.487339 Z" id="path-7"></path>
        <filter x="-2.1%" y="-0.3%" width="104.2%" height="100.7%" filterUnits="objectBoundingBox" id="filter-8">
            <feGaussianBlur stdDeviation="4" in="SourceAlpha" result="shadowBlurInner1"></feGaussianBlur>
            <feOffset dx="0" dy="-12" in="shadowBlurInner1" result="shadowOffsetInner1"></feOffset>
            <feComposite in="shadowOffsetInner1" in2="SourceAlpha" operator="arithmetic" k2="-1" k3="1" result="shadowInnerInner1"></feComposite>
            <feColorMatrix values="0 0 0 0 0.678431373   0 0 0 0 0.678431373   0 0 0 0 0.678431373  0 0 0 0.6 0" type="matrix" in="shadowInnerInner1" result="shadowMatrixInner1"></feColorMatrix>
            <feGaussianBlur stdDeviation="4" in="SourceAlpha" result="shadowBlurInner2"></feGaussianBlur>
            <feOffset dx="0" dy="12" in="shadowBlurInner2" result="shadowOffsetInner2"></feOffset>
            <feComposite in="shadowOffsetInner2" in2="SourceAlpha" operator="arithmetic" k2="-1" k3="1" result="shadowInnerInner2"></feComposite>
            <feColorMatrix values="0 0 0 0 0.872236395   0 0 0 0 0.872236395   0 0 0 0 0.872236395  0 0 0 1 0" type="matrix" in="shadowInnerInner2" result="shadowMatrixInner2"></feColorMatrix>
            <feGaussianBlur stdDeviation="1" in="SourceAlpha" result="shadowBlurInner3"></feGaussianBlur>
            <feOffset dx="0" dy="5" in="shadowBlurInner3" result="shadowOffsetInner3"></feOffset>
            <feComposite in="shadowOffsetInner3" in2="SourceAlpha" operator="arithmetic" k2="-1" k3="1" result="shadowInnerInner3"></feComposite>
            <feColorMatrix values="0 0 0 0 1   0 0 0 0 1   0 0 0 0 1  0 0 0 1 0" type="matrix" in="shadowInnerInner3" result="shadowMatrixInner3"></feColorMatrix>
            <feGaussianBlur stdDeviation="1" in="SourceAlpha" result="shadowBlurInner4"></feGaussianBlur>
            <feOffset dx="0" dy="-5" in="shadowBlurInner4" result="shadowOffsetInner4"></feOffset>
            <feComposite in="shadowOffsetInner4" in2="SourceAlpha" operator="arithmetic" k2="-1" k3="1" result="shadowInnerInner4"></feComposite>
            <feColorMatrix values="0 0 0 0 0.148224915   0 0 0 0 0.148224915   0 0 0 0 0.148224915  0 0 0 1 0" type="matrix" in="shadowInnerInner4" result="shadowMatrixInner4"></feColorMatrix>
            <feGaussianBlur stdDeviation="2.5" in="SourceAlpha" result="shadowBlurInner5"></feGaussianBlur>
            <feOffset dx="0" dy="2" in="shadowBlurInner5" result="shadowOffsetInner5"></feOffset>
            <feComposite in="shadowOffsetInner5" in2="SourceAlpha" operator="arithmetic" k2="-1" k3="1" result="shadowInnerInner5"></feComposite>
            <feColorMatrix values="0 0 0 0 0   0 0 0 0 0   0 0 0 0 0  0 0 0 0.452813632 0" type="matrix" in="shadowInnerInner5" result="shadowMatrixInner5"></feColorMatrix>
            <feMerge>
                <feMergeNode in="shadowMatrixInner1"></feMergeNode>
                <feMergeNode in="shadowMatrixInner2"></feMergeNode>
                <feMergeNode in="shadowMatrixInner3"></feMergeNode>
                <feMergeNode in="shadowMatrixInner4"></feMergeNode>
                <feMergeNode in="shadowMatrixInner5"></feMergeNode>
            </feMerge>
        </filter>
        <linearGradient x1="50%" y1="0%" x2="50%" y2="100%" id="linearGradient-9">
            <stop stop-color="#191B19" offset="0%"></stop>
            <stop stop-color="#141414" offset="100%"></stop>
        </linearGradient>
        <path d="M15.0549342,0.999863562 C21.6482118,1.06996903 33.1963493,1.01289682 33.1963493,1.01289682 C35.0339039,1.00569875 38.0105837,0.999863562 39.841314,0.999863562 L156.057653,0.999863562 C157.890011,0.999863562 160.858295,0.999863561 162.688271,0.999863561 C162.688271,0.999863561 174.026646,0.999863558 181.13221,0.999863562 C188.237774,0.999863566 195.898967,7.63989936 195.898967,7.63989936 L0,7.63989936 C0,7.63989936 8.46165655,0.929758094 15.0549342,0.999863562 Z" id="path-10"></path>
        <filter x="-1.5%" y="-45.2%" width="103.1%" height="190.4%" filterUnits="objectBoundingBox" id="filter-11">
            <feMorphology radius="1" operator="dilate" in="SourceAlpha" result="shadowSpreadOuter1"></feMorphology>
            <feOffset dx="0" dy="0" in="shadowSpreadOuter1" result="shadowOffsetOuter1"></feOffset>
            <feColorMatrix values="0 0 0 0 1   0 0 0 0 1   0 0 0 0 1  0 0 0 0.1 0" type="matrix" in="shadowOffsetOuter1"></feColorMatrix>
        </filter>
        <path d="M0,4.97480259 C0,2.22729499 2.22691959,0 4.97897571,0 L11.6211251,0 L11.6211251,116.210173 L4.97897571,116.210173 C2.22916336,116.210173 0,113.979654 0,111.235371 L0,4.97480259 Z" id="path-12"></path>
        <filter x="-17.2%" y="-3.4%" width="168.8%" height="106.9%" filterUnits="objectBoundingBox" id="filter-13">
            <feOffset dx="2" dy="0" in="SourceAlpha" result="shadowOffsetOuter1"></feOffset>
            <feGaussianBlur stdDeviation="1" in="shadowOffsetOuter1" result="shadowBlurOuter1"></feGaussianBlur>
            <feColorMatrix values="0 0 0 0 0   0 0 0 0 0   0 0 0 0 0  0 0 0 0.1 0" type="matrix" in="shadowBlurOuter1"></feColorMatrix>
        </filter>
        <filter x="-8.6%" y="-2.6%" width="151.6%" height="105.2%" filterUnits="objectBoundingBox" id="filter-14">
            <feOffset dx="2" dy="0" in="SourceAlpha" result="shadowOffsetInner1"></feOffset>
            <feComposite in="shadowOffsetInner1" in2="SourceAlpha" operator="arithmetic" k2="-1" k3="1" result="shadowInnerInner1"></feComposite>
            <feColorMatrix values="0 0 0 0 0.317647059   0 0 0 0 0.321568627   0 0 0 0 0.333333333  0 0 0 1 0" type="matrix" in="shadowInnerInner1"></feColorMatrix>
        </filter>
        <linearGradient x1="50%" y1="0%" x2="50%" y2="98.2554408%" id="linearGradient-15">
            <stop stop-color="#DEDEDE" offset="0%"></stop>
            <stop stop-color="#16171C" offset="2.09784252%"></stop>
            <stop stop-color="#222328" offset="4.73708843%"></stop>
            <stop stop-color="#D2D3D8" offset="11.3476562%"></stop>
            <stop stop-color="#DEDEDE" offset="14.244905%"></stop>
            <stop stop-color="#DEDEDE" offset="89.3643234%"></stop>
            <stop stop-color="#212227" offset="97.993793%"></stop>
            <stop stop-color="#A3A4A9" offset="100%"></stop>
        </linearGradient>
        <path d="M0,4.97705313 C0,2.22830259 2.22691959,0 4.97897571,0 L11.6211251,0 L11.6211251,217.479039 L4.97897571,217.479039 C2.22916336,217.479039 0,215.255733 0,212.501985 L0,4.97705313 Z" id="path-16"></path>
        <filter x="-17.2%" y="-1.8%" width="168.8%" height="103.7%" filterUnits="objectBoundingBox" id="filter-17">
            <feOffset dx="2" dy="0" in="SourceAlpha" result="shadowOffsetOuter1"></feOffset>
            <feGaussianBlur stdDeviation="1" in="shadowOffsetOuter1" result="shadowBlurOuter1"></feGaussianBlur>
            <feColorMatrix values="0 0 0 0 0   0 0 0 0 0   0 0 0 0 0  0 0 0 0.1 0" type="matrix" in="shadowBlurOuter1"></feColorMatrix>
        </filter>
        <filter x="-8.6%" y="-1.4%" width="151.6%" height="102.8%" filterUnits="objectBoundingBox" id="filter-18">
            <feOffset dx="2" dy="0" in="SourceAlpha" result="shadowOffsetInner1"></feOffset>
            <feComposite in="shadowOffsetInner1" in2="SourceAlpha" operator="arithmetic" k2="-1" k3="1" result="shadowInnerInner1"></feComposite>
            <feColorMatrix values="0 0 0 0 0.317647059   0 0 0 0 0.321568627   0 0 0 0 0.333333333  0 0 0 1 0" type="matrix" in="shadowInnerInner1"></feColorMatrix>
        </filter>
        <linearGradient x1="50%" y1="0%" x2="50%" y2="100%" id="linearGradient-19">
            <stop stop-color="#222328" offset="0%"></stop>
            <stop stop-color="#26252A" offset="8.18956163%"></stop>
            <stop stop-color="#DFDFDF" offset="15.9206814%"></stop>
            <stop stop-color="#DDDDDD" offset="87.6831055%"></stop>
            <stop stop-color="#4D4E53" offset="95.2799479%"></stop>
            <stop stop-color="#25262A" offset="100%"></stop>
        </linearGradient>
        <path d="M0,4.98876462 C0,2.233546 2.22691959,-1.84313157e-16 4.97897571,-1.84313157e-16 L11.6211251,-1.84313157e-16 L11.6211251,217.470184 C11.6211251,218.391947 10.8764931,219.139184 9.95610125,219.139184 L4.97897571,219.139184 C2.22916336,219.139184 0,216.916855 0,214.150419 L0,4.98876462 Z" id="path-20"></path>
        <filter x="-17.2%" y="-1.8%" width="168.8%" height="103.7%" filterUnits="objectBoundingBox" id="filter-21">
            <feOffset dx="2" dy="0" in="SourceAlpha" result="shadowOffsetOuter1"></feOffset>
            <feGaussianBlur stdDeviation="1" in="shadowOffsetOuter1" result="shadowBlurOuter1"></feGaussianBlur>
            <feColorMatrix values="0 0 0 0 0   0 0 0 0 0   0 0 0 0 0  0 0 0 0.1 0" type="matrix" in="shadowBlurOuter1"></feColorMatrix>
        </filter>
        <filter x="-8.6%" y="-1.4%" width="151.6%" height="102.7%" filterUnits="objectBoundingBox" id="filter-22">
            <feOffset dx="2" dy="0" in="SourceAlpha" result="shadowOffsetInner1"></feOffset>
            <feComposite in="shadowOffsetInner1" in2="SourceAlpha" operator="arithmetic" k2="-1" k3="1" result="shadowInnerInner1"></feComposite>
            <feColorMatrix values="0 0 0 0 0.317647059   0 0 0 0 0.321568627   0 0 0 0 0.333333333  0 0 0 1 0" type="matrix" in="shadowInnerInner1"></feColorMatrix>
        </filter>
        <linearGradient x1="50%" y1="0%" x2="50%" y2="100%" id="linearGradient-23">
            <stop stop-color="#222328" offset="0%"></stop>
            <stop stop-color="#26252A" offset="8.18956163%"></stop>
            <stop stop-color="#DEDEDE" offset="15.9206814%"></stop>
            <stop stop-color="#DDDDDD" offset="87.6831055%"></stop>
            <stop stop-color="#4D4E53" offset="95.2799479%"></stop>
            <stop stop-color="#25262A" offset="100%"></stop>
        </linearGradient>
        <path d="M0,4.98876462 C0,2.233546 2.21319858,0.316168292 4.92840329,0.70405108 L6.69272186,0.956094252 C9.41460383,1.34493093 11.6211251,3.88422417 11.6211251,6.63814895 L11.6211251,212.501035 C11.6211251,215.25031 9.40792656,217.795207 6.69272186,218.18309 L4.92840329,218.435133 C2.20652131,218.823969 0,216.916855 0,214.150419 L0,4.98876462 Z" id="path-24"></path>
        <filter x="-17.2%" y="-1.8%" width="168.8%" height="103.7%" filterUnits="objectBoundingBox" id="filter-25">
            <feOffset dx="2" dy="0" in="SourceAlpha" result="shadowOffsetOuter1"></feOffset>
            <feGaussianBlur stdDeviation="1" in="shadowOffsetOuter1" result="shadowBlurOuter1"></feGaussianBlur>
            <feColorMatrix values="0 0 0 0 0   0 0 0 0 0   0 0 0 0 0  0 0 0 0.1 0" type="matrix" in="shadowBlurOuter1"></feColorMatrix>
        </filter>
        <filter x="-8.6%" y="-1.4%" width="151.6%" height="102.8%" filterUnits="objectBoundingBox" id="filter-26">
            <feOffset dx="2" dy="0" in="SourceAlpha" result="shadowOffsetInner1"></feOffset>
            <feComposite in="shadowOffsetInner1" in2="SourceAlpha" operator="arithmetic" k2="-1" k3="1" result="shadowInnerInner1"></feComposite>
            <feColorMatrix values="0 0 0 0 0.317647059   0 0 0 0 0.321568627   0 0 0 0 0.333333333  0 0 0 1 0" type="matrix" in="shadowInnerInner1"></feColorMatrix>
        </filter>
        <linearGradient x1="50%" y1="0%" x2="50%" y2="98.2554408%" id="linearGradient-27">
            <stop stop-color="#898A8F" offset="0%"></stop>
            <stop stop-color="#16171C" offset="2.09784252%"></stop>
            <stop stop-color="#222328" offset="4.73708843%"></stop>
            <stop stop-color="#D2D3D8" offset="11.3476562%"></stop>
            <stop stop-color="#DEDEDE" offset="14.244905%"></stop>
            <stop stop-color="#DEDEDE" offset="85.1637375%"></stop>
            <stop stop-color="#B9BABF" offset="89.3643234%"></stop>
            <stop stop-color="#212227" offset="97.993793%"></stop>
            <stop stop-color="#A3A4A9" offset="100%"></stop>
        </linearGradient>
        <linearGradient x1="50%" y1="0%" x2="50%" y2="100%" id="linearGradient-28">
            <stop stop-color="#020202" offset="0%"></stop>
            <stop stop-color="#000000" offset="100%"></stop>
        </linearGradient>
        <path d="M2.00332666,2686.11515 C2.00332666,2605.6824 1.99584167,1034.70395 2.00332666,214.158748 C2.00425475,112.416482 47.8425708,-3.73702684e-15 217.824222,-7.23897682e-15 C387.805874,-1.07409268e-14 1102.31045,1.45099757e-14 1174.07681,-3.73702684e-15 C1288.29068,-2.12467768e-14 1386.5774,59.2367091 1386.57738,214.158748 C1386.57729,1033.18864 1386.57738,2629.14493 1386.57738,2687.77529 C1386.57738,2746.40566 1369.24621,2901.93404 1170.75648,2901.93404 L219.484383,2901.93404 C32.1472426,2901.93404 2.00332666,2766.54789 2.00332666,2686.11515 Z" id="path-29"></path>
        <filter x="-0.2%" y="-0.1%" width="100.4%" height="100.2%" filterUnits="objectBoundingBox" id="filter-30">
            <feGaussianBlur stdDeviation="1.5" in="SourceAlpha" result="shadowBlurInner1"></feGaussianBlur>
            <feOffset dx="0" dy="2" in="shadowBlurInner1" result="shadowOffsetInner1"></feOffset>
            <feComposite in="shadowOffsetInner1" in2="SourceAlpha" operator="arithmetic" k2="-1" k3="1" result="shadowInnerInner1"></feComposite>
            <feColorMatrix values="0 0 0 0 0   0 0 0 0 0   0 0 0 0 0  0 0 0 0.14 0" type="matrix" in="shadowInnerInner1"></feColorMatrix>
        </filter>
        <filter x="-1779.9%" y="-1.7%" width="1879.9%" height="103.2%" filterUnits="objectBoundingBox" id="filter-31">
            <feGaussianBlur stdDeviation="0" in="SourceGraphic"></feGaussianBlur>
        </filter>
        <linearGradient x1="100%" y1="33.82999%" x2="63.3372891%" y2="33.82999%" id="linearGradient-32">
            <stop stop-color="#F4F4F4" offset="0%"></stop>
            <stop stop-color="#77797E" offset="63.2738271%"></stop>
            <stop stop-color="#494B4F" offset="100%"></stop>
        </linearGradient>
        <path d="M26.0000097,0.550212743 C74.6724087,14.3314585 110.331698,59.0833525 110.3317,112.171645 L110.331784,2707.57581 C110.331785,2751.93957 85.4272963,2790.86259 48.8422818,2810.92685 C67.9838469,2781.69022 79.7515617,2747.53707 79.7515614,2715.62377 L79.7515337,98.9828459 C79.7515333,57.8173195 58.3158387,21.4542069 26,0.550206456 Z" id="path-33"></path>
        <filter x="-2929.7%" y="-1.5%" width="3029.7%" height="104.0%" filterUnits="objectBoundingBox" id="filter-34">
            <feGaussianBlur stdDeviation="0" in="SourceGraphic"></feGaussianBlur>
        </filter>
        <filter x="-2935.6%" y="-1.7%" width="3041.5%" height="104.3%" filterUnits="objectBoundingBox" id="filter-35">
            <feGaussianBlur stdDeviation="3.5" in="SourceAlpha" result="shadowBlurInner1"></feGaussianBlur>
            <feOffset dx="-3" dy="0" in="shadowBlurInner1" result="shadowOffsetInner1"></feOffset>
            <feComposite in="shadowOffsetInner1" in2="SourceAlpha" operator="arithmetic" k2="-1" k3="1" result="shadowInnerInner1"></feComposite>
            <feColorMatrix values="0 0 0 0 1   0 0 0 0 1   0 0 0 0 1  0 0 0 1 0" type="matrix" in="shadowInnerInner1"></feColorMatrix>
        </filter>
        <filter x="-1779.9%" y="-1.7%" width="1879.9%" height="103.2%" filterUnits="objectBoundingBox" id="filter-36">
            <feGaussianBlur stdDeviation="0" in="SourceGraphic"></feGaussianBlur>
        </filter>
        <path d="M26.0000097,0.550212743 C74.6724087,14.3314585 110.331698,59.0833525 110.3317,112.171645 L110.331784,2707.57581 C110.331785,2751.93957 85.4272963,2790.86259 48.8422818,2810.92685 C67.9838469,2781.69022 79.7515617,2747.53707 79.7515614,2715.62377 L79.7515337,98.9828459 C79.7515333,57.8173195 58.3158387,21.4542069 26,0.550206456 Z" id="path-37"></path>
        <filter x="-2929.7%" y="-1.5%" width="3029.7%" height="104.0%" filterUnits="objectBoundingBox" id="filter-38">
            <feGaussianBlur stdDeviation="0" in="SourceGraphic"></feGaussianBlur>
        </filter>
        <filter x="-2935.6%" y="-1.7%" width="3041.5%" height="104.3%" filterUnits="objectBoundingBox" id="filter-39">
            <feGaussianBlur stdDeviation="3.5" in="SourceAlpha" result="shadowBlurInner1"></feGaussianBlur>
            <feOffset dx="-3" dy="0" in="shadowBlurInner1" result="shadowOffsetInner1"></feOffset>
            <feComposite in="shadowOffsetInner1" in2="SourceAlpha" operator="arithmetic" k2="-1" k3="1" result="shadowInnerInner1"></feComposite>
            <feColorMatrix values="0 0 0 0 1   0 0 0 0 1   0 0 0 0 1  0 0 0 1 0" type="matrix" in="shadowInnerInner1"></feColorMatrix>
        </filter>
        <path d="M695.738232,2832.75797 L695.738232,2832.75797 C743.010863,2832.75797 781.738232,2794.0306 781.738232,2746.75797 C781.738232,2698.48533 743.010863,2659.75797 695.738232,2659.75797 C647.465601,2659.75797 608.738232,2698.48533 608.738232,2746.75797 C608.738232,2794.0306 647.465601,2832.75797 695.738232,2832.75797 L695.738232,2832.75797 Z M694.738232,2843.75797 L694.738232,2843.75797 C640.614326,2843.75797 596.738232,2799.88187 596.738232,2745.75797 C596.738232,2691.63406 640.614326,2647.75797 694.738232,2647.75797 C748.862137,2647.75797 792.738232,2691.63406 792.738232,2745.75797 C792.738232,2799.88187 748.862137,2843.75797 694.738232,2843.75797 L694.738232,2843.75797 Z" id="path-40"></path>
        <filter x="-1.5%" y="-1.5%" width="103.1%" height="103.1%" filterUnits="objectBoundingBox" id="filter-41">
            <feMorphology radius="2" operator="erode" in="SourceAlpha" result="shadowSpreadInner1"></feMorphology>
            <feGaussianBlur stdDeviation="1" in="shadowSpreadInner1" result="shadowBlurInner1"></feGaussianBlur>
            <feOffset dx="2" dy="0" in="shadowBlurInner1" result="shadowOffsetInner1"></feOffset>
            <feComposite in="shadowOffsetInner1" in2="SourceAlpha" operator="arithmetic" k2="-1" k3="1" result="shadowInnerInner1"></feComposite>
            <feColorMatrix values="0 0 0 0 0   0 0 0 0 0   0 0 0 0 0  0 0 0 0.112686821 0" type="matrix" in="shadowInnerInner1"></feColorMatrix>
        </filter>
        <rect id="path-42" x="0" y="0" width="250.684271" height="21.5818893" rx="10.7909447"></rect>
        <rect id="path-44" x="0" y="0" width="250.684271" height="21.5818893" rx="10.7909447"></rect>
        <filter x="-1.2%" y="-13.9%" width="102.4%" height="127.8%" filterUnits="objectBoundingBox" id="filter-46">
            <feMorphology radius="3" operator="erode" in="SourceAlpha" result="shadowSpreadInner1"></feMorphology>
            <feGaussianBlur stdDeviation="1.5" in="shadowSpreadInner1" result="shadowBlurInner1"></feGaussianBlur>
            <feOffset dx="0" dy="0" in="shadowBlurInner1" result="shadowOffsetInner1"></feOffset>
            <feComposite in="shadowOffsetInner1" in2="SourceAlpha" operator="arithmetic" k2="-1" k3="1" result="shadowInnerInner1"></feComposite>
            <feColorMatrix values="0 0 0 0 0   0 0 0 0 0   0 0 0 0 0  0 0 0 0.5 0" type="matrix" in="shadowInnerInner1"></feColorMatrix>
        </filter>
        <radialGradient cx="121.058392%" cy="134.125808%" fx="121.058392%" fy="134.125808%" r="100.661381%" gradientTransform="translate(1.210584,1.341258),scale(0.999991,1.000000),rotate(45.193546),translate(-1.210584,-1.341258)" id="radialGradient-47">
            <stop stop-color="#434343" offset="0%"></stop>
            <stop stop-color="#161616" offset="100%"></stop>
        </radialGradient>
        <radialGradient cx="50%" cy="0%" fx="50%" fy="0%" r="100%" gradientTransform="translate(0.500000,0.000000),scale(0.999991,1.000000),rotate(90.000000),translate(-0.500000,-0.000000)" id="radialGradient-48">
            <stop stop-color="#2A4893" offset="0%"></stop>
            <stop stop-color="#213054" offset="100%"></stop>
        </radialGradient>
        <ellipse id="path-49" cx="24.0723307" cy="24.0721073" rx="12.4512055" ry="12.45109"></ellipse>
        <filter x="-60.2%" y="-60.2%" width="220.5%" height="220.5%" filterUnits="objectBoundingBox" id="filter-51">
            <feMorphology radius="2.5" operator="dilate" in="SourceAlpha" result="shadowSpreadOuter1"></feMorphology>
            <feOffset dx="0" dy="0" in="shadowSpreadOuter1" result="shadowOffsetOuter1"></feOffset>
            <feGaussianBlur stdDeviation="2.5" in="shadowOffsetOuter1" result="shadowBlurOuter1"></feGaussianBlur>
            <feColorMatrix values="0 0 0 0 0   0 0 0 0 0   0 0 0 0 0  0 0 0 0.4 0" type="matrix" in="shadowBlurOuter1"></feColorMatrix>
        </filter>
        <filter x="-150.2%" y="-150.2%" width="400.3%" height="400.3%" filterUnits="objectBoundingBox" id="filter-52">
            <feGaussianBlur stdDeviation="1.66189153" in="SourceGraphic"></feGaussianBlur>
        </filter>
        <filter x="-150.2%" y="-150.2%" width="400.3%" height="400.3%" filterUnits="objectBoundingBox" id="filter-53">
            <feGaussianBlur stdDeviation="1.66189153" in="SourceGraphic"></feGaussianBlur>
        </filter>
        <filter x="-100.1%" y="-100.1%" width="300.2%" height="300.2%" filterUnits="objectBoundingBox" id="filter-54">
            <feGaussianBlur stdDeviation="1.66189153" in="SourceGraphic"></feGaussianBlur>
        </filter>
        <filter x="-100.1%" y="-100.1%" width="300.2%" height="300.2%" filterUnits="objectBoundingBox" id="filter-55">
            <feGaussianBlur stdDeviation="1.66189153" in="SourceGraphic"></feGaussianBlur>
        </filter>
        <filter x="-42.9%" y="-100.1%" width="185.8%" height="300.2%" filterUnits="objectBoundingBox" id="filter-56">
            <feGaussianBlur stdDeviation="1.66189153" in="SourceGraphic"></feGaussianBlur>
        </filter>
        <filter x="-42.9%" y="-42.9%" width="185.8%" height="185.8%" filterUnits="objectBoundingBox" id="filter-57">
            <feGaussianBlur stdDeviation="1.66189153" in="SourceGraphic"></feGaussianBlur>
        </filter>
    </defs>
    <g id="Page-1" stroke="none" stroke-width="1" fill="none" fill-rule="evenodd">
        <g id="Apple-iPhone-7-Plus-Jet-Black">
            <g id="Shadow" transform="translate(101.000000, 2928.000000)" fill="black" fill-opacity="1">
                <g id="Outer-Shadow">
                    <use filter="url(#filter-2)" xlink:href="#path-1"></use>
                </g>
                <g id="Middle-Shadow">
                    <use filter="url(#filter-4)" xlink:href="#path-3"></use>
                </g>
                <g id="Inner-Shadow">
                    <use filter="url(#filter-6)" xlink:href="#path-5"></use>
                </g>
            </g>
            <g id="Device">
                <g id="Body">
                    <g id="Phone-Shape">
                        <use fill="#000000" fill-rule="evenodd" xlink:href="#path-7"></use>
                        <use fill="black" fill-opacity="1" filter="url(#filter-8)" xlink:href="#path-7"></use>
                    </g>
                    <g id="Antenna" transform="translate(8.300804, 232.420347)" fill="#1A1D22">
                        <path d="M0,3.32029067 C0,3.32029067 8.65261508,2.37394282e-08 26.5625718,-2.27373675e-13 L26.5625718,41.5036333 C9.17790031,42.9793631 0,46.4840693 0,46.4840693 L0,3.32029067 Z" id="Top-Left"></path>
                        <path d="M1404.49598,3.32029067 C1404.49598,3.32029067 1413.1486,2.37394282e-08 1431.05855,-2.27373675e-13 L1431.05855,41.5036333 C1413.67388,42.9793631 1404.49598,46.4840693 1404.49598,46.4840693 L1404.49598,3.32029067 Z" id="Top-Right" transform="translate(1417.777268, 23.242035) scale(-1, 1) translate(-1417.777268, -23.242035) "></path>
                        <path d="M0,2443.73393 C0,2443.73393 8.65261508,2440.41364 26.5625718,2440.41364 L26.5625718,2483.57742 C7.68067527,2482.91352 0,2485.23756 0,2485.23756 L0,2443.73393 Z" id="Bottom-Left" transform="translate(13.281286, 2462.825601) scale(1, -1) translate(-13.281286, -2462.825601) "></path>
                        <path d="M1404.49598,2443.73393 C1404.49598,2443.73393 1413.1486,2440.41364 1431.05855,2440.41364 L1431.05855,2483.57742 C1412.17666,2482.91352 1404.49598,2485.23756 1404.49598,2485.23756 L1404.49598,2443.73393 Z" id="Bottom-Right" transform="translate(1417.777268, 2462.825601) scale(-1, -1) translate(-1417.777268, -2462.825601) "></path>
                    </g>
                    <g id="Plug" transform="translate(625.880597, 2940.777529)" opacity="0.902810168">
                        <g id="Lightning-Connector">
                            <use fill="black" fill-opacity="1" filter="url(#filter-11)" xlink:href="#path-10"></use>
                            <use fill="url(#linearGradient-9)" fill-rule="evenodd" xlink:href="#path-10"></use>
                        </g>
                    </g>
                    <g id="Silent-Button" transform="translate(0.000000, 376.852990)">
                        <g id="Rectangle-165">
                            <use fill="black" fill-opacity="1" filter="url(#filter-13)" xlink:href="#path-12"></use>
                            <use fill="#1A1A1A" fill-rule="evenodd" xlink:href="#path-12"></use>
                            <use fill="black" fill-opacity="1" filter="url(#filter-14)" xlink:href="#path-12"></use>
                        </g>
                        <rect id="Rectangle-166" fill="url(#linearGradient-15)" x="1.66016073" y="0" width="3.32032147" height="116.210173" rx="1.66016073"></rect>
                    </g>
                    <g id="Volume-Up-Button" transform="translate(1.660161, 629.195081)">
                        <g id="Rectangle-165">
                            <use fill="black" fill-opacity="1" filter="url(#filter-17)" xlink:href="#path-16"></use>
                            <use fill="#191919" fill-rule="evenodd" xlink:href="#path-16"></use>
                            <use fill="black" fill-opacity="1" filter="url(#filter-18)" xlink:href="#path-16"></use>
                        </g>
                        <rect id="Rectangle-166" fill="url(#linearGradient-19)" x="1.66016073" y="0" width="3.32032147" height="215.818893" rx="1.66016073"></rect>
                    </g>
                    <g id="Volume-Down-Button" transform="translate(1.660161, 896.478480)">
                        <g id="Rectangle-165">
                            <use fill="black" fill-opacity="1" filter="url(#filter-21)" xlink:href="#path-20"></use>
                            <use fill="#1A1A1A" fill-rule="evenodd" xlink:href="#path-20"></use>
                            <use fill="black" fill-opacity="1" filter="url(#filter-22)" xlink:href="#path-20"></use>
                        </g>
                        <rect id="Rectangle-166" fill="url(#linearGradient-23)" x="1.66016073" y="1.66014533" width="3.32032147" height="215.818893" rx="1.66016073"></rect>
                    </g>
                    <g id="Sleep-Button" transform="translate(1440.000000, 737.034936) scale(-1, 1) translate(-1440.000000, -737.034936) translate(1434.000000, 627.534936)">
                        <g id="Rectangle-165">
                            <use fill="black" fill-opacity="1" filter="url(#filter-25)" xlink:href="#path-24"></use>
                            <use fill="#1A1A1A" fill-rule="evenodd" xlink:href="#path-24"></use>
                            <use fill="black" fill-opacity="1" filter="url(#filter-26)" xlink:href="#path-24"></use>
                        </g>
                        <rect id="Rectangle-166" fill="url(#linearGradient-27)" x="1.66016073" y="1.66014533" width="3.32032147" height="215.818893" rx="1.66016073"></rect>
                    </g>
                </g>
                <g id="Front" transform="translate(29.261768, 23.242035)">
                    <g id="Black-Surface">
                        <use fill="url(#linearGradient-28)" fill-rule="evenodd" xlink:href="#path-29"></use>
                        <use fill="black" fill-opacity="1" filter="url(#filter-30)" xlink:href="#path-29"></use>
                    </g>
                    <g id="gloss" transform="translate(0.738232, 47.000000)">
                        <g id="light-left">
                            <path d="M8.30767438e-06,26.3324975 C41.5528752,43.9795518 70.6950904,85.1666954 70.6950912,133.155187 L70.6951347,2707.5182 C70.6951353,2744.2628 53.6218434,2777.50917 26.9772205,2799.53131 C42.6397217,2776.59786 54.7880341,2746.6501 54.7880341,2715.51837 L54.7880341,126.169856 C54.7880341,84.5665966 32.8929475,47.570428 5.79217208e-09,26.332494 Z" id="bright-left" fill="#FFFFFF" filter="url(#filter-31)" transform="translate(35.347567, 1412.931903) scale(-1, -1) translate(-35.347567, -1412.931903) "></path>
                            <g filter="url(#filter-34)" transform="translate(68.165892, 1405.738530) scale(-1, -1) translate(-68.165892, -1405.738530) ">
                                <use fill="url(#linearGradient-32)" fill-rule="evenodd" xlink:href="#path-33"></use>
                                <use fill="black" fill-opacity="1" filter="url(#filter-35)" xlink:href="#path-33"></use>
                            </g>
                        </g>
                        <g id="light-right" transform="translate(1332.500000, 1405.500000) scale(-1, 1) translate(-1332.500000, -1405.500000) translate(1277.000000, 0.000000)">
                            <path d="M8.30767438e-06,26.3324975 C41.5528752,43.9795518 70.6950904,85.1666954 70.6950912,133.155187 L70.6951347,2707.5182 C70.6951353,2744.2628 53.6218434,2777.50917 26.9772205,2799.53131 C42.6397217,2776.59786 54.7880341,2746.6501 54.7880341,2715.51837 L54.7880341,126.169856 C54.7880341,84.5665966 32.8929475,47.570428 5.79217208e-09,26.332494 Z" id="bright-left" fill="#FFFFFF" filter="url(#filter-36)" transform="translate(35.347567, 1412.931903) scale(-1, -1) translate(-35.347567, -1412.931903) "></path>
                            <g id="light-left" filter="url(#filter-38)" transform="translate(68.165892, 1405.738530) scale(-1, -1) translate(-68.165892, -1405.738530) ">
                                <use fill="url(#linearGradient-32)" fill-rule="evenodd" xlink:href="#path-37"></use>
                                <use fill="black" fill-opacity="1" filter="url(#filter-39)" xlink:href="#path-37"></use>
                            </g>
                        </g>
                    </g>
                    <g id="Home-Button" fill-rule="nonzero">
                        <use fill="" fill-rule="evenodd" xlink:href="#path-40"></use>
                        <use fill="black" fill-opacity="1" filter="url(#filter-41)" xlink:href="#path-40"></use>
                    </g>
                    <g id="Speaker" opacity="0.801364272" transform="translate(569.738232, 157.757965)">
                        <mask id="mask-43" fill="white">
                            <use xlink:href="#path-42"></use>
                        </mask>
                        <use id="Mask" fill="#333333" xlink:href="#path-42"></use>
                        <path d="M-3.6865334,0 L252.527538,0 L252.527538,1.54156352 L-3.6865334,1.54156352 L-3.6865334,0 Z M-3.6865334,4.62469057 L252.527538,4.62469057 L252.527538,6.16625409 L-3.6865334,6.16625409 L-3.6865334,4.62469057 Z M-3.6865334,9.24938114 L252.527538,9.24938114 L252.527538,10.7909447 L-3.6865334,10.7909447 L-3.6865334,9.24938114 Z M-3.6865334,13.8740717 L252.527538,13.8740717 L252.527538,15.4156352 L-3.6865334,15.4156352 L-3.6865334,13.8740717 Z M-3.6865334,18.4987623 L252.527538,18.4987623 L252.527538,20.0403258 L-3.6865334,20.0403258 L-3.6865334,18.4987623 Z" id="Grid" fill-opacity="0.149999991" fill="#000000" mask="url(#mask-43)"></path>
                        <path d="M1.8432667,-1.54156352 L3.6865334,-1.54156352 L3.6865334,24.6650164 L1.8432667,24.6650164 L1.8432667,-1.54156352 Z M7.37306679,-1.54156352 L9.21633349,-1.54156352 L9.21633349,24.6650164 L7.37306679,24.6650164 L7.37306679,-1.54156352 Z M12.9028669,-1.54156352 L14.7461336,-1.54156352 L14.7461336,24.6650164 L12.9028669,24.6650164 L12.9028669,-1.54156352 Z M18.432667,-1.54156352 L20.2759337,-1.54156352 L20.2759337,24.6650164 L18.432667,24.6650164 L18.432667,-1.54156352 Z M23.9624671,-1.54156352 L25.8057338,-1.54156352 L25.8057338,24.6650164 L23.9624671,24.6650164 L23.9624671,-1.54156352 Z M29.4922672,-1.54156352 L31.3355339,-1.54156352 L31.3355339,24.6650164 L29.4922672,24.6650164 L29.4922672,-1.54156352 Z M35.0220673,-1.54156352 L36.865334,-1.54156352 L36.865334,24.6650164 L35.0220673,24.6650164 L35.0220673,-1.54156352 Z M40.5518674,-1.54156352 L42.3951341,-1.54156352 L42.3951341,24.6650164 L40.5518674,24.6650164 L40.5518674,-1.54156352 Z M46.0816675,-1.54156352 L47.9249342,-1.54156352 L47.9249342,24.6650164 L46.0816675,24.6650164 L46.0816675,-1.54156352 Z M51.6114675,-1.54156352 L53.4547342,-1.54156352 L53.4547342,24.6650164 L51.6114675,24.6650164 L51.6114675,-1.54156352 Z M57.1412676,-1.54156352 L58.9845343,-1.54156352 L58.9845343,24.6650164 L57.1412676,24.6650164 L57.1412676,-1.54156352 Z M62.6710677,-1.54156352 L64.5143344,-1.54156352 L64.5143344,24.6650164 L62.6710677,24.6650164 L62.6710677,-1.54156352 Z M68.2008678,-1.54156352 L70.0441345,-1.54156352 L70.0441345,24.6650164 L68.2008678,24.6650164 L68.2008678,-1.54156352 Z M73.7306679,-1.54156352 L75.5739346,-1.54156352 L75.5739346,24.6650164 L73.7306679,24.6650164 L73.7306679,-1.54156352 Z M79.260468,-1.54156352 L81.1037347,-1.54156352 L81.1037347,24.6650164 L79.260468,24.6650164 L79.260468,-1.54156352 Z M84.7902681,-1.54156352 L86.6335348,-1.54156352 L86.6335348,24.6650164 L84.7902681,24.6650164 L84.7902681,-1.54156352 Z M90.3200682,-1.54156352 L92.1633349,-1.54156352 L92.1633349,24.6650164 L90.3200682,24.6650164 L90.3200682,-1.54156352 Z M95.8498683,-1.54156352 L97.693135,-1.54156352 L97.693135,24.6650164 L95.8498683,24.6650164 L95.8498683,-1.54156352 Z M101.379668,-1.54156352 L103.222935,-1.54156352 L103.222935,24.6650164 L101.379668,24.6650164 L101.379668,-1.54156352 Z M106.909468,-1.54156352 L108.752735,-1.54156352 L108.752735,24.6650164 L106.909468,24.6650164 L106.909468,-1.54156352 Z M112.439269,-1.54156352 L114.282535,-1.54156352 L114.282535,24.6650164 L112.439269,24.6650164 L112.439269,-1.54156352 Z M117.969069,-1.54156352 L119.812335,-1.54156352 L119.812335,24.6650164 L117.969069,24.6650164 L117.969069,-1.54156352 Z M123.498869,-1.54156352 L125.342135,-1.54156352 L125.342135,24.6650164 L123.498869,24.6650164 L123.498869,-1.54156352 Z M129.028669,-1.54156352 L130.871936,-1.54156352 L130.871936,24.6650164 L129.028669,24.6650164 L129.028669,-1.54156352 Z M134.558469,-1.54156352 L136.401736,-1.54156352 L136.401736,24.6650164 L134.558469,24.6650164 L134.558469,-1.54156352 Z M140.088269,-1.54156352 L141.931536,-1.54156352 L141.931536,24.6650164 L140.088269,24.6650164 L140.088269,-1.54156352 Z M145.618069,-1.54156352 L147.461336,-1.54156352 L147.461336,24.6650164 L145.618069,24.6650164 L145.618069,-1.54156352 Z M151.147869,-1.54156352 L152.991136,-1.54156352 L152.991136,24.6650164 L151.147869,24.6650164 L151.147869,-1.54156352 Z M156.677669,-1.54156352 L158.520936,-1.54156352 L158.520936,24.6650164 L156.677669,24.6650164 L156.677669,-1.54156352 Z M162.207469,-1.54156352 L164.050736,-1.54156352 L164.050736,24.6650164 L162.207469,24.6650164 L162.207469,-1.54156352 Z M167.73727,-1.54156352 L169.580536,-1.54156352 L169.580536,24.6650164 L167.73727,24.6650164 L167.73727,-1.54156352 Z M173.26707,-1.54156352 L175.110336,-1.54156352 L175.110336,24.6650164 L173.26707,24.6650164 L173.26707,-1.54156352 Z M178.79687,-1.54156352 L180.640136,-1.54156352 L180.640136,24.6650164 L178.79687,24.6650164 L178.79687,-1.54156352 Z M184.32667,-1.54156352 L186.169937,-1.54156352 L186.169937,24.6650164 L184.32667,24.6650164 L184.32667,-1.54156352 Z M189.85647,-1.54156352 L191.699737,-1.54156352 L191.699737,24.6650164 L189.85647,24.6650164 L189.85647,-1.54156352 Z M195.38627,-1.54156352 L197.229537,-1.54156352 L197.229537,24.6650164 L195.38627,24.6650164 L195.38627,-1.54156352 Z M200.91607,-1.54156352 L202.759337,-1.54156352 L202.759337,24.6650164 L200.91607,24.6650164 L200.91607,-1.54156352 Z M206.44587,-1.54156352 L208.289137,-1.54156352 L208.289137,24.6650164 L206.44587,24.6650164 L206.44587,-1.54156352 Z M211.97567,-1.54156352 L213.818937,-1.54156352 L213.818937,24.6650164 L211.97567,24.6650164 L211.97567,-1.54156352 Z M217.50547,-1.54156352 L219.348737,-1.54156352 L219.348737,24.6650164 L217.50547,24.6650164 L217.50547,-1.54156352 Z M223.03527,-1.54156352 L224.878537,-1.54156352 L224.878537,24.6650164 L223.03527,24.6650164 L223.03527,-1.54156352 Z M228.565071,-1.54156352 L230.408337,-1.54156352 L230.408337,24.6650164 L228.565071,24.6650164 L228.565071,-1.54156352 Z M234.094871,-1.54156352 L235.938137,-1.54156352 L235.938137,24.6650164 L234.094871,24.6650164 L234.094871,-1.54156352 Z M239.624671,-1.54156352 L241.467937,-1.54156352 L241.467937,24.6650164 L239.624671,24.6650164 L239.624671,-1.54156352 Z M245.154471,-1.54156352 L246.997738,-1.54156352 L246.997738,24.6650164 L245.154471,24.6650164 L245.154471,-1.54156352 Z" id="Grid" fill-opacity="0.149999991" fill="#000000" mask="url(#mask-43)"></path>
                        <mask id="mask-45" fill="white">
                            <use xlink:href="#path-44"></use>
                        </mask>
                        <g id="Shadow" opacity="0.200000018" fill-opacity="1" fill="black">
                            <use filter="url(#filter-46)" xlink:href="#path-44"></use>
                        </g>
                    </g>
                    <g id="Camera" transform="translate(442.738232, 143.757965)">
                        <ellipse id="Oval-57" fill="url(#radialGradient-47)" cx="24.0723307" cy="24.0721073" rx="24.0723307" ry="24.0721073"></ellipse>
                        <mask id="mask-50" fill="white">
                            <use xlink:href="#path-49"></use>
                        </mask>
                        <g id="Mask" opacity="0.387534981">
                            <use fill="black" fill-opacity="1" filter="url(#filter-51)" xlink:href="#path-49"></use>
                            <use fill="url(#radialGradient-48)" fill-rule="evenodd" xlink:href="#path-49"></use>
                        </g>
                        <ellipse id="Oval-59" fill="#BEE5FF" filter="url(#filter-52)" mask="url(#mask-50)" cx="16.6016073" cy="28.2224707" rx="1.66016073" ry="1.66014533"></ellipse>
                        <ellipse id="Oval-59" fill="#BEE5FF" filter="url(#filter-53)" mask="url(#mask-50)" cx="16.6016073" cy="28.2224707" rx="1.66016073" ry="1.66014533"></ellipse>
                        <ellipse id="Oval-59" fill="#75C9FF" filter="url(#filter-54)" mask="url(#mask-50)" cx="35.6934558" cy="17.431526" rx="2.4902411" ry="2.490218"></ellipse>
                        <ellipse id="Oval-59" fill="#75C9FF" filter="url(#filter-55)" mask="url(#mask-50)" cx="35.6934558" cy="17.431526" rx="2.4902411" ry="2.490218"></ellipse>
                        <ellipse id="Oval-61" fill="#3358B6" filter="url(#filter-56)" mask="url(#mask-50)" transform="translate(20.752009, 17.431526) rotate(-29.000000) translate(-20.752009, -17.431526) " cx="20.7520092" cy="17.431526" rx="5.81056257" ry="2.490218"></ellipse>
                        <ellipse id="Oval-61" fill="#00154F" filter="url(#filter-57)" mask="url(#mask-50)" transform="translate(25.732491, 24.072107) rotate(-16.000000) translate(-25.732491, -24.072107) " cx="25.7324914" cy="24.0721073" rx="5.81056257" ry="5.81050866"></ellipse>
                    </g>
                </g>
            </g>
            <rect id="Screen" fill="#1D2129" x="104" y="380" width="1242" height="2208"></rect>
        </g>
    </g>
</svg>