
<svg width="1446px" height="3022px" viewBox="0 0 1446 3022" version="1.1" xmlns="http://www.w3.org/2000/svg" xmlns:xlink="http://www.w3.org/1999/xlink">
    <!-- Generator: Sketch 43.2 (39069) - http://www.bohemiancoding.com/sketch -->
    <desc>Created with Sketch.</desc>
    <defs>
        <path d="M622.5,41 C966.297257,41 1245,30.8169291 1245,18.2554745 C1245,5.69401985 863.263359,9.83768436e-16 622.5,0 C381.736641,-9.7099222e-16 0,5.69401985 0,18.2554745 C0,30.8169291 278.702743,41 622.5,41 Z" id="path-1"></path>
        <filter x="-6.1%" y="-179.3%" width="112.3%" height="473.2%" filterUnits="objectBoundingBox" id="filter-2">
            <feOffset dx="0" dy="3" in="SourceAlpha" result="shadowOffsetOuter1"></feOffset>
            <feGaussianBlur stdDeviation="25" in="shadowOffsetOuter1" result="shadowBlurOuter1"></feGaussianBlur>
            <feColorMatrix values="0 0 0 0 0   0 0 0 0 0   0 0 0 0 0  0 0 0 0.12 0" type="matrix" in="shadowBlurOuter1"></feColorMatrix>
        </filter>
        <path d="M623,35 C955.475419,35 1225,27.0522373 1225,17.2481752 C1225,7.44411305 855.834606,3 623,3 C390.165394,3 21,7.44411305 21,17.2481752 C21,27.0522373 290.524581,35 623,35 Z" id="path-3"></path>
        <filter x="-2.6%" y="-89.1%" width="105.2%" height="296.9%" filterUnits="objectBoundingBox" id="filter-4">
            <feOffset dx="0" dy="3" in="SourceAlpha" result="shadowOffsetOuter1"></feOffset>
            <feGaussianBlur stdDeviation="10" in="shadowOffsetOuter1" result="shadowBlurOuter1"></feGaussianBlur>
            <feColorMatrix values="0 0 0 0 0   0 0 0 0 0   0 0 0 0 0  0 0 0 0.08 0" type="matrix" in="shadowBlurOuter1"></feColorMatrix>
        </filter>
        <path d="M623.5,25 C933.055602,25 1184,21.0261187 1184,16.1240876 C1184,11.2220565 840.283715,9 623.5,9 C406.716285,9 63,11.2220565 63,16.1240876 C63,21.0261187 313.944398,25 623.5,25 Z" id="path-5"></path>
        <filter x="-1.9%" y="-112.5%" width="103.7%" height="362.5%" filterUnits="objectBoundingBox" id="filter-6">
            <feOffset dx="0" dy="3" in="SourceAlpha" result="shadowOffsetOuter1"></feOffset>
            <feGaussianBlur stdDeviation="6.5" in="shadowOffsetOuter1" result="shadowBlurOuter1"></feGaussianBlur>
            <feColorMatrix values="0 0 0 0 0   0 0 0 0 0   0 0 0 0 0  0 0 0 0.24 0" type="matrix" in="shadowBlurOuter1"></feColorMatrix>
        </filter>
        <linearGradient x1="50%" y1="0%" x2="50%" y2="100%" id="linearGradient-7">
            <stop stop-color="#3E4146" offset="0%"></stop>
            <stop stop-color="#2E2F33" offset="100%"></stop>
        </linearGradient>
        <path d="M1439,851.245728 L1439,2700.67342 C1439,2782.96648 1415.50255,2948 1188.32599,2948 L257.013921,2948 C32.4831265,2948 8,2783.88289 8,2700.67342 L8,1120.24777 C9.86371352,1118.20452 11,1115.48672 11,1112.50353 L11,630.496466 C11,627.511104 9.86360456,624.79337 8,622.75071 L8,247.326577 C8,102.029345 82.7171458,0 257.013921,0 C431.855414,1.03035167e-14 1121.54285,1.79660747e-14 1193.30626,0 C1307.51546,-1.79660751e-14 1439,49.4471601 1439,247.326577 L1439,622.754197 C1437.13629,624.798518 1436,627.517745 1436,630.502497 L1436,843.497503 C1436,846.482542 1437.1364,849.201587 1439,851.245728 Z" id="path-8"></path>
        <filter x="-2.7%" y="-0.6%" width="105.4%" height="101.3%" filterUnits="objectBoundingBox" id="filter-9">
            <feMorphology radius="20" operator="erode" in="SourceAlpha" result="shadowSpreadInner1"></feMorphology>
            <feGaussianBlur stdDeviation="8.5" in="shadowSpreadInner1" result="shadowBlurInner1"></feGaussianBlur>
            <feOffset dx="0" dy="0" in="shadowBlurInner1" result="shadowOffsetInner1"></feOffset>
            <feComposite in="shadowOffsetInner1" in2="SourceAlpha" operator="arithmetic" k2="-1" k3="1" result="shadowInnerInner1"></feComposite>
            <feColorMatrix values="0 0 0 0 0.223529412   0 0 0 0 0.231372549   0 0 0 0 0.239215686  0 0 0 0.6 0" type="matrix" in="shadowInnerInner1"></feColorMatrix>
        </filter>
        <linearGradient x1="50%" y1="0%" x2="50%" y2="100%" id="linearGradient-10">
            <stop stop-color="#191B19" offset="0%"></stop>
            <stop stop-color="#141414" offset="100%"></stop>
        </linearGradient>
        <path d="M15.0626986,-0.000143822874 C21.6593767,0.0737560737 33.0426233,0.0142024855 33.0426233,0.0142024855 C34.9754816,0.00627923819 38.1188772,-0.000143822874 40.0392989,-0.000143822874 L155.960701,-0.000143822874 C157.892,-0.000143822874 161.027371,-0.000143823256 162.952322,-0.000143823658 C162.952322,-0.000143823658 174.116399,-0.000143826883 181.225627,-0.000143822874 C188.334856,-0.000143818865 196,6.99928112 196,6.99928112 L0,6.99928112 C0,6.99928112 8.46602058,-0.0740437194 15.0626986,-0.000143822874 Z" id="path-11"></path>
        <filter x="-1.5%" y="-42.9%" width="103.1%" height="185.7%" filterUnits="objectBoundingBox" id="filter-12">
            <feMorphology radius="1" operator="dilate" in="SourceAlpha" result="shadowSpreadOuter1"></feMorphology>
            <feOffset dx="0" dy="0" in="shadowSpreadOuter1" result="shadowOffsetOuter1"></feOffset>
            <feColorMatrix values="0 0 0 0 1   0 0 0 0 1   0 0 0 0 1  0 0 0 0.1 0" type="matrix" in="shadowOffsetOuter1"></feColorMatrix>
        </filter>
        <linearGradient x1="50%" y1="0%" x2="50%" y2="100%" id="linearGradient-13">
            <stop stop-color="#222328" offset="0%"></stop>
            <stop stop-color="#46474C" offset="4.23815813%"></stop>
            <stop stop-color="#E5E6EB" offset="8.18956163%"></stop>
            <stop stop-color="#525255" offset="15.9206814%"></stop>
            <stop stop-color="#3E4043" offset="74.3404208%"></stop>
            <stop stop-color="#9D9EA3" offset="87.6831055%"></stop>
            <stop stop-color="#C7C8CD" offset="90.7287881%"></stop>
            <stop stop-color="#4D4E53" offset="95.2799479%"></stop>
            <stop stop-color="#25262A" offset="100%"></stop>
        </linearGradient>
        <path d="M0,4.984375 C0,2.2315807 2.22898489,0 4.98482984,0 L12,0 L12,116 L4.98482984,116 C2.23178434,116 0,113.760668 0,111.015625 L0,4.984375 Z" id="path-14"></path>
        <filter x="-16.7%" y="-3.4%" width="166.7%" height="106.9%" filterUnits="objectBoundingBox" id="filter-15">
            <feOffset dx="2" dy="0" in="SourceAlpha" result="shadowOffsetOuter1"></feOffset>
            <feGaussianBlur stdDeviation="1" in="shadowOffsetOuter1" result="shadowBlurOuter1"></feGaussianBlur>
            <feColorMatrix values="0 0 0 0 0   0 0 0 0 0   0 0 0 0 0  0 0 0 0.1 0" type="matrix" in="shadowBlurOuter1"></feColorMatrix>
        </filter>
        <filter x="-8.3%" y="-2.6%" width="150.0%" height="105.2%" filterUnits="objectBoundingBox" id="filter-16">
            <feOffset dx="2" dy="0" in="SourceAlpha" result="shadowOffsetInner1"></feOffset>
            <feComposite in="shadowOffsetInner1" in2="SourceAlpha" operator="arithmetic" k2="-1" k3="1" result="shadowInnerInner1"></feComposite>
            <feColorMatrix values="0 0 0 0 0.317647059   0 0 0 0 0.321568627   0 0 0 0 0.333333333  0 0 0 1 0" type="matrix" in="shadowInnerInner1"></feColorMatrix>
        </filter>
        <linearGradient x1="50%" y1="0%" x2="50%" y2="98.2554408%" id="linearGradient-17">
            <stop stop-color="#898A8F" offset="0%"></stop>
            <stop stop-color="#16171C" offset="2.09784252%"></stop>
            <stop stop-color="#222328" offset="4.73708843%"></stop>
            <stop stop-color="#D2D3D8" offset="11.3476562%"></stop>
            <stop stop-color="#6E6E73" offset="14.244905%"></stop>
            <stop stop-color="#65666B" offset="84.8754374%"></stop>
            <stop stop-color="#5F6064" offset="89.3643234%"></stop>
            <stop stop-color="#212227" offset="97.993793%"></stop>
            <stop stop-color="#A3A4A9" offset="100%"></stop>
        </linearGradient>
        <linearGradient x1="50%" y1="0%" x2="50%" y2="100%" id="linearGradient-18">
            <stop stop-color="#222328" offset="0%"></stop>
            <stop stop-color="#26252A" offset="8.18956163%"></stop>
            <stop stop-color="#65666B" offset="15.9206814%"></stop>
            <stop stop-color="#65666B" offset="74.3404208%"></stop>
            <stop stop-color="#747579" offset="87.6831055%"></stop>
            <stop stop-color="#4D4E53" offset="95.2799479%"></stop>
            <stop stop-color="#25262A" offset="100%"></stop>
        </linearGradient>
        <path d="M0,4.97912646 C0,2.22923085 2.22898489,0 4.98482984,0 L12,0 L12,217 L4.98482984,217 C2.23178434,217 0,214.76375 0,212.020874 L0,4.97912646 Z" id="path-19"></path>
        <filter x="-16.7%" y="-1.8%" width="166.7%" height="103.7%" filterUnits="objectBoundingBox" id="filter-20">
            <feOffset dx="2" dy="0" in="SourceAlpha" result="shadowOffsetOuter1"></feOffset>
            <feGaussianBlur stdDeviation="1" in="shadowOffsetOuter1" result="shadowBlurOuter1"></feGaussianBlur>
            <feColorMatrix values="0 0 0 0 0   0 0 0 0 0   0 0 0 0 0  0 0 0 0.1 0" type="matrix" in="shadowBlurOuter1"></feColorMatrix>
        </filter>
        <filter x="-8.3%" y="-1.4%" width="150.0%" height="102.8%" filterUnits="objectBoundingBox" id="filter-21">
            <feOffset dx="2" dy="0" in="SourceAlpha" result="shadowOffsetInner1"></feOffset>
            <feComposite in="shadowOffsetInner1" in2="SourceAlpha" operator="arithmetic" k2="-1" k3="1" result="shadowInnerInner1"></feComposite>
            <feColorMatrix values="0 0 0 0 0.317647059   0 0 0 0 0.321568627   0 0 0 0 0.333333333  0 0 0 1 0" type="matrix" in="shadowInnerInner1"></feColorMatrix>
        </filter>
        <linearGradient x1="50%" y1="0%" x2="50%" y2="100%" id="linearGradient-22">
            <stop stop-color="#222328" offset="0%"></stop>
            <stop stop-color="#26252A" offset="8.18956163%"></stop>
            <stop stop-color="#C9C9C9" offset="15.9206814%"></stop>
            <stop stop-color="#8F8F8F" offset="74.3404208%"></stop>
            <stop stop-color="#747579" offset="87.6831055%"></stop>
            <stop stop-color="#4D4E53" offset="95.2799479%"></stop>
            <stop stop-color="#25262A" offset="100%"></stop>
        </linearGradient>
        <path d="M0,4.98559606 C0,2.23212739 2.22898489,-1.84196093e-16 4.98482984,-1.84196093e-16 L12,-1.84196093e-16 L12,217.33206 C12,218.253238 11.2493463,219 10.3314514,219 L4.98482984,219 C2.23178434,219 0,216.761145 0,214.014404 L0,4.98559606 Z" id="path-23"></path>
        <filter x="-16.7%" y="-1.8%" width="166.7%" height="103.7%" filterUnits="objectBoundingBox" id="filter-24">
            <feOffset dx="2" dy="0" in="SourceAlpha" result="shadowOffsetOuter1"></feOffset>
            <feGaussianBlur stdDeviation="1" in="shadowOffsetOuter1" result="shadowBlurOuter1"></feGaussianBlur>
            <feColorMatrix values="0 0 0 0 0   0 0 0 0 0   0 0 0 0 0  0 0 0 0.1 0" type="matrix" in="shadowBlurOuter1"></feColorMatrix>
        </filter>
        <filter x="-8.3%" y="-1.4%" width="150.0%" height="102.7%" filterUnits="objectBoundingBox" id="filter-25">
            <feOffset dx="2" dy="0" in="SourceAlpha" result="shadowOffsetInner1"></feOffset>
            <feComposite in="shadowOffsetInner1" in2="SourceAlpha" operator="arithmetic" k2="-1" k3="1" result="shadowInnerInner1"></feComposite>
            <feColorMatrix values="0 0 0 0 0.317647059   0 0 0 0 0.321568627   0 0 0 0 0.333333333  0 0 0 1 0" type="matrix" in="shadowInnerInner1"></feColorMatrix>
        </filter>
        <linearGradient x1="50%" y1="0%" x2="50%" y2="100%" id="linearGradient-26">
            <stop stop-color="#222328" offset="0%"></stop>
            <stop stop-color="#26252A" offset="8.18956163%"></stop>
            <stop stop-color="#C2C2C2" offset="15.9206814%"></stop>
            <stop stop-color="#AAAAAD" offset="74.3404208%"></stop>
            <stop stop-color="#747579" offset="87.6831055%"></stop>
            <stop stop-color="#4D4E53" offset="95.2799479%"></stop>
            <stop stop-color="#25262A" offset="100%"></stop>
        </linearGradient>
        <linearGradient x1="50%" y1="0%" x2="50%" y2="100%" id="linearGradient-27">
            <stop stop-color="#222328" offset="0%"></stop>
            <stop stop-color="#76777C" offset="8.18956163%"></stop>
            <stop stop-color="#414447" offset="15.9206814%"></stop>
            <stop stop-color="#393B3F" offset="74.3404208%"></stop>
            <stop stop-color="#9D9EA3" offset="87.6831055%"></stop>
            <stop stop-color="#4D4E53" offset="95.2799479%"></stop>
            <stop stop-color="#25262A" offset="100%"></stop>
        </linearGradient>
        <path d="M0,5.32481202 C0,2.57470386 2.20098495,0.650033362 4.9328078,1.02826205 L7.0671922,1.32377367 C9.79150672,1.70096281 12,4.2325407 12,6.9886037 L12,213.011328 C12,215.762738 9.79901505,218.297929 7.0671922,218.676158 L4.9328078,218.971669 C2.20849328,219.348858 0,217.430576 0,214.675119 L0,5.32481202 Z" id="path-28"></path>
        <filter x="-16.7%" y="-1.8%" width="166.7%" height="103.7%" filterUnits="objectBoundingBox" id="filter-29">
            <feOffset dx="2" dy="0" in="SourceAlpha" result="shadowOffsetOuter1"></feOffset>
            <feGaussianBlur stdDeviation="1" in="shadowOffsetOuter1" result="shadowBlurOuter1"></feGaussianBlur>
            <feColorMatrix values="0 0 0 0 0   0 0 0 0 0   0 0 0 0 0  0 0 0 0.1 0" type="matrix" in="shadowBlurOuter1"></feColorMatrix>
        </filter>
        <filter x="-8.3%" y="-1.4%" width="150.0%" height="102.8%" filterUnits="objectBoundingBox" id="filter-30">
            <feOffset dx="2" dy="0" in="SourceAlpha" result="shadowOffsetInner1"></feOffset>
            <feComposite in="shadowOffsetInner1" in2="SourceAlpha" operator="arithmetic" k2="-1" k3="1" result="shadowInnerInner1"></feComposite>
            <feColorMatrix values="0 0 0 0 0.317647059   0 0 0 0 0.321568627   0 0 0 0 0.333333333  0 0 0 1 0" type="matrix" in="shadowInnerInner1"></feColorMatrix>
        </filter>
        <linearGradient x1="50%" y1="0%" x2="50%" y2="98.2554408%" id="linearGradient-31">
            <stop stop-color="#898A8F" offset="0%"></stop>
            <stop stop-color="#16171C" offset="2.09784252%"></stop>
            <stop stop-color="#222328" offset="4.73708843%"></stop>
            <stop stop-color="#D2D3D8" offset="11.3476562%"></stop>
            <stop stop-color="#65666B" offset="14.244905%"></stop>
            <stop stop-color="#65666B" offset="84.8754374%"></stop>
            <stop stop-color="#B9BABF" offset="89.3643234%"></stop>
            <stop stop-color="#212227" offset="97.993793%"></stop>
            <stop stop-color="#A3A4A9" offset="100%"></stop>
        </linearGradient>
        <linearGradient x1="50%" y1="0%" x2="50%" y2="100%" id="linearGradient-32">
            <stop stop-color="#020202" offset="0%"></stop>
            <stop stop-color="#000000" offset="100%"></stop>
        </linearGradient>
        <path d="M0.00332767557,2686.1762 C0.00332767567,2605.74163 -0.00415959451,1034.72747 0.00332767557,214.163616 C0.00425604834,112.419037 45.8565635,-1.84317347e-16 215.890099,-3.68634693e-15 C385.923635,-7.18837651e-15 1100.6463,1.80631e-14 1172.43456,-1.84317347e-16 C1286.6833,-1.76944653e-14 1385.00002,59.2380555 1385,214.163616 C1384.99991,1033.21212 1385,2629.20468 1385,2687.83638 C1385,2746.46808 1367.66354,2902 1169.11323,2902 L217.550767,2902 C30.1564446,2902 0.00332767547,2766.61077 0.00332767557,2686.1762 Z" id="path-33"></path>
        <filter x="-1.9%" y="-0.8%" width="103.9%" height="101.9%" filterUnits="objectBoundingBox" id="filter-34">
            <feMorphology radius="5" operator="dilate" in="SourceAlpha" result="shadowSpreadOuter1"></feMorphology>
            <feOffset dx="0" dy="3" in="shadowSpreadOuter1" result="shadowOffsetOuter1"></feOffset>
            <feGaussianBlur stdDeviation="3.5" in="shadowOffsetOuter1" result="shadowBlurOuter1"></feGaussianBlur>
            <feColorMatrix values="0 0 0 0 1   0 0 0 0 1   0 0 0 0 1  0 0 0 0.25 0" type="matrix" in="shadowBlurOuter1"></feColorMatrix>
        </filter>
        <filter x="-1.4%" y="-0.6%" width="102.8%" height="101.3%" filterUnits="objectBoundingBox" id="filter-35">
            <feGaussianBlur stdDeviation="1.5" in="SourceAlpha" result="shadowBlurInner1"></feGaussianBlur>
            <feOffset dx="0" dy="2" in="shadowBlurInner1" result="shadowOffsetInner1"></feOffset>
            <feComposite in="shadowOffsetInner1" in2="SourceAlpha" operator="arithmetic" k2="-1" k3="1" result="shadowInnerInner1"></feComposite>
            <feColorMatrix values="0 0 0 0 0   0 0 0 0 0   0 0 0 0 0  0 0 0 0.14 0" type="matrix" in="shadowInnerInner1"></feColorMatrix>
        </filter>
        <linearGradient x1="100%" y1="33.82999%" x2="63.3372891%" y2="33.82999%" id="linearGradient-36">
            <stop stop-color="#F4F4F4" offset="0%"></stop>
            <stop stop-color="#77797E" offset="63.2738271%"></stop>
            <stop stop-color="#494B4F" offset="100%"></stop>
        </linearGradient>
        <path d="M2.65769079e-05,0.00455076782 C58.9425778,33.5422781 98.6932416,96.9227557 98.6932416,169.588827 L98.6932416,2670.50008 C98.6932416,2734.47854 67.882295,2791.25985 20.2854009,2826.81206 C38.8518057,2791.25985 61.7243928,2734.47854 61.7243928,2670.50008 L61.7243928,169.588827 C61.7243928,96.9227447 36.8636598,33.542259 1.42108547e-14,0.00453559259 Z" id="path-37"></path>
        <filter x="-1089.7%" y="-0.9%" width="1189.7%" height="102.3%" filterUnits="objectBoundingBox" id="filter-38">
            <feGaussianBlur stdDeviation="0" in="SourceGraphic"></feGaussianBlur>
        </filter>
        <filter x="-1094.7%" y="-1.1%" width="1199.8%" height="102.6%" filterUnits="objectBoundingBox" id="filter-39">
            <feGaussianBlur stdDeviation="3.5" in="SourceAlpha" result="shadowBlurInner1"></feGaussianBlur>
            <feOffset dx="-3" dy="0" in="shadowBlurInner1" result="shadowOffsetInner1"></feOffset>
            <feComposite in="shadowOffsetInner1" in2="SourceAlpha" operator="arithmetic" k2="-1" k3="1" result="shadowInnerInner1"></feComposite>
            <feColorMatrix values="0 0 0 0 1   0 0 0 0 1   0 0 0 0 1  0 0 0 1 0" type="matrix" in="shadowInnerInner1"></feColorMatrix>
        </filter>
        <path d="M2.65769079e-05,0.00455076782 C58.9425778,33.5422781 98.6932416,96.9227557 98.6932416,169.588827 L98.6932416,2670.50008 C98.6932416,2734.47854 67.882295,2791.25985 20.2854009,2826.81206 C38.8518057,2791.25985 61.7243928,2734.47854 61.7243928,2670.50008 L61.7243928,169.588827 C61.7243928,96.9227447 36.8636598,33.542259 1.42108547e-14,0.00453559259 Z" id="path-40"></path>
        <filter x="-1089.7%" y="-0.9%" width="1189.7%" height="102.3%" filterUnits="objectBoundingBox" id="filter-41">
            <feGaussianBlur stdDeviation="0" in="SourceGraphic"></feGaussianBlur>
        </filter>
        <filter x="-1094.7%" y="-1.1%" width="1199.8%" height="102.6%" filterUnits="objectBoundingBox" id="filter-42">
            <feGaussianBlur stdDeviation="3.5" in="SourceAlpha" result="shadowBlurInner1"></feGaussianBlur>
            <feOffset dx="-3" dy="0" in="shadowBlurInner1" result="shadowOffsetInner1"></feOffset>
            <feComposite in="shadowOffsetInner1" in2="SourceAlpha" operator="arithmetic" k2="-1" k3="1" result="shadowInnerInner1"></feComposite>
            <feColorMatrix values="0 0 0 0 1   0 0 0 0 1   0 0 0 0 1  0 0 0 1 0" type="matrix" in="shadowInnerInner1"></feColorMatrix>
        </filter>
        <path d="M693,2833 L693,2833 C740.272631,2833 779,2794.27263 779,2747 C779,2698.72737 740.272631,2660 693,2660 C644.727369,2660 606,2698.72737 606,2747 C606,2794.27263 644.727369,2833 693,2833 L693,2833 Z M692,2844 L692,2844 C637.876095,2844 594,2800.12391 594,2746 C594,2691.87609 637.876095,2648 692,2648 C746.123905,2648 790,2691.87609 790,2746 C790,2800.12391 746.123905,2844 692,2844 L692,2844 Z" id="path-43"></path>
        <filter x="-1.5%" y="-1.5%" width="103.1%" height="103.1%" filterUnits="objectBoundingBox" id="filter-44">
            <feMorphology radius="2" operator="erode" in="SourceAlpha" result="shadowSpreadInner1"></feMorphology>
            <feGaussianBlur stdDeviation="1" in="shadowSpreadInner1" result="shadowBlurInner1"></feGaussianBlur>
            <feOffset dx="2" dy="0" in="shadowBlurInner1" result="shadowOffsetInner1"></feOffset>
            <feComposite in="shadowOffsetInner1" in2="SourceAlpha" operator="arithmetic" k2="-1" k3="1" result="shadowInnerInner1"></feComposite>
            <feColorMatrix values="0 0 0 0 0   0 0 0 0 0   0 0 0 0 0  0 0 0 0.112686821 0" type="matrix" in="shadowInnerInner1"></feColorMatrix>
        </filter>
        <rect id="path-45" x="0" y="0" width="251" height="22" rx="11"></rect>
        <rect id="path-47" x="0" y="0" width="251" height="22" rx="11"></rect>
        <filter x="-1.2%" y="-13.6%" width="102.4%" height="127.3%" filterUnits="objectBoundingBox" id="filter-49">
            <feMorphology radius="3" operator="erode" in="SourceAlpha" result="shadowSpreadInner1"></feMorphology>
            <feGaussianBlur stdDeviation="1.5" in="shadowSpreadInner1" result="shadowBlurInner1"></feGaussianBlur>
            <feOffset dx="0" dy="0" in="shadowBlurInner1" result="shadowOffsetInner1"></feOffset>
            <feComposite in="shadowOffsetInner1" in2="SourceAlpha" operator="arithmetic" k2="-1" k3="1" result="shadowInnerInner1"></feComposite>
            <feColorMatrix values="0 0 0 0 0   0 0 0 0 0   0 0 0 0 0  0 0 0 0.5 0" type="matrix" in="shadowInnerInner1"></feColorMatrix>
        </filter>
        <radialGradient cx="121.058392%" cy="134.125808%" fx="121.058392%" fy="134.125808%" r="100.661381%" id="radialGradient-50">
            <stop stop-color="#434343" offset="0%"></stop>
            <stop stop-color="#161616" offset="100%"></stop>
        </radialGradient>
        <radialGradient cx="50%" cy="0%" fx="50%" fy="0%" r="100%" id="radialGradient-51">
            <stop stop-color="#2A4893" offset="0%"></stop>
            <stop stop-color="#213054" offset="100%"></stop>
        </radialGradient>
        <circle id="path-52" cx="24.5" cy="24.5" r="12.5"></circle>
        <filter x="-60.0%" y="-60.0%" width="220.0%" height="220.0%" filterUnits="objectBoundingBox" id="filter-54">
            <feMorphology radius="2.5" operator="dilate" in="SourceAlpha" result="shadowSpreadOuter1"></feMorphology>
            <feOffset dx="0" dy="0" in="shadowSpreadOuter1" result="shadowOffsetOuter1"></feOffset>
            <feGaussianBlur stdDeviation="2.5" in="shadowOffsetOuter1" result="shadowBlurOuter1"></feGaussianBlur>
            <feColorMatrix values="0 0 0 0 0   0 0 0 0 0   0 0 0 0 0  0 0 0 0.4 0" type="matrix" in="shadowBlurOuter1"></feColorMatrix>
        </filter>
        <filter x="-166.2%" y="-166.2%" width="432.4%" height="432.4%" filterUnits="objectBoundingBox" id="filter-55">
            <feGaussianBlur stdDeviation="1.66189153" in="SourceGraphic"></feGaussianBlur>
        </filter>
        <filter x="-166.2%" y="-166.2%" width="432.4%" height="432.4%" filterUnits="objectBoundingBox" id="filter-56">
            <feGaussianBlur stdDeviation="1.66189153" in="SourceGraphic"></feGaussianBlur>
        </filter>
        <filter x="-99.7%" y="-99.7%" width="299.4%" height="299.4%" filterUnits="objectBoundingBox" id="filter-57">
            <feGaussianBlur stdDeviation="1.66189153" in="SourceGraphic"></feGaussianBlur>
        </filter>
        <filter x="-99.7%" y="-99.7%" width="299.4%" height="299.4%" filterUnits="objectBoundingBox" id="filter-58">
            <feGaussianBlur stdDeviation="1.66189153" in="SourceGraphic"></feGaussianBlur>
        </filter>
        <filter x="-40.1%" y="-99.0%" width="180.2%" height="298.1%" filterUnits="objectBoundingBox" id="filter-59">
            <feGaussianBlur stdDeviation="1.66189153" in="SourceGraphic"></feGaussianBlur>
        </filter>
        <filter x="-40.1%" y="-40.1%" width="180.2%" height="180.2%" filterUnits="objectBoundingBox" id="filter-60">
            <feGaussianBlur stdDeviation="1.66189153" in="SourceGraphic"></feGaussianBlur>
        </filter>
    </defs>
    <g id="Page-1" stroke="none" stroke-width="1" fill="none" fill-rule="evenodd">
        <g id="Apple-iPhone-7-Plus-Matte-Black">
            <g id="Shadow" transform="translate(101.000000, 2928.000000)" fill="black" fill-opacity="1">
                <g id="Outer-Shadow">
                    <use filter="url(#filter-2)" xlink:href="#path-1"></use>
                </g>
                <g id="Middle-Shadow">
                    <use filter="url(#filter-4)" xlink:href="#path-3"></use>
                </g>
                <g id="Inner-Shadow">
                    <use filter="url(#filter-6)" xlink:href="#path-5"></use>
                </g>
            </g>
            <g id="Device">
                <g id="Body">
                    <g id="Phone-Shape">
                        <use fill="url(#linearGradient-7)" fill-rule="evenodd" xlink:href="#path-8"></use>
                        <use fill="black" fill-opacity="1" filter="url(#filter-9)" xlink:href="#path-8"></use>
                    </g>
                    <g id="Antenna" transform="translate(8.000000, 232.000000)" fill="#1A1D22">
                        <path d="M0,3.28571429 C0,3.28571429 8.79510498,2.34924389e-08 27,0 L27,41.0714286 C9.32904053,42.5317906 0,46 0,46 L0,3.28571429 Z" id="Top-Left"></path>
                        <path d="M1404,3.28571429 C1404,3.28571429 1412.7951,2.34924389e-08 1431,0 L1431,41.0714286 C1413.32904,42.5317906 1404,46 1404,46 L1404,3.28571429 Z" id="Top-Right" transform="translate(1417.500000, 23.000000) scale(-1, 1) translate(-1417.500000, -23.000000) "></path>
                        <path d="M0,2443.33333 C0,2443.33333 8.79510498,2440 27,2440 L27,2483.33333 C7.80715942,2482.66683 0,2485 0,2485 L0,2443.33333 Z" id="Bottom-Left" transform="translate(13.500000, 2462.500000) scale(1, -1) translate(-13.500000, -2462.500000) "></path>
                        <path d="M1404,2443.33333 C1404,2443.33333 1412.7951,2440 1431,2440 L1431,2483.33333 C1411.80716,2482.66683 1404,2485 1404,2485 L1404,2443.33333 Z" id="Bottom-Right" transform="translate(1417.500000, 2462.500000) scale(-1, -1) translate(-1417.500000, -2462.500000) "></path>
                    </g>
                    <g id="Plug" transform="translate(626.000000, 2941.000000)" opacity="0.902810168">
                        <g id="Lightning-Connector">
                            <use fill="black" fill-opacity="1" filter="url(#filter-12)" xlink:href="#path-11"></use>
                            <use fill="url(#linearGradient-10)" fill-rule="evenodd" xlink:href="#path-11"></use>
                        </g>
                    </g>
                    <g id="Silent-Button" transform="translate(0.000000, 377.000000)">
                        <g id="Rectangle-165">
                            <use fill="black" fill-opacity="1" filter="url(#filter-15)" xlink:href="#path-14"></use>
                            <use fill="url(#linearGradient-13)" fill-rule="evenodd" xlink:href="#path-14"></use>
                            <use fill="black" fill-opacity="1" filter="url(#filter-16)" xlink:href="#path-14"></use>
                        </g>
                        <rect id="Rectangle-166" fill="url(#linearGradient-17)" x="2" y="0" width="3" height="116" rx="1.5"></rect>
                    </g>
                    <g id="Volume-Up-Button" transform="translate(2.000000, 629.000000)">
                        <g id="Rectangle-165">
                            <use fill="black" fill-opacity="1" filter="url(#filter-20)" xlink:href="#path-19"></use>
                            <use fill="url(#linearGradient-18)" fill-rule="evenodd" xlink:href="#path-19"></use>
                            <use fill="black" fill-opacity="1" filter="url(#filter-21)" xlink:href="#path-19"></use>
                        </g>
                        <rect id="Rectangle-166" fill="url(#linearGradient-22)" x="2" y="0" width="3" height="215" rx="1.5"></rect>
                    </g>
                    <g id="Volume-Down-Button" transform="translate(2.000000, 896.000000)">
                        <g id="Rectangle-165">
                            <use fill="black" fill-opacity="1" filter="url(#filter-24)" xlink:href="#path-23"></use>
                            <use fill="url(#linearGradient-18)" fill-rule="evenodd" xlink:href="#path-23"></use>
                            <use fill="black" fill-opacity="1" filter="url(#filter-25)" xlink:href="#path-23"></use>
                        </g>
                        <rect id="Rectangle-166" fill="url(#linearGradient-26)" x="2" y="2" width="3" height="216" rx="1.5"></rect>
                    </g>
                    <g id="Sleep-Button" transform="translate(1440.000000, 736.500000) scale(-1, 1) translate(-1440.000000, -736.500000) translate(1434.000000, 627.000000)">
                        <g id="Rectangle-165">
                            <use fill="black" fill-opacity="1" filter="url(#filter-29)" xlink:href="#path-28"></use>
                            <use fill="url(#linearGradient-27)" fill-rule="evenodd" xlink:href="#path-28"></use>
                            <use fill="black" fill-opacity="1" filter="url(#filter-30)" xlink:href="#path-28"></use>
                        </g>
                        <rect id="Rectangle-166" fill="url(#linearGradient-31)" x="2" y="2" width="3" height="216" rx="1.5"></rect>
                    </g>
                </g>
                <g id="Front" transform="translate(32.000000, 23.000000)">
                    <g id="Black-Surface">
                        <use fill="black" fill-opacity="1" filter="url(#filter-34)" xlink:href="#path-33"></use>
                        <use fill="url(#linearGradient-32)" fill-rule="evenodd" xlink:href="#path-33"></use>
                        <use fill="black" fill-opacity="1" filter="url(#filter-35)" xlink:href="#path-33"></use>
                    </g>
                    <path d="M12.0033283,2686.78028 L12.0033283,2686.78028 C12.0033283,2736.06702 23.0898595,2782.30476 48.3868026,2818.16959 C81.2667448,2864.78524 136.107359,2891 217.963801,2891 L1169.7005,2891 C1255.00748,2891 1310.33541,2861.98311 1342.29928,2811.32037 C1365.05596,2775.25101 1374,2732.07127 1374,2688.4406 C1374,2686.33765 1373.99999,2382.84298 1373.99998,2203.02938 C1373.99997,1859.08997 1373.99996,1526.75591 1373.99996,1214.67028 C1373.99996,806.798368 1373.99997,466.63576 1374,214.559399 C1374.00001,144.039242 1353.05625,92.0006755 1314.49626,58.0928981 C1279.67443,27.4722733 1230.61286,12 1173.02244,12 L996.928357,12 C849.987193,12 849.987193,12 679.488381,12 L603.312179,12 L216.302829,12 C140.337145,12 87.0321805,34.9167929 53.6394037,76.578221 C25.4700253,111.722844 12.0038278,159.822951 12.0033283,214.559506 C12.0010284,466.588274 11.9999914,803.823862 12.0000001,1207.29234 C12.0000067,1517.48995 12.0006192,1846.98396 12.0016641,2192.44525 C12.0021673,2358.79146 12.0033283,2678.2064 12.0033283,2686.78028 L12.0033283,2686.78028 Z M0.00332767557,2686.1762 C0.00332767567,2605.74163 -0.00415959451,1034.72747 0.00332767557,214.163616 C0.00425604834,112.419037 45.8565635,3.84046709e-15 215.890099,3.38437507e-16 C385.923635,-3.16359208e-15 1100.6463,2.20878844e-14 1172.43456,3.84046709e-15 C1286.6833,-1.36696808e-14 1385.00002,59.2380555 1385,214.163616 C1384.99991,1033.21212 1385,2629.20468 1385,2687.83638 C1385,2746.46808 1367.66354,2902 1169.11323,2902 L217.550767,2902 C30.1564446,2902 0.00332767547,2766.61077 0.00332767557,2686.1762 L0.00332767557,2686.1762 Z" id="Stroke" fill="#18191A" fill-rule="nonzero"></path>
                    <g id="Gloss" opacity="0.698577425" transform="translate(9.000000, 25.000000)">
                        <g id="lights-left">
                            <g id="Light-left" filter="url(#filter-38)" transform="translate(49.346621, 1413.408299) scale(-1, 1) translate(-49.346621, -1413.408299) ">
                                <use fill="url(#linearGradient-36)" fill-rule="evenodd" xlink:href="#path-37"></use>
                                <use fill="black" fill-opacity="1" filter="url(#filter-39)" xlink:href="#path-37"></use>
                            </g>
                        </g>
                        <g id="lights-left-copy" transform="translate(1317.500000, 1413.500000) scale(-1, 1) translate(-1317.500000, -1413.500000) translate(1268.000000, 0.000000)">
                            <g id="Light-left" filter="url(#filter-41)" transform="translate(49.346621, 1413.408299) scale(-1, 1) translate(-49.346621, -1413.408299) ">
                                <use fill="url(#linearGradient-36)" fill-rule="evenodd" xlink:href="#path-40"></use>
                                <use fill="black" fill-opacity="1" filter="url(#filter-42)" xlink:href="#path-40"></use>
                            </g>
                        </g>
                    </g>
                    <g id="Home-Button" fill-rule="nonzero">
                        <use fill="" fill-rule="evenodd" xlink:href="#path-43"></use>
                        <use fill="black" fill-opacity="1" filter="url(#filter-44)" xlink:href="#path-43"></use>
                    </g>
                    <g id="Speaker" opacity="0.801364272" transform="translate(567.000000, 158.000000)">
                        <mask id="mask-46" fill="white">
                            <use xlink:href="#path-45"></use>
                        </mask>
                        <use id="Mask" fill="#333333" xlink:href="#path-45"></use>
                        <path d="M-4,0 L253,0 L253,2 L-4,2 L-4,0 Z M-4,5 L253,5 L253,7 L-4,7 L-4,5 Z M-4,9 L253,9 L253,11 L-4,11 L-4,9 Z M-4,14 L253,14 L253,16 L-4,16 L-4,14 Z M-4,18 L253,18 L253,20 L-4,20 L-4,18 Z" id="Grid" fill-opacity="0.149999991" fill="#000000" mask="url(#mask-46)"></path>
                        <path d="M2,-2 L4,-2 L4,25 L2,25 L2,-2 Z M8,-2 L10,-2 L10,25 L8,25 L8,-2 Z M13,-2 L15,-2 L15,25 L13,25 L13,-2 Z M19,-2 L21,-2 L21,25 L19,25 L19,-2 Z M24,-2 L26,-2 L26,25 L24,25 L24,-2 Z M30,-2 L32,-2 L32,25 L30,25 L30,-2 Z M35,-2 L37,-2 L37,25 L35,25 L35,-2 Z M41,-2 L43,-2 L43,25 L41,25 L41,-2 Z M46,-2 L48,-2 L48,25 L46,25 L46,-2 Z M52,-2 L54,-2 L54,25 L52,25 L52,-2 Z M57,-2 L59,-2 L59,25 L57,25 L57,-2 Z M63,-2 L65,-2 L65,25 L63,25 L63,-2 Z M68,-2 L70,-2 L70,25 L68,25 L68,-2 Z M74,-2 L76,-2 L76,25 L74,25 L74,-2 Z M79,-2 L81,-2 L81,25 L79,25 L79,-2 Z M85,-2 L87,-2 L87,25 L85,25 L85,-2 Z M90,-2 L92,-2 L92,25 L90,25 L90,-2 Z M96,-2 L98,-2 L98,25 L96,25 L96,-2 Z M101,-2 L103,-2 L103,25 L101,25 L101,-2 Z M107,-2 L109,-2 L109,25 L107,25 L107,-2 Z M113,-2 L115,-2 L115,25 L113,25 L113,-2 Z M118,-2 L120,-2 L120,25 L118,25 L118,-2 Z M124,-2 L126,-2 L126,25 L124,25 L124,-2 Z M129,-2 L131,-2 L131,25 L129,25 L129,-2 Z M135,-2 L137,-2 L137,25 L135,25 L135,-2 Z M140,-2 L142,-2 L142,25 L140,25 L140,-2 Z M146,-2 L148,-2 L148,25 L146,25 L146,-2 Z M151,-2 L153,-2 L153,25 L151,25 L151,-2 Z M157,-2 L159,-2 L159,25 L157,25 L157,-2 Z M162,-2 L164,-2 L164,25 L162,25 L162,-2 Z M168,-2 L170,-2 L170,25 L168,25 L168,-2 Z M173,-2 L175,-2 L175,25 L173,25 L173,-2 Z M179,-2 L181,-2 L181,25 L179,25 L179,-2 Z M184,-2 L186,-2 L186,25 L184,25 L184,-2 Z M190,-2 L192,-2 L192,25 L190,25 L190,-2 Z M195,-2 L197,-2 L197,25 L195,25 L195,-2 Z M201,-2 L203,-2 L203,25 L201,25 L201,-2 Z M206,-2 L208,-2 L208,25 L206,25 L206,-2 Z M212,-2 L214,-2 L214,25 L212,25 L212,-2 Z M218,-2 L220,-2 L220,25 L218,25 L218,-2 Z M223,-2 L225,-2 L225,25 L223,25 L223,-2 Z M229,-2 L231,-2 L231,25 L229,25 L229,-2 Z M234,-2 L236,-2 L236,25 L234,25 L234,-2 Z M240,-2 L242,-2 L242,25 L240,25 L240,-2 Z M245,-2 L247,-2 L247,25 L245,25 L245,-2 Z" id="Grid" fill-opacity="0.149999991" fill="#000000" mask="url(#mask-46)"></path>
                        <mask id="mask-48" fill="white">
                            <use xlink:href="#path-47"></use>
                        </mask>
                        <g id="Shadow" opacity="0.200000018" fill-opacity="1" fill="black">
                            <use filter="url(#filter-49)" xlink:href="#path-47"></use>
                        </g>
                    </g>
                    <g id="Camera" transform="translate(441.000000, 144.000000)">
                        <circle id="Oval-57" fill="url(#radialGradient-50)" cx="24" cy="24" r="24"></circle>
                        <mask id="mask-53" fill="white">
                            <use xlink:href="#path-52"></use>
                        </mask>
                        <g id="Mask" opacity="0.387534981">
                            <use fill="black" fill-opacity="1" filter="url(#filter-54)" xlink:href="#path-52"></use>
                            <use fill="url(#radialGradient-51)" fill-rule="evenodd" xlink:href="#path-52"></use>
                        </g>
                        <circle id="Oval-59" fill="#BEE5FF" filter="url(#filter-55)" mask="url(#mask-53)" cx="16.5" cy="27.5" r="1.5"></circle>
                        <circle id="Oval-59" fill="#BEE5FF" filter="url(#filter-56)" mask="url(#mask-53)" cx="16.5" cy="27.5" r="1.5"></circle>
                        <circle id="Oval-59" fill="#75C9FF" filter="url(#filter-57)" mask="url(#mask-53)" cx="35.5" cy="17.5" r="2.5"></circle>
                        <circle id="Oval-59" fill="#75C9FF" filter="url(#filter-58)" mask="url(#mask-53)" cx="35.5" cy="17.5" r="2.5"></circle>
                        <ellipse id="Oval-61" fill="#3358B6" filter="url(#filter-59)" mask="url(#mask-53)" transform="translate(20.195835, 16.411297) rotate(-29.000000) translate(-20.195835, -16.411297) " cx="20.1958353" cy="16.4112966" rx="6.21428571" ry="2.51736111"></ellipse>
                        <circle id="Oval-61" fill="#00154F" filter="url(#filter-60)" mask="url(#mask-53)" transform="translate(25.265050, 24.146920) rotate(-16.000000) translate(-25.265050, -24.146920) " cx="25.2650498" cy="24.1469195" r="6.21428571"></circle>
                    </g>
                </g>
            </g>
            <rect id="Screen" fill="#1D2129" x="104" y="380" width="1242" height="2208"></rect>
        </g>
    </g>
</svg>