
<svg width="1446px" height="3001px" viewBox="0 0 1446 3001" version="1.1" xmlns="http://www.w3.org/2000/svg" xmlns:xlink="http://www.w3.org/1999/xlink">
    <!-- Generator: Sketch 43.2 (39069) - http://www.bohemiancoding.com/sketch -->
    <desc>Created with Sketch.</desc>
    <defs>
        <path d="M675,43.4004914 C1047.79221,43.4004914 1350,32.6212162 1350,19.3243064 C1350,6.02739658 936.068702,1.04136667e-15 675,0 C413.931298,-1.02784243e-15 0,6.02739658 0,19.3243064 C0,32.6212162 302.207794,43.4004914 675,43.4004914 Z" id="path-1"></path>
        <filter x="-3.4%" y="-101.4%" width="106.8%" height="312.0%" filterUnits="objectBoundingBox" id="filter-2">
            <feOffset dx="0" dy="2" in="SourceAlpha" result="shadowOffsetOuter1"></feOffset>
            <feGaussianBlur stdDeviation="15" in="shadowOffsetOuter1" result="shadowBlurOuter1"></feGaussianBlur>
            <feColorMatrix values="0 0 0 0 0   0 0 0 0 0   0 0 0 0 0  0 0 0 0.12 0" type="matrix" in="shadowBlurOuter1"></feColorMatrix>
        </filter>
        <path d="M674.818182,37.4083538 C1035.18398,37.4083538 1327.31818,28.7849337 1327.31818,18.1474058 C1327.31818,7.50987795 927.184594,2.68796069 674.818182,2.68796069 C422.45177,2.68796069 22.3181818,7.50987795 22.3181818,18.1474058 C22.3181818,28.7849337 314.452383,37.4083538 674.818182,37.4083538 Z" id="path-3"></path>
        <filter x="-1.5%" y="-49.0%" width="102.9%" height="209.4%" filterUnits="objectBoundingBox" id="filter-4">
            <feOffset dx="0" dy="2" in="SourceAlpha" result="shadowOffsetOuter1"></feOffset>
            <feGaussianBlur stdDeviation="6" in="shadowOffsetOuter1" result="shadowBlurOuter1"></feGaussianBlur>
            <feColorMatrix values="0 0 0 0 0   0 0 0 0 0   0 0 0 0 0  0 0 0 0.08 0" type="matrix" in="shadowBlurOuter1"></feColorMatrix>
        </filter>
        <path d="M675.9,26.6609337 C1011.41299,26.6609337 1283.4,22.3492236 1283.4,17.0304597 C1283.4,11.7116957 910.861832,9.3007371 675.9,9.3007371 C440.938168,9.3007371 68.4,11.7116957 68.4,17.0304597 C68.4,22.3492236 340.387014,26.6609337 675.9,26.6609337 Z" id="path-5"></path>
        <filter x="-1.1%" y="-63.4%" width="102.1%" height="249.8%" filterUnits="objectBoundingBox" id="filter-6">
            <feOffset dx="0" dy="2" in="SourceAlpha" result="shadowOffsetOuter1"></feOffset>
            <feGaussianBlur stdDeviation="4" in="shadowOffsetOuter1" result="shadowBlurOuter1"></feGaussianBlur>
            <feColorMatrix values="0 0 0 0 0   0 0 0 0 0   0 0 0 0 0  0 0 0 0.24 0" type="matrix" in="shadowBlurOuter1"></feColorMatrix>
        </filter>
        <linearGradient x1="50%" y1="0%" x2="50%" y2="100%" id="linearGradient-7">
            <stop stop-color="#BDBEC6" offset="0%"></stop>
            <stop stop-color="#6F7076" offset="100%"></stop>
        </linearGradient>
        <path d="M308.47765,2948 L1187.50116,2948 C1414.51897,2948 1438,2782.96648 1438,2700.67342 L1438,851.245728 C1436.1364,849.201587 1435,846.482542 1435,843.497503 L1435,630.502497 C1435,627.517745 1436.13629,624.798518 1438,622.754197 L1438,247.326577 C1438,49.4471601 1306.60734,-1.79660751e-14 1192.47796,0 C1120.76469,1.79660747e-14 431.559219,1.03035167e-14 256.839907,0 C82.6649326,0 8,102.029345 8,247.326577 L8,622.75071 C9.86360456,624.79337 11,627.511104 11,630.496466 L11,1112.50353 C11,1115.48672 9.86371352,1118.20452 8,1120.24777 L8,2700.67342 C8,2782.38536 31.5933082,2942.11895 244.918908,2947.84196 C251.238677,2944.42296 263.015387,2941 276.5,2941 C290.271968,2941 302.262468,2944.50675 308.47765,2948 Z" id="path-8"></path>
        <filter x="-2.5%" y="-0.5%" width="105.0%" height="101.6%" filterUnits="objectBoundingBox" id="filter-9">
            <feMorphology radius="18" operator="erode" in="SourceAlpha" result="shadowSpreadInner1"></feMorphology>
            <feGaussianBlur stdDeviation="7" in="shadowSpreadInner1" result="shadowBlurInner1"></feGaussianBlur>
            <feOffset dx="0" dy="0" in="shadowBlurInner1" result="shadowOffsetInner1"></feOffset>
            <feComposite in="shadowOffsetInner1" in2="SourceAlpha" operator="arithmetic" k2="-1" k3="1" result="shadowInnerInner1"></feComposite>
            <feColorMatrix values="0 0 0 0 0.223529412   0 0 0 0 0.231372549   0 0 0 0 0.239215686  0 0 0 0.6 0" type="matrix" in="shadowInnerInner1"></feColorMatrix>
        </filter>
        <linearGradient x1="-1.11022302e-14%" y1="50%" x2="100%" y2="50%" id="linearGradient-10">
            <stop stop-color="#242628" offset="0%"></stop>
            <stop stop-color="#404246" offset="32.9833984%"></stop>
            <stop stop-color="#5D5F61" offset="100%"></stop>
        </linearGradient>
        <linearGradient x1="50%" y1="0%" x2="50%" y2="100%" id="linearGradient-11">
            <stop stop-color="#2B2B2B" offset="0%"></stop>
            <stop stop-color="#1D1D1D" offset="100%"></stop>
        </linearGradient>
        <path d="M399,3 C405.659377,3.07447495 417.50043,3.01409737 417.50043,3.01409737 C419.433189,3.00631161 422.564765,3 424.503362,3 L539.496638,3 C541.431491,3 544.57069,3.00005342 546.508344,3.00011024 C546.508344,3.00011024 558.116399,3.00057505 565,3 C572.334856,3.00057506 580,10 580,10 L384,10 C384,10 392.466021,2.92667516 399,3 Z" id="path-12"></path>
        <filter x="-1.3%" y="-64.3%" width="102.6%" height="185.7%" filterUnits="objectBoundingBox" id="filter-13">
            <feMorphology radius="0.5" operator="dilate" in="SourceAlpha" result="shadowSpreadOuter1"></feMorphology>
            <feOffset dx="0" dy="-2" in="shadowSpreadOuter1" result="shadowOffsetOuter1"></feOffset>
            <feColorMatrix values="0 0 0 0 1   0 0 0 0 1   0 0 0 0 1  0 0 0 0.1 0" type="matrix" in="shadowOffsetOuter1"></feColorMatrix>
        </filter>
        <linearGradient x1="50%" y1="0%" x2="50%" y2="100%" id="linearGradient-14">
            <stop stop-color="#222328" offset="0%"></stop>
            <stop stop-color="#46474C" offset="4.23815813%"></stop>
            <stop stop-color="#E5E6EB" offset="8.18956163%"></stop>
            <stop stop-color="#A9AAAF" offset="15.9206814%"></stop>
            <stop stop-color="#8A8B90" offset="74.3404208%"></stop>
            <stop stop-color="#9D9EA3" offset="87.6831055%"></stop>
            <stop stop-color="#C7C8CD" offset="90.7287881%"></stop>
            <stop stop-color="#4D4E53" offset="95.2799479%"></stop>
            <stop stop-color="#25262A" offset="100%"></stop>
        </linearGradient>
        <path d="M0,3.98452143 C0,1.23164626 2.20098495,-0.633169174 4.9154833,-0.180752784 L7.0845167,0.180752784 C9.79926317,0.633210528 12,3.23933245 12,5.984375 L12,112.015625 C12,114.768419 9.79901505,117.366831 7.0845167,117.819247 L4.9154833,118.180753 C2.20073683,118.633211 0,116.762654 0,114.015479 L0,3.98452143 Z" id="path-15"></path>
        <filter x="-16.7%" y="-3.4%" width="166.7%" height="106.8%" filterUnits="objectBoundingBox" id="filter-16">
            <feOffset dx="2" dy="0" in="SourceAlpha" result="shadowOffsetOuter1"></feOffset>
            <feGaussianBlur stdDeviation="1" in="shadowOffsetOuter1" result="shadowBlurOuter1"></feGaussianBlur>
            <feColorMatrix values="0 0 0 0 0   0 0 0 0 0   0 0 0 0 0  0 0 0 0.1 0" type="matrix" in="shadowBlurOuter1"></feColorMatrix>
        </filter>
        <filter x="-8.3%" y="-2.5%" width="150.0%" height="105.1%" filterUnits="objectBoundingBox" id="filter-17">
            <feOffset dx="2" dy="0" in="SourceAlpha" result="shadowOffsetInner1"></feOffset>
            <feComposite in="shadowOffsetInner1" in2="SourceAlpha" operator="arithmetic" k2="-1" k3="1" result="shadowInnerInner1"></feComposite>
            <feColorMatrix values="0 0 0 0 0.317647059   0 0 0 0 0.321568627   0 0 0 0 0.333333333  0 0 0 1 0" type="matrix" in="shadowInnerInner1"></feColorMatrix>
        </filter>
        <linearGradient x1="50%" y1="0%" x2="50%" y2="98.2554408%" id="linearGradient-18">
            <stop stop-color="#898A8F" offset="0%"></stop>
            <stop stop-color="#16171C" offset="2.09784252%"></stop>
            <stop stop-color="#222328" offset="4.73708843%"></stop>
            <stop stop-color="#D2D3D8" offset="11.3476562%"></stop>
            <stop stop-color="#DDDEE3" offset="14.244905%"></stop>
            <stop stop-color="#D2D3D8" offset="84.8754374%"></stop>
            <stop stop-color="#B9BABF" offset="89.3643234%"></stop>
            <stop stop-color="#212227" offset="97.993793%"></stop>
            <stop stop-color="#A3A4A9" offset="100%"></stop>
        </linearGradient>
        <linearGradient x1="50%" y1="0%" x2="50%" y2="100%" id="linearGradient-19">
            <stop stop-color="#222328" offset="0%"></stop>
            <stop stop-color="#76777C" offset="8.18956163%"></stop>
            <stop stop-color="#A9AAAF" offset="15.9206814%"></stop>
            <stop stop-color="#8A8B90" offset="74.3404208%"></stop>
            <stop stop-color="#9D9EA3" offset="87.6831055%"></stop>
            <stop stop-color="#4D4E53" offset="95.2799479%"></stop>
            <stop stop-color="#25262A" offset="100%"></stop>
        </linearGradient>
        <path d="M0,3.98559606 C0,1.23212739 2.20098495,-0.633169174 4.9154833,-0.180752784 L7.0845167,0.180752784 C9.79926317,0.633210528 12,3.2362505 12,5.97912646 L12,218 L4.98482984,218 C2.23178434,218 0,215.761145 0,213.014404 L0,3.98559606 Z" id="path-20"></path>
        <filter x="-16.7%" y="-1.8%" width="166.7%" height="103.7%" filterUnits="objectBoundingBox" id="filter-21">
            <feOffset dx="2" dy="0" in="SourceAlpha" result="shadowOffsetOuter1"></feOffset>
            <feGaussianBlur stdDeviation="1" in="shadowOffsetOuter1" result="shadowBlurOuter1"></feGaussianBlur>
            <feColorMatrix values="0 0 0 0 0   0 0 0 0 0   0 0 0 0 0  0 0 0 0.1 0" type="matrix" in="shadowBlurOuter1"></feColorMatrix>
        </filter>
        <filter x="-8.3%" y="-1.4%" width="150.0%" height="102.8%" filterUnits="objectBoundingBox" id="filter-22">
            <feOffset dx="2" dy="0" in="SourceAlpha" result="shadowOffsetInner1"></feOffset>
            <feComposite in="shadowOffsetInner1" in2="SourceAlpha" operator="arithmetic" k2="-1" k3="1" result="shadowInnerInner1"></feComposite>
            <feColorMatrix values="0 0 0 0 0.317647059   0 0 0 0 0.321568627   0 0 0 0 0.333333333  0 0 0 1 0" type="matrix" in="shadowInnerInner1"></feColorMatrix>
        </filter>
        <path d="M0,4.98897544 C0,2.23364039 2.22898489,-4.26325641e-14 4.98482984,-4.26325641e-14 L12,-4.26325641e-14 L12,216.339676 C12,217.256648 11.2493463,218 10.3314514,218 L4.98482984,218 C2.23178434,218 0,215.771368 0,213.011025 L0,4.98897544 Z" id="path-23"></path>
        <filter x="-16.7%" y="-1.8%" width="166.7%" height="103.7%" filterUnits="objectBoundingBox" id="filter-24">
            <feOffset dx="2" dy="0" in="SourceAlpha" result="shadowOffsetOuter1"></feOffset>
            <feGaussianBlur stdDeviation="1" in="shadowOffsetOuter1" result="shadowBlurOuter1"></feGaussianBlur>
            <feColorMatrix values="0 0 0 0 0   0 0 0 0 0   0 0 0 0 0  0 0 0 0.1 0" type="matrix" in="shadowBlurOuter1"></feColorMatrix>
        </filter>
        <filter x="-8.3%" y="-1.4%" width="150.0%" height="102.8%" filterUnits="objectBoundingBox" id="filter-25">
            <feOffset dx="2" dy="0" in="SourceAlpha" result="shadowOffsetInner1"></feOffset>
            <feComposite in="shadowOffsetInner1" in2="SourceAlpha" operator="arithmetic" k2="-1" k3="1" result="shadowInnerInner1"></feComposite>
            <feColorMatrix values="0 0 0 0 0.317647059   0 0 0 0 0.321568627   0 0 0 0 0.333333333  0 0 0 1 0" type="matrix" in="shadowInnerInner1"></feColorMatrix>
        </filter>
        <path d="M0,3.98204136 C0,1.23053589 2.20098495,-0.633169174 4.9154833,-0.180752784 L7.0845167,0.180752784 C9.79926317,0.633210528 12,3.2259452 12,5.98218096 L12,212.017819 C12,214.769402 9.79901505,217.366831 7.0845167,217.819247 L4.9154833,218.180753 C2.20073683,218.633211 0,216.768941 0,214.017959 L0,3.98204136 Z" id="path-26"></path>
        <filter x="-16.7%" y="-1.8%" width="166.7%" height="103.7%" filterUnits="objectBoundingBox" id="filter-27">
            <feOffset dx="2" dy="0" in="SourceAlpha" result="shadowOffsetOuter1"></feOffset>
            <feGaussianBlur stdDeviation="1" in="shadowOffsetOuter1" result="shadowBlurOuter1"></feGaussianBlur>
            <feColorMatrix values="0 0 0 0 0   0 0 0 0 0   0 0 0 0 0  0 0 0 0.1 0" type="matrix" in="shadowBlurOuter1"></feColorMatrix>
        </filter>
        <filter x="-8.3%" y="-1.4%" width="150.0%" height="102.8%" filterUnits="objectBoundingBox" id="filter-28">
            <feOffset dx="2" dy="0" in="SourceAlpha" result="shadowOffsetInner1"></feOffset>
            <feComposite in="shadowOffsetInner1" in2="SourceAlpha" operator="arithmetic" k2="-1" k3="1" result="shadowInnerInner1"></feComposite>
            <feColorMatrix values="0 0 0 0 0.317647059   0 0 0 0 0.321568627   0 0 0 0 0.333333333  0 0 0 1 0" type="matrix" in="shadowInnerInner1"></feColorMatrix>
        </filter>
        <linearGradient x1="50%" y1="0%" x2="50%" y2="100%" id="linearGradient-29">
            <stop stop-color="#020202" offset="0%"></stop>
            <stop stop-color="#000000" offset="100%"></stop>
        </linearGradient>
        <path d="M0.00332527292,2684.32494 C0.00332527302,2603.9458 -0.0041565912,1034.01436 0.00332527292,214.016018 C0.00425297538,112.34156 45.8234541,-1.84190319e-16 215.734222,-3.68380637e-15 C385.64499,-7.18342243e-15 1099.85161,1.80506512e-14 1171.58804,-1.84190319e-16 C1285.75428,-1.76822706e-14 1384.00002,59.1972299 1384,214.016018 C1383.99991,1032.50005 1384,2627.39269 1384,2685.98398 C1384,2744.57527 1366.67606,2900 1168.2691,2900 L217.39369,2900 C30.134671,2900 0.00332527281,2764.70408 0.00332527292,2684.32494 Z" id="path-30"></path>
        <filter x="-2.0%" y="-0.8%" width="103.9%" height="101.9%" filterUnits="objectBoundingBox" id="filter-31">
            <feMorphology radius="5" operator="dilate" in="SourceAlpha" result="shadowSpreadOuter1"></feMorphology>
            <feOffset dx="0" dy="3" in="shadowSpreadOuter1" result="shadowOffsetOuter1"></feOffset>
            <feGaussianBlur stdDeviation="3.5" in="shadowOffsetOuter1" result="shadowBlurOuter1"></feGaussianBlur>
            <feColorMatrix values="0 0 0 0 1   0 0 0 0 1   0 0 0 0 1  0 0 0 0.25 0" type="matrix" in="shadowBlurOuter1"></feColorMatrix>
        </filter>
        <filter x="-1.4%" y="-0.6%" width="102.8%" height="101.3%" filterUnits="objectBoundingBox" id="filter-32">
            <feGaussianBlur stdDeviation="1.5" in="SourceAlpha" result="shadowBlurInner1"></feGaussianBlur>
            <feOffset dx="0" dy="2" in="shadowBlurInner1" result="shadowOffsetInner1"></feOffset>
            <feComposite in="shadowOffsetInner1" in2="SourceAlpha" operator="arithmetic" k2="-1" k3="1" result="shadowInnerInner1"></feComposite>
            <feColorMatrix values="0 0 0 0 0   0 0 0 0 0   0 0 0 0 0  0 0 0 0.14 0" type="matrix" in="shadowInnerInner1"></feColorMatrix>
        </filter>
        <filter x="-0.9%" y="-0.2%" width="200.9%" height="100.4%" filterUnits="objectBoundingBox" id="filter-33">
            <feGaussianBlur stdDeviation="2" in="SourceGraphic"></feGaussianBlur>
        </filter>
        <filter x="-96.6%" y="-0.2%" width="197.5%" height="100.4%" filterUnits="objectBoundingBox" id="filter-34">
            <feGaussianBlur stdDeviation="2" in="SourceGraphic"></feGaussianBlur>
        </filter>
        <path d="M697,2830.72566 L697,2830.72566 C744.897261,2830.72566 783.725664,2791.89726 783.725664,2744 C783.725664,2696.10274 744.897261,2657.27434 697,2657.27434 C649.102739,2657.27434 610.274336,2696.10274 610.274336,2744 C610.274336,2791.89726 649.102739,2830.72566 697,2830.72566 L697,2830.72566 Z M697,2842 L697,2842 C642.876095,2842 599,2798.12391 599,2744 C599,2689.87609 642.876095,2646 697,2646 C751.123905,2646 795,2689.87609 795,2744 C795,2798.12391 751.123905,2842 697,2842 L697,2842 Z" id="path-35"></path>
        <filter x="-1.5%" y="-1.5%" width="103.1%" height="103.1%" filterUnits="objectBoundingBox" id="filter-36">
            <feMorphology radius="2" operator="erode" in="SourceAlpha" result="shadowSpreadInner1"></feMorphology>
            <feGaussianBlur stdDeviation="1" in="shadowSpreadInner1" result="shadowBlurInner1"></feGaussianBlur>
            <feOffset dx="2" dy="0" in="shadowBlurInner1" result="shadowOffsetInner1"></feOffset>
            <feComposite in="shadowOffsetInner1" in2="SourceAlpha" operator="arithmetic" k2="-1" k3="1" result="shadowInnerInner1"></feComposite>
            <feColorMatrix values="0 0 0 0 0   0 0 0 0 0   0 0 0 0 0  0 0 0 0.112686821 0" type="matrix" in="shadowInnerInner1"></feColorMatrix>
        </filter>
        <rect id="path-37" x="0" y="0" width="196" height="22" rx="11"></rect>
        <rect id="path-39" x="0" y="0" width="196" height="22" rx="11"></rect>
        <filter x="-1.5%" y="-13.6%" width="103.1%" height="127.3%" filterUnits="objectBoundingBox" id="filter-41">
            <feMorphology radius="3" operator="erode" in="SourceAlpha" result="shadowSpreadInner1"></feMorphology>
            <feGaussianBlur stdDeviation="1.5" in="shadowSpreadInner1" result="shadowBlurInner1"></feGaussianBlur>
            <feOffset dx="0" dy="0" in="shadowBlurInner1" result="shadowOffsetInner1"></feOffset>
            <feComposite in="shadowOffsetInner1" in2="SourceAlpha" operator="arithmetic" k2="-1" k3="1" result="shadowInnerInner1"></feComposite>
            <feColorMatrix values="0 0 0 0 0   0 0 0 0 0   0 0 0 0 0  0 0 0 0.5 0" type="matrix" in="shadowInnerInner1"></feColorMatrix>
        </filter>
        <radialGradient cx="121.058392%" cy="134.125808%" fx="121.058392%" fy="134.125808%" r="100.661381%" id="radialGradient-42">
            <stop stop-color="#434343" offset="0%"></stop>
            <stop stop-color="#161616" offset="100%"></stop>
        </radialGradient>
        <radialGradient cx="50%" cy="0%" fx="50%" fy="0%" r="100%" id="radialGradient-43">
            <stop stop-color="#2A4893" offset="0%"></stop>
            <stop stop-color="#213054" offset="100%"></stop>
        </radialGradient>
        <circle id="path-44" cx="21" cy="21" r="11"></circle>
        <filter x="-40.9%" y="-40.9%" width="181.8%" height="181.8%" filterUnits="objectBoundingBox" id="filter-46">
            <feMorphology radius="1.5" operator="dilate" in="SourceAlpha" result="shadowSpreadOuter1"></feMorphology>
            <feOffset dx="0" dy="0" in="shadowSpreadOuter1" result="shadowOffsetOuter1"></feOffset>
            <feGaussianBlur stdDeviation="1.5" in="shadowOffsetOuter1" result="shadowBlurOuter1"></feGaussianBlur>
            <feColorMatrix values="0 0 0 0 0   0 0 0 0 0   0 0 0 0 0  0 0 0 0.4 0" type="matrix" in="shadowBlurOuter1"></feColorMatrix>
        </filter>
        <filter x="-146.0%" y="-146.0%" width="392.0%" height="392.0%" filterUnits="objectBoundingBox" id="filter-47">
            <feGaussianBlur stdDeviation="1.46" in="SourceGraphic"></feGaussianBlur>
        </filter>
        <filter x="-146.0%" y="-146.0%" width="392.0%" height="392.0%" filterUnits="objectBoundingBox" id="filter-48">
            <feGaussianBlur stdDeviation="1.46" in="SourceGraphic"></feGaussianBlur>
        </filter>
        <filter x="-109.5%" y="-109.5%" width="319.0%" height="319.0%" filterUnits="objectBoundingBox" id="filter-49">
            <feGaussianBlur stdDeviation="1.46" in="SourceGraphic"></feGaussianBlur>
        </filter>
        <filter x="-109.5%" y="-109.5%" width="319.0%" height="319.0%" filterUnits="objectBoundingBox" id="filter-50">
            <feGaussianBlur stdDeviation="1.46" in="SourceGraphic"></feGaussianBlur>
        </filter>
        <filter x="-48.7%" y="-73.0%" width="197.3%" height="246.0%" filterUnits="objectBoundingBox" id="filter-51">
            <feGaussianBlur stdDeviation="1.46" in="SourceGraphic"></feGaussianBlur>
        </filter>
        <filter x="-43.8%" y="-43.8%" width="187.6%" height="187.6%" filterUnits="objectBoundingBox" id="filter-52">
            <feGaussianBlur stdDeviation="1.46" in="SourceGraphic"></feGaussianBlur>
        </filter>
    </defs>
    <g id="iPhone-6s-Plus" stroke="none" stroke-width="1" fill="none" fill-rule="evenodd">
        <g id="Apple-iPhone-6s-Plus-Space-Gray">
            <g id="Shadow" transform="translate(48.000000, 2926.000000)" fill="black" fill-opacity="1">
                <g id="Outer-Shadow">
                    <use filter="url(#filter-2)" xlink:href="#path-1"></use>
                </g>
                <g id="Middle-Shadow">
                    <use filter="url(#filter-4)" xlink:href="#path-3"></use>
                </g>
                <g id="Inner-Shadow">
                    <use filter="url(#filter-6)" xlink:href="#path-5"></use>
                </g>
            </g>
            <g id="Device">
                <g id="Body">
                    <g id="Phone-Shape">
                        <use fill="url(#linearGradient-7)" fill-rule="evenodd" xlink:href="#path-8"></use>
                        <use fill="black" fill-opacity="1" filter="url(#filter-9)" xlink:href="#path-8"></use>
                    </g>
                    <g id="Antenna" transform="translate(8.000000, 232.000000)" fill="url(#linearGradient-10)">
                        <path d="M0,4 C0,4 8.79510498,2.34924389e-08 27,0 L27,41 C9.32904053,42.5317906 0,47 0,47 L0,4 Z" id="Top-Left"></path>
                        <path d="M1403,4 C1403,4 1411.7951,2.34924389e-08 1430,0 L1430,41 C1412.32904,42.5317906 1403,47 1403,47 L1403,4 Z" id="Top-Right" transform="translate(1416.500000, 23.500000) scale(-1, 1) translate(-1416.500000, -23.500000) "></path>
                        <path d="M0,2443 C0,2443 8.79510498,2440 27,2440 L27,2483 C7.80715942,2482.66683 0,2485 0,2485 L0,2443 Z" id="Bottom-Left" transform="translate(13.500000, 2462.500000) scale(1, -1) translate(-13.500000, -2462.500000) "></path>
                        <path d="M1403,2443 C1403,2443 1411.7951,2440 1430,2440 L1430,2483 C1410.80716,2482.66683 1403,2485 1403,2485 L1403,2443 Z" id="Bottom-Right" transform="translate(1416.500000, 2462.500000) scale(-1, -1) translate(-1416.500000, -2462.500000) "></path>
                    </g>
                    <g id="Plug" transform="translate(241.000000, 2938.000000)">
                        <g id="Lightning-Connector" opacity="0.9">
                            <use fill="black" fill-opacity="1" filter="url(#filter-13)" xlink:href="#path-12"></use>
                            <use fill="url(#linearGradient-11)" fill-rule="evenodd" xlink:href="#path-12"></use>
                        </g>
                        <path d="M68.3177827,10 L71,10 C69.5571223,5.96493845 54.21376,0 35.4985526,0 C16.7957818,0 1.46037642,6.01165994 9.15933995e-16,10 L2.86546342,10 C8.36918307,6.26806323 20.9093721,2 35.4985526,2 C50.2546546,2 62.9146101,6.19560971 68.3177827,10 Z" id="Headpone-Jack-Border" fill="#FFFFFF" opacity="0.3"></path>
                    </g>
                    <g id="Silent-Button" transform="translate(0.000000, 376.000000)">
                        <g id="Rectangle-165">
                            <use fill="black" fill-opacity="1" filter="url(#filter-16)" xlink:href="#path-15"></use>
                            <use fill="url(#linearGradient-14)" fill-rule="evenodd" xlink:href="#path-15"></use>
                            <use fill="black" fill-opacity="1" filter="url(#filter-17)" xlink:href="#path-15"></use>
                        </g>
                        <rect id="Rectangle-166" fill="url(#linearGradient-18)" x="2" y="1" width="3" height="116" rx="1.5"></rect>
                    </g>
                    <g id="Volume-Up-Button" transform="translate(2.000000, 628.000000)">
                        <g id="Rectangle-165">
                            <use fill="black" fill-opacity="1" filter="url(#filter-21)" xlink:href="#path-20"></use>
                            <use fill="url(#linearGradient-19)" fill-rule="evenodd" xlink:href="#path-20"></use>
                            <use fill="black" fill-opacity="1" filter="url(#filter-22)" xlink:href="#path-20"></use>
                        </g>
                        <rect id="Rectangle-166" fill="url(#linearGradient-18)" x="2" y="1" width="3" height="216" rx="1.5"></rect>
                    </g>
                    <g id="Volume-Down-Button" transform="translate(2.000000, 896.000000)">
                        <g id="Rectangle-165">
                            <use fill="black" fill-opacity="1" filter="url(#filter-24)" xlink:href="#path-23"></use>
                            <use fill="url(#linearGradient-19)" fill-rule="evenodd" xlink:href="#path-23"></use>
                            <use fill="black" fill-opacity="1" filter="url(#filter-25)" xlink:href="#path-23"></use>
                        </g>
                        <rect id="Rectangle-166" fill="url(#linearGradient-18)" x="2" y="1" width="3" height="216" rx="1.5"></rect>
                    </g>
                    <g id="Sleep-Button" transform="translate(1434.000000, 628.000000)">
                        <g id="Rectangle-165" transform="translate(6.000000, 109.000000) scale(-1, 1) translate(-6.000000, -109.000000) ">
                            <use fill="black" fill-opacity="1" filter="url(#filter-27)" xlink:href="#path-26"></use>
                            <use fill="url(#linearGradient-19)" fill-rule="evenodd" xlink:href="#path-26"></use>
                            <use fill="black" fill-opacity="1" filter="url(#filter-28)" xlink:href="#path-26"></use>
                        </g>
                        <rect id="Rectangle-166" fill="url(#linearGradient-18)" transform="translate(8.500000, 109.000000) scale(-1, 1) translate(-8.500000, -109.000000) " x="7" y="1" width="3" height="216" rx="1.5"></rect>
                    </g>
                </g>
                <g id="Front" transform="translate(31.000000, 24.000000)">
                    <g id="White-Surface">
                        <use fill="black" fill-opacity="1" filter="url(#filter-31)" xlink:href="#path-30"></use>
                        <use fill="url(#linearGradient-29)" fill-rule="evenodd" xlink:href="#path-30"></use>
                        <use fill="black" fill-opacity="1" filter="url(#filter-32)" xlink:href="#path-30"></use>
                    </g>
                    <path d="M707,0 L204.552968,0 C98.2157471,0 12,86.2112255 12,192.558162 L12,2707.44184 C12,2813.78688 98.2089004,2900 204.552968,2900 L707,2900 L210.552968,2900 C104.2089,2900 18,2813.78688 18,2707.44184 L18,192.558162 C18,86.2112255 104.215747,0 210.552968,0 L707,0 Z" id="Light-Left" fill="#FFFFFF" opacity="0.599999964" filter="url(#filter-33)"></path>
                    <path d="M186.563689,0 L680,0 L186.563652,0 Z M1173.43642,0 L1181.43631,0 C1287.7863,0 1374,86.2131173 1374,192.558162 L1374,2707.44184 C1374,2813.78877 1287.78899,2900 1181.43631,2900 L1173.43642,2900 C1279.78905,2899.99994 1366,2813.78874 1366,2707.44184 L1366,192.558162 C1366,86.2131547 1279.78636,6.06566842e-05 1173.43642,3.20070149e-11 Z M680,2900 L186.563689,2900 L680,2900 Z" id="Light-Right" fill="#FFFFFF" opacity="0.599999964" filter="url(#filter-34)"></path>
                    <path d="M11.6196043,2684.32494 L11.6196043,2684.32494 C11.6196043,2733.57357 22.6961026,2779.77555 47.9701529,2815.61264 C80.8203401,2862.19224 135.611326,2888.38673 217.39369,2888.38673 L1168.2691,2888.38673 C1253.49888,2888.38673 1308.77675,2859.39228 1340.71169,2808.76872 C1363.44777,2772.72726 1372.38372,2729.58091 1372.38372,2685.98398 C1372.38372,2683.88266 1372.38371,2380.6227 1372.3837,2200.94816 C1372.38369,1857.27475 1372.38368,1525.19771 1372.38368,1213.35344 C1372.38368,805.796964 1372.38369,465.897429 1372.38372,214.016017 C1372.38373,143.550398 1351.45892,91.5520773 1312.93383,57.6705233 C1278.14351,27.0735798 1229.12634,11.6132723 1171.58804,11.6132723 L995.653313,11.6132723 C848.845126,11.6132723 848.845126,11.6132723 678.500608,11.6132723 L602.393343,11.6132723 L215.734222,11.6132723 C139.837283,11.6132723 86.5805582,34.5123419 53.2180007,76.1415502 C25.0741145,111.258993 11.6201034,159.321901 11.6196043,214.016124 C11.6173065,465.849979 11.6162705,802.824758 11.6162791,1205.9812 C11.6162857,1515.93891 11.6168976,1845.1781 11.6179417,2190.37223 C11.6184444,2356.58978 11.6196043,2675.75769 11.6196043,2684.32494 L11.6196043,2684.32494 Z M0.00332527292,2684.32494 C0.00332527302,2603.9458 -0.0041565912,1034.01436 0.00332527292,214.016018 C0.00425297538,112.34156 45.8234541,3.83782032e-15 215.734222,3.38204263e-16 C385.64499,-3.16141179e-15 1099.85161,2.20726619e-14 1171.58804,3.83782032e-15 C1285.75428,-1.366026e-14 1384.00002,59.1972299 1384,214.016018 C1383.99991,1032.50005 1384,2627.39269 1384,2685.98398 C1384,2744.57527 1366.67606,2900 1168.2691,2900 L217.39369,2900 C30.134671,2900 0.00332527281,2764.70408 0.00332527292,2684.32494 L0.00332527292,2684.32494 Z" id="Stroke" fill="#18191A" fill-rule="nonzero"></path>
                    <g id="Home-Button" fill-rule="nonzero">
                        <use fill="" fill-rule="evenodd" xlink:href="#path-35"></use>
                        <use fill="black" fill-opacity="1" filter="url(#filter-36)" xlink:href="#path-35"></use>
                    </g>
                    <g id="Speaker" transform="translate(594.000000, 159.000000)">
                        <mask id="mask-38" fill="white">
                            <use xlink:href="#path-37"></use>
                        </mask>
                        <use id="Mask" fill="#333333" xlink:href="#path-37"></use>
                        <path d="M-3,3 L198,3 L198,4 L-3,4 L-3,3 Z M-3,7 L198,7 L198,8 L-3,8 L-3,7 Z M-3,11 L198,11 L198,12 L-3,12 L-3,11 Z M-3,15 L198,15 L198,16 L-3,16 L-3,15 Z M-3,19 L198,19 L198,20 L-3,20 L-3,19 Z" id="Grid" fill-opacity="0.149999991" fill="#000000" mask="url(#mask-38)"></path>
                        <path d="M5,0 L6,0 L6,25 L5,25 L5,0 Z M9,0 L10,0 L10,25 L9,25 L9,0 Z M13,0 L14,0 L14,25 L13,25 L13,0 Z M17,0 L18,0 L18,25 L17,25 L17,0 Z M21,0 L22,0 L22,25 L21,25 L21,0 Z M25,0 L26,0 L26,25 L25,25 L25,0 Z M29,0 L30,0 L30,25 L29,25 L29,0 Z M33,0 L34,0 L34,25 L33,25 L33,0 Z M37,0 L38,0 L38,25 L37,25 L37,0 Z M41,0 L42,0 L42,25 L41,25 L41,0 Z M45,0 L46,0 L46,25 L45,25 L45,0 Z M49,0 L50,0 L50,25 L49,25 L49,0 Z M53,0 L54,0 L54,25 L53,25 L53,0 Z M57,0 L58,0 L58,25 L57,25 L57,0 Z M61,0 L62,0 L62,25 L61,25 L61,0 Z M65,0 L66,0 L66,25 L65,25 L65,0 Z M69,0 L70,0 L70,25 L69,25 L69,0 Z M73,0 L74,0 L74,25 L73,25 L73,0 Z M77,0 L78,0 L78,25 L77,25 L77,0 Z M81,0 L82,0 L82,25 L81,25 L81,0 Z M85,0 L86,0 L86,25 L85,25 L85,0 Z M89,0 L90,0 L90,25 L89,25 L89,0 Z M93,0 L94,0 L94,25 L93,25 L93,0 Z M97,0 L98,0 L98,25 L97,25 L97,0 Z M101,0 L102,0 L102,25 L101,25 L101,0 Z M105,0 L106,0 L106,25 L105,25 L105,0 Z M109,0 L110,0 L110,25 L109,25 L109,0 Z M113,0 L114,0 L114,25 L113,25 L113,0 Z M117,0 L118,0 L118,25 L117,25 L117,0 Z M121,0 L122,0 L122,25 L121,25 L121,0 Z M125,0 L126,0 L126,25 L125,25 L125,0 Z M129,0 L130,0 L130,25 L129,25 L129,0 Z M133,0 L134,0 L134,25 L133,25 L133,0 Z M137,0 L138,0 L138,25 L137,25 L137,0 Z M141,0 L142,0 L142,25 L141,25 L141,0 Z M145,0 L146,0 L146,25 L145,25 L145,0 Z M149,0 L150,0 L150,25 L149,25 L149,0 Z M153,0 L154,0 L154,25 L153,25 L153,0 Z M157,0 L158,0 L158,25 L157,25 L157,0 Z M161,0 L162,0 L162,25 L161,25 L161,0 Z M165,0 L166,0 L166,25 L165,25 L165,0 Z M169,0 L170,0 L170,25 L169,25 L169,0 Z M173,0 L174,0 L174,25 L173,25 L173,0 Z M177,0 L178,0 L178,25 L177,25 L177,0 Z M181,0 L182,0 L182,25 L181,25 L181,0 Z M185,0 L186,0 L186,25 L185,25 L185,0 Z M189,0 L190,0 L190,25 L189,25 L189,0 Z M193,0 L194,0 L194,25 L193,25 L193,0 Z" id="Grid" fill-opacity="0.149999991" fill="#000000" mask="url(#mask-38)"></path>
                        <mask id="mask-40" fill="white">
                            <use xlink:href="#path-39"></use>
                        </mask>
                        <g id="Shadow" opacity="0.300000012" fill-opacity="1" fill="black">
                            <use filter="url(#filter-41)" xlink:href="#path-39"></use>
                        </g>
                    </g>
                    <g id="Camera" transform="translate(475.000000, 148.000000)">
                        <circle id="Oval-57" fill="url(#radialGradient-42)" cx="21" cy="21" r="21"></circle>
                        <mask id="mask-45" fill="white">
                            <use xlink:href="#path-44"></use>
                        </mask>
                        <g id="Mask">
                            <use fill="black" fill-opacity="1" filter="url(#filter-46)" xlink:href="#path-44"></use>
                            <use fill="url(#radialGradient-43)" fill-rule="evenodd" xlink:href="#path-44"></use>
                        </g>
                        <circle id="Oval-59" fill="#BEE5FF" filter="url(#filter-47)" mask="url(#mask-45)" cx="14.5" cy="24.5" r="1.5"></circle>
                        <circle id="Oval-59" fill="#BEE5FF" filter="url(#filter-48)" mask="url(#mask-45)" cx="14.5" cy="24.5" r="1.5"></circle>
                        <circle id="Oval-59" fill="#75C9FF" filter="url(#filter-49)" mask="url(#mask-45)" cx="31" cy="15" r="2"></circle>
                        <circle id="Oval-59" fill="#75C9FF" filter="url(#filter-50)" mask="url(#mask-45)" cx="31" cy="15" r="2"></circle>
                        <path d="M19,17 C20.9569411,15.5235452 22.4513262,13.6395424 22,13 C21.3031806,11.6132706 18.8780396,11.8546558 16,13 C14.0430589,14.4764548 12.5486738,16.3604576 13,17 C13.6968194,18.3867294 16.1219604,18.1453442 19,17 L19,17 Z" id="Oval-61" fill="#3358B6" filter="url(#filter-51)" mask="url(#mask-45)"></path>
                        <path d="M23,26 C26.0311713,25.0436881 27.56589,22.2753475 27,20 C26.0445393,16.9679757 23.2765223,15.4338413 21,16 C17.9688287,16.9563119 16.43411,19.7246525 17,22 C17.9554607,25.0320243 20.7234777,26.5661587 23,26 L23,26 Z" id="Oval-61" fill="#00154F" filter="url(#filter-52)" mask="url(#mask-45)"></path>
                    </g>
                </g>
            </g>
            <rect id="Screen" fill="#1D2129" x="102" y="379" width="1242" height="2208"></rect>
        </g>
    </g>
</svg>