
<svg width="767px" height="1634px" viewBox="0 0 767 1634" version="1.1" xmlns="http://www.w3.org/2000/svg" xmlns:xlink="http://www.w3.org/1999/xlink">
    <!-- Generator: Sketch 43.2 (39069) - http://www.bohemiancoding.com/sketch -->
    <desc>Created with Sketch.</desc>
    <defs>
        <path d="M354.5,23.6729953 C550.284944,23.6729953 709,17.7933907 709,10.5405308 C709,3.28767086 491.609415,5.68018184e-16 354.5,0 C217.390585,-5.60641324e-16 0,3.28767086 0,10.5405308 C0,17.7933907 158.715056,23.6729953 354.5,23.6729953 Z" id="path-1"></path>
        <filter x="-3.6%" y="-107.7%" width="107.2%" height="315.4%" filterUnits="objectBoundingBox" id="filter-2">
            <feOffset dx="0" dy="0" in="SourceAlpha" result="shadowOffsetOuter1"></feOffset>
            <feGaussianBlur stdDeviation="8.5" in="shadowOffsetOuter1" result="shadowBlurOuter1"></feGaussianBlur>
            <feColorMatrix values="0 0 0 0 0   0 0 0 0 0   0 0 0 0 0  0 0 0 0.12 0" type="matrix" in="shadowBlurOuter1"></feColorMatrix>
        </filter>
        <path d="M354.404512,20.4045566 C543.663291,20.4045566 697.087845,15.7008729 697.087845,9.89858498 C697.087845,4.09629706 486.943613,1.46616038 354.404512,1.46616038 C221.865411,1.46616038 11.7211785,4.09629706 11.7211785,9.89858498 C11.7211785,15.7008729 165.145733,20.4045566 354.404512,20.4045566 Z" id="path-3"></path>
        <filter x="-1.5%" y="-55.4%" width="103.1%" height="210.9%" filterUnits="objectBoundingBox" id="filter-4">
            <feOffset dx="0" dy="0" in="SourceAlpha" result="shadowOffsetOuter1"></feOffset>
            <feGaussianBlur stdDeviation="3.5" in="shadowOffsetOuter1" result="shadowBlurOuter1"></feGaussianBlur>
            <feColorMatrix values="0 0 0 0 0   0 0 0 0 0   0 0 0 0 0  0 0 0 0.08 0" type="matrix" in="shadowBlurOuter1"></feColorMatrix>
        </filter>
        <path d="M354.972667,14.5423275 C531.179116,14.5423275 674.022667,12.1904856 674.022667,9.28934163 C674.022667,6.38819767 478.37114,5.07312933 354.972667,5.07312933 C231.574193,5.07312933 35.9226667,6.38819767 35.9226667,9.28934163 C35.9226667,12.1904856 178.766217,14.5423275 354.972667,14.5423275 Z" id="path-5"></path>
        <filter x="-1.2%" y="-79.2%" width="102.4%" height="258.4%" filterUnits="objectBoundingBox" id="filter-6">
            <feOffset dx="0" dy="0" in="SourceAlpha" result="shadowOffsetOuter1"></feOffset>
            <feGaussianBlur stdDeviation="2.5" in="shadowOffsetOuter1" result="shadowBlurOuter1"></feGaussianBlur>
            <feColorMatrix values="0 0 0 0 0   0 0 0 0 0   0 0 0 0 0  0 0 0 0.24 0" type="matrix" in="shadowBlurOuter1"></feColorMatrix>
        </filter>
        <path d="M0,1471.00603 L0,1471.00603 L0,126.993968 C0,48.858553 48.857789,0 126.991635,0 L633.008365,0 C711.142787,0 760,48.8584899 760,126.993968 L760,1471.00603 C760,1549.14145 711.142211,1598 633.008365,1598 L126.991635,1598 C48.8572127,1598 0,1549.14151 0,1471.00603 L0,1471.00603 Z" id="path-7"></path>
        <filter x="-0.7%" y="-0.3%" width="101.3%" height="100.6%" filterUnits="objectBoundingBox" id="filter-8">
            <feGaussianBlur stdDeviation="1" in="SourceAlpha" result="shadowBlurInner1"></feGaussianBlur>
            <feOffset dx="2" dy="0" in="shadowBlurInner1" result="shadowOffsetInner1"></feOffset>
            <feComposite in="shadowOffsetInner1" in2="SourceAlpha" operator="arithmetic" k2="-1" k3="1" result="shadowInnerInner1"></feComposite>
            <feColorMatrix values="0 0 0 0 0.934683248   0 0 0 0 0.838681277   0 0 0 0 0.294670106  0 0 0 1 0" type="matrix" in="shadowInnerInner1" result="shadowMatrixInner1"></feColorMatrix>
            <feGaussianBlur stdDeviation="1" in="SourceAlpha" result="shadowBlurInner2"></feGaussianBlur>
            <feOffset dx="-2" dy="0" in="shadowBlurInner2" result="shadowOffsetInner2"></feOffset>
            <feComposite in="shadowOffsetInner2" in2="SourceAlpha" operator="arithmetic" k2="-1" k3="1" result="shadowInnerInner2"></feComposite>
            <feColorMatrix values="0 0 0 0 0.934683248   0 0 0 0 0.838681277   0 0 0 0 0.294670106  0 0 0 1 0" type="matrix" in="shadowInnerInner2" result="shadowMatrixInner2"></feColorMatrix>
            <feGaussianBlur stdDeviation="1.5" in="SourceAlpha" result="shadowBlurInner3"></feGaussianBlur>
            <feOffset dx="0" dy="7" in="shadowBlurInner3" result="shadowOffsetInner3"></feOffset>
            <feComposite in="shadowOffsetInner3" in2="SourceAlpha" operator="arithmetic" k2="-1" k3="1" result="shadowInnerInner3"></feComposite>
            <feColorMatrix values="0 0 0 0 1   0 0 0 0 1   0 0 0 0 1  0 0 0 0.402428668 0" type="matrix" in="shadowInnerInner3" result="shadowMatrixInner3"></feColorMatrix>
            <feGaussianBlur stdDeviation="1" in="SourceAlpha" result="shadowBlurInner4"></feGaussianBlur>
            <feOffset dx="0" dy="-5" in="shadowBlurInner4" result="shadowOffsetInner4"></feOffset>
            <feComposite in="shadowOffsetInner4" in2="SourceAlpha" operator="arithmetic" k2="-1" k3="1" result="shadowInnerInner4"></feComposite>
            <feColorMatrix values="0 0 0 0 0   0 0 0 0 0   0 0 0 0 0  0 0 0 0.198652627 0" type="matrix" in="shadowInnerInner4" result="shadowMatrixInner4"></feColorMatrix>
            <feMerge>
                <feMergeNode in="shadowMatrixInner1"></feMergeNode>
                <feMergeNode in="shadowMatrixInner2"></feMergeNode>
                <feMergeNode in="shadowMatrixInner3"></feMergeNode>
                <feMergeNode in="shadowMatrixInner4"></feMergeNode>
            </feMerge>
        </filter>
        <path d="M15,1471.00603 L15,1471.00603 C15,1540.85703 57.1412746,1583 126.991635,1583 L633.008365,1583 C702.857596,1583 745,1540.85752 745,1471.00603 L745,126.993968 C745,57.1429705 702.858725,15 633.008365,15 L126.991635,15 C57.142404,15 15,57.1424805 15,126.993968 L15,1471.00603 L15,1471.00603 Z" id="path-9"></path>
        <filter x="-1.4%" y="-1.1%" width="102.7%" height="101.5%" filterUnits="objectBoundingBox" id="filter-10">
            <feOffset dx="0" dy="-8" in="SourceAlpha" result="shadowOffsetOuter1"></feOffset>
            <feGaussianBlur stdDeviation="2" in="shadowOffsetOuter1" result="shadowBlurOuter1"></feGaussianBlur>
            <feColorMatrix values="0 0 0 0 0.892883716   0 0 0 0 0.818342288   0 0 0 0 0.162377724  0 0 0 1 0" type="matrix" in="shadowBlurOuter1"></feColorMatrix>
        </filter>
        <path d="M21,1471.00603 C21,1537.54241 60.4540713,1577 126.991635,1577 L633.008365,1577 C699.542815,1577 739,1537.54488 739,1471.00603 L739,126.993968 C739,60.4575909 699.545929,21 633.008365,21 L126.991635,21 C60.4571854,21 21,60.4551161 21,126.993968 L21,1471.00603 L21,1471.00603 Z" id="path-11"></path>
        <filter x="-1.3%" y="-0.6%" width="102.5%" height="101.2%" filterUnits="objectBoundingBox" id="filter-12">
            <feMorphology radius="0.5" operator="dilate" in="SourceAlpha" result="shadowSpreadOuter1"></feMorphology>
            <feOffset dx="0" dy="0" in="shadowSpreadOuter1" result="shadowOffsetOuter1"></feOffset>
            <feGaussianBlur stdDeviation="2.5" in="shadowOffsetOuter1" result="shadowBlurOuter1"></feGaussianBlur>
            <feColorMatrix values="0 0 0 0 1   0 0 0 0 1   0 0 0 0 1  0 0 0 0.496914629 0" type="matrix" in="shadowBlurOuter1"></feColorMatrix>
        </filter>
        <linearGradient x1="50%" y1="1.13759667%" x2="50%" y2="98.72529%" id="linearGradient-13">
            <stop stop-color="#FFFFFF" stop-opacity="0" offset="0%"></stop>
            <stop stop-color="#FFFFFF" stop-opacity="0.6" offset="2.02739959%"></stop>
            <stop stop-color="#FFFFFF" stop-opacity="0.595674819" offset="96.7122535%"></stop>
            <stop stop-color="#FFFFFF" stop-opacity="0" offset="100%"></stop>
        </linearGradient>
        <filter x="0.0%" y="0.0%" width="100.0%" height="100.0%" filterUnits="objectBoundingBox" id="filter-14">
            <feGaussianBlur stdDeviation="0" in="SourceGraphic"></feGaussianBlur>
        </filter>
        <linearGradient x1="0%" y1="50%" x2="100%" y2="50%" id="linearGradient-15">
            <stop stop-color="#E3CF3E" offset="0%"></stop>
            <stop stop-color="#FEF7BF" offset="3.71574027%"></stop>
            <stop stop-color="#FEF7BF" offset="6.50934939%"></stop>
            <stop stop-color="#FFF17D" offset="12.1109759%"></stop>
            <stop stop-color="#FDEC60" offset="84.262135%"></stop>
            <stop stop-color="#FEF7BF" offset="91.6247759%"></stop>
            <stop stop-color="#FEF7BF" offset="94.9570953%"></stop>
            <stop stop-color="#E3CF3E" offset="100%"></stop>
        </linearGradient>
        <path d="M0,3.5 C0,1.56700338 1.56476531,0 3.50336186,0 L118.496638,0 C120.431491,0 122,1.57093664 122,3.5 L122,7 L0,7 L0,3.5 Z" id="path-16"></path>
        <filter x="-1.6%" y="-28.6%" width="103.3%" height="157.1%" filterUnits="objectBoundingBox" id="filter-17">
            <feGaussianBlur stdDeviation="1" in="SourceAlpha" result="shadowBlurInner1"></feGaussianBlur>
            <feOffset dx="0" dy="-2" in="shadowBlurInner1" result="shadowOffsetInner1"></feOffset>
            <feComposite in="shadowOffsetInner1" in2="SourceAlpha" operator="arithmetic" k2="-1" k3="1" result="shadowInnerInner1"></feComposite>
            <feColorMatrix values="0 0 0 0 0.917384141   0 0 0 0 0.817815266   0 0 0 0 0.0959409196  0 0 0 1 0" type="matrix" in="shadowInnerInner1" result="shadowMatrixInner1"></feColorMatrix>
            <feOffset dx="-2" dy="0" in="SourceAlpha" result="shadowOffsetInner2"></feOffset>
            <feComposite in="shadowOffsetInner2" in2="SourceAlpha" operator="arithmetic" k2="-1" k3="1" result="shadowInnerInner2"></feComposite>
            <feColorMatrix values="0 0 0 0 0.806521046   0 0 0 0 0.726867218   0 0 0 0 0.149376965  0 0 0 1 0" type="matrix" in="shadowInnerInner2" result="shadowMatrixInner2"></feColorMatrix>
            <feMerge>
                <feMergeNode in="shadowMatrixInner1"></feMergeNode>
                <feMergeNode in="shadowMatrixInner2"></feMergeNode>
            </feMerge>
        </filter>
        <linearGradient x1="50%" y1="3.51837588%" x2="50%" y2="97.7566571%" id="linearGradient-18">
            <stop stop-color="#F7E558" offset="0%"></stop>
            <stop stop-color="#FEF7BF" offset="2.23106093%"></stop>
            <stop stop-color="#F7E558" offset="20.7253443%"></stop>
            <stop stop-color="#F7E558" offset="92.6089178%"></stop>
            <stop stop-color="#FEF7BF" offset="97.329052%"></stop>
            <stop stop-color="#D1BC17" offset="100%"></stop>
        </linearGradient>
        <path d="M0,3.00543202 C0,1.34557775 1.34967041,0 3.00925446,0 L7,0 L7,71 L3.00925446,71 C1.34728911,71 0,69.6607009 0,67.994568 L0,3.00543202 Z" id="path-19"></path>
        <filter x="-14.3%" y="-1.4%" width="128.6%" height="102.8%" filterUnits="objectBoundingBox" id="filter-20">
            <feGaussianBlur stdDeviation="0.5" in="SourceAlpha" result="shadowBlurInner1"></feGaussianBlur>
            <feOffset dx="1" dy="0" in="shadowBlurInner1" result="shadowOffsetInner1"></feOffset>
            <feComposite in="shadowOffsetInner1" in2="SourceAlpha" operator="arithmetic" k2="-1" k3="1" result="shadowInnerInner1"></feComposite>
            <feColorMatrix values="0 0 0 0 0   0 0 0 0 0   0 0 0 0 0  0 0 0 0.203266531 0" type="matrix" in="shadowInnerInner1"></feColorMatrix>
        </filter>
        <linearGradient x1="50%" y1="1.50773949%" x2="50%" y2="100%" id="linearGradient-21">
            <stop stop-color="#F2E052" offset="0%"></stop>
            <stop stop-color="#FEF7BF" offset="2.23106093%"></stop>
            <stop stop-color="#F7E558" offset="12.6609629%"></stop>
            <stop stop-color="#F7E558" offset="92.6089178%"></stop>
            <stop stop-color="#FEF7BF" offset="96.1961155%"></stop>
            <stop stop-color="#C0AF28" offset="100%"></stop>
        </linearGradient>
        <path d="M0,120.001645 C0,118.343882 1.34967041,117 3.00925446,117 L7,117 L7,224 L3.00925446,224 C1.34728911,224 0,222.647125 0,220.998355 L0,120.001645 Z" id="path-22"></path>
        <filter x="-14.3%" y="-0.9%" width="128.6%" height="101.9%" filterUnits="objectBoundingBox" id="filter-23">
            <feGaussianBlur stdDeviation="0.5" in="SourceAlpha" result="shadowBlurInner1"></feGaussianBlur>
            <feOffset dx="1" dy="0" in="shadowBlurInner1" result="shadowOffsetInner1"></feOffset>
            <feComposite in="shadowOffsetInner1" in2="SourceAlpha" operator="arithmetic" k2="-1" k3="1" result="shadowInnerInner1"></feComposite>
            <feColorMatrix values="0 0 0 0 0   0 0 0 0 0   0 0 0 0 0  0 0 0 0.203266531 0" type="matrix" in="shadowInnerInner1"></feColorMatrix>
        </filter>
        <path d="M0,267.001645 C0,265.343882 1.34967041,264 3.00925446,264 L7,264 L7,371 L3.00925446,371 C1.34728911,371 0,369.647125 0,367.998355 L0,267.001645 Z" id="path-24"></path>
        <filter x="-14.3%" y="-0.9%" width="128.6%" height="101.9%" filterUnits="objectBoundingBox" id="filter-25">
            <feGaussianBlur stdDeviation="0.5" in="SourceAlpha" result="shadowBlurInner1"></feGaussianBlur>
            <feOffset dx="1" dy="0" in="shadowBlurInner1" result="shadowOffsetInner1"></feOffset>
            <feComposite in="shadowOffsetInner1" in2="SourceAlpha" operator="arithmetic" k2="-1" k3="1" result="shadowInnerInner1"></feComposite>
            <feColorMatrix values="0 0 0 0 0   0 0 0 0 0   0 0 0 0 0  0 0 0 0.203266531 0" type="matrix" in="shadowInnerInner1"></feColorMatrix>
        </filter>
        <radialGradient cx="50%" cy="50%" fx="50%" fy="50%" r="39.469401%" id="radialGradient-26">
            <stop stop-color="#1D3CFF" offset="0%"></stop>
            <stop stop-color="#0534FF" offset="100%"></stop>
        </radialGradient>
        <circle id="path-27" cx="14" cy="14" r="6"></circle>
        <filter x="-37.5%" y="-37.5%" width="175.0%" height="175.0%" filterUnits="objectBoundingBox" id="filter-29">
            <feMorphology radius="1" operator="dilate" in="SourceAlpha" result="shadowSpreadOuter1"></feMorphology>
            <feOffset dx="0" dy="0" in="shadowSpreadOuter1" result="shadowOffsetOuter1"></feOffset>
            <feGaussianBlur stdDeviation="0.5" in="shadowOffsetOuter1" result="shadowBlurOuter1"></feGaussianBlur>
            <feColorMatrix values="0 0 0 0 0.015029665   0 0 0 0 0.0661778121   0 0 0 0 0.17357568  0 0 0 0.599241395 0" type="matrix" in="shadowBlurOuter1"></feColorMatrix>
        </filter>
        <filter x="-50.0%" y="-50.0%" width="200.0%" height="200.0%" filterUnits="objectBoundingBox" id="filter-30">
            <feGaussianBlur stdDeviation="1.5" in="SourceAlpha" result="shadowBlurInner1"></feGaussianBlur>
            <feOffset dx="-2" dy="3" in="shadowBlurInner1" result="shadowOffsetInner1"></feOffset>
            <feComposite in="shadowOffsetInner1" in2="SourceAlpha" operator="arithmetic" k2="-1" k3="1" result="shadowInnerInner1"></feComposite>
            <feColorMatrix values="0 0 0 0 0   0 0 0 0 0   0 0 0 0 0  0 0 0 0.5 0" type="matrix" in="shadowInnerInner1" result="shadowMatrixInner1"></feColorMatrix>
            <feGaussianBlur stdDeviation="1" in="SourceAlpha" result="shadowBlurInner2"></feGaussianBlur>
            <feOffset dx="0" dy="-1" in="shadowBlurInner2" result="shadowOffsetInner2"></feOffset>
            <feComposite in="shadowOffsetInner2" in2="SourceAlpha" operator="arithmetic" k2="-1" k3="1" result="shadowInnerInner2"></feComposite>
            <feColorMatrix values="0 0 0 0 1   0 0 0 0 1   0 0 0 0 1  0 0 0 0.31493433 0" type="matrix" in="shadowInnerInner2" result="shadowMatrixInner2"></feColorMatrix>
            <feMorphology radius="1" operator="erode" in="SourceAlpha" result="shadowSpreadInner3"></feMorphology>
            <feOffset dx="0" dy="0" in="shadowSpreadInner3" result="shadowOffsetInner3"></feOffset>
            <feComposite in="shadowOffsetInner3" in2="SourceAlpha" operator="arithmetic" k2="-1" k3="1" result="shadowInnerInner3"></feComposite>
            <feColorMatrix values="0 0 0 0 0   0 0 0 0 0   0 0 0 0 0  0 0 0 0.746008832 0" type="matrix" in="shadowInnerInner3" result="shadowMatrixInner3"></feColorMatrix>
            <feMerge>
                <feMergeNode in="shadowMatrixInner1"></feMergeNode>
                <feMergeNode in="shadowMatrixInner2"></feMergeNode>
                <feMergeNode in="shadowMatrixInner3"></feMergeNode>
            </feMerge>
        </filter>
        <filter x="-25.0%" y="-60.0%" width="150.0%" height="220.0%" filterUnits="objectBoundingBox" id="filter-31">
            <feGaussianBlur stdDeviation="1" in="SourceGraphic"></feGaussianBlur>
        </filter>
        <linearGradient x1="50%" y1="13.1394909%" x2="50%" y2="50%" id="linearGradient-32">
            <stop stop-color="#0A0F11" offset="0%"></stop>
            <stop stop-color="#070D0F" offset="100%"></stop>
        </linearGradient>
        <path d="M0,15.5 L0,15.5 C0,6.93775121 6.9323374,0 15.5006076,0 L124.499392,0 C133.058478,0 140,6.94634792 140,15.5 C140,24.0622488 133.067663,31 124.499392,31 L15.5006076,31 C6.94152229,31 0,24.0536521 0,15.5 L0,15.5 Z" id="path-33"></path>
        <filter x="-4.8%" y="-35.3%" width="109.7%" height="170.6%" filterUnits="objectBoundingBox" id="filter-35">
            <feGaussianBlur stdDeviation="2" in="SourceGraphic"></feGaussianBlur>
        </filter>
        <filter x="-23.5%" y="-20.2%" width="147.0%" height="140.4%" filterUnits="objectBoundingBox" id="filter-36">
            <feGaussianBlur stdDeviation="1" in="SourceGraphic"></feGaussianBlur>
        </filter>
        <path d="M0,7.5 L0,7.5 C0,11.6337072 3.3581364,15 7.50060758,15 L116.499392,15 C120.651216,15 124,11.6421356 124,7.5 L124,7.5 C124,3.36629279 120.641864,0 116.499392,0 L7.50060758,0 C3.34878396,0 0,3.35786438 0,7.5 L0,7.5 Z" id="path-37"></path>
        <path d="M0,5 C0.250747224,4.14559174 0.589162768,3.54172749 1,3 L1,12 C0.589128936,11.4580043 0.250728189,10.8540364 0,10 L0,5 L0,5 L0,5 Z M3,0 C3.31835871,0.291094584 3.65254458,0.132175787 4,0 L4,13 C3.65251723,12.867674 3.31833497,12.7085879 3,13 L3,0 L3,0 L3,0 Z M6,0 L7,0 L7,14 L6,14 L6,0 L6,0 L6,0 Z M9,0 L10,0 L10,14 L9,14 L9,0 L9,0 L9,0 Z M12,0 L13,0 L13,14 L12,14 L12,0 L12,0 L12,0 Z M15,0 L16,0 L16,14 L15,14 L15,0 L15,0 L15,0 Z M18,0 L19,0 L19,14 L18,14 L18,0 L18,0 L18,0 Z M21,0 L22,0 L22,14 L21,14 L21,0 L21,0 L21,0 Z M24,0 L25,0 L25,14 L24,14 L24,0 L24,0 L24,0 Z M27,0 L28,0 L28,14 L27,14 L27,0 L27,0 L27,0 Z M30,0 L31,0 L31,14 L30,14 L30,0 L30,0 L30,0 Z M33,0 L34,0 L34,14 L33,14 L33,0 L33,0 L33,0 Z M36,0 L37,0 L37,14 L36,14 L36,0 L36,0 Z M39,0 L40,0 L40,14 L39,14 L39,0 L39,0 L39,0 Z M42,0 L43,0 L43,14 L42,14 L42,0 L42,0 L42,0 Z M45,0 L46,0 L46,14 L45,14 L45,0 L45,0 L45,0 Z M48,0 L49,0 L49,14 L48,14 L48,0 L48,0 L48,0 Z M51,0 L52,0 L52,14 L51,14 L51,0 L51,0 L51,0 Z M54,0 L55,0 L55,14 L54,14 L54,0 L54,0 L54,0 Z M57,0 L58,0 L58,14 L57,14 L57,0 L57,0 L57,0 Z M60,0 L61,0 L61,14 L60,14 L60,0 L60,0 L60,0 Z M63,0 L64,0 L64,14 L63,14 L63,0 L63,0 L63,0 Z M66,0 L67,0 L67,14 L66,14 L66,0 L66,0 L66,0 Z M69,0 L70,0 L70,14 L69,14 L69,0 L69,0 L69,0 Z M72,0 L73,0 L73,14 L72,14 L72,0 L72,0 L72,0 Z M75,0 L76,0 L76,14 L75,14 L75,0 L75,0 L75,0 Z M78,0 L79,0 L79,14 L78,14 L78,0 L78,0 L78,0 Z M81,0 L82,0 L82,14 L81,14 L81,0 L81,0 L81,0 Z M84,0 L85,0 L85,14 L84,14 L84,0 L84,0 L84,0 Z M87,0 L88,0 L88,14 L87,14 L87,0 L87,0 L87,0 Z M90,0 L91,0 L91,14 L90,14 L90,0 L90,0 L90,0 Z M93,0 L94,0 L94,14 L93,14 L93,0 L93,0 L93,0 Z M96,0 L97,0 L97,14 L96,14 L96,0 L96,0 L96,0 Z M99,0 L100,0 L100,14 L99,14 L99,0 L99,0 L99,0 Z M102,0 L103,0 L103,14 L102,14 L102,0 L102,0 L102,0 Z M105,0 L106,0 L106,14 L105,14 L105,0 L105,0 L105,0 Z M108,0 L109,0 L109,14 L108,14 L108,0 L108,0 L108,0 Z M111,0 L112,0 L112,14 L111,14 L111,0 L111,0 L111,0 Z M114,0 L115,0 L115,14 L114,14 L114,0 L114,0 L114,0 Z M117,0 L118,0 C117.668381,0 117.83498,0.00593240272 118,0 L118,14 C117.834972,13.9940742 117.668373,14 118,14 L117,14 L117,0 L117,0 L117,0 Z M120,0 C120.347483,0.132323729 120.681665,0.29140773 121,0 L121,13 C120.681641,12.7089091 120.347456,12.8678262 120,13 L120,0 L120,0 L120,0 Z M123,3 C123.410871,3.54199406 123.749272,4.145961 124,5 L124,10 C123.749253,10.8544112 123.410837,11.4582743 123,12 L123,3 L123,3 Z" id="path-39"></path>
        <circle id="path-41" cx="71" cy="71" r="71"></circle>
        <filter x="-0.7%" y="-0.7%" width="101.4%" height="101.4%" filterUnits="objectBoundingBox" id="filter-42">
            <feOffset dx="0" dy="2" in="SourceAlpha" result="shadowOffsetInner1"></feOffset>
            <feComposite in="shadowOffsetInner1" in2="SourceAlpha" operator="arithmetic" k2="-1" k3="1" result="shadowInnerInner1"></feComposite>
            <feColorMatrix values="0 0 0 0 0.169483418   0 0 0 0 0.169483418   0 0 0 0 0.169483418  0 0 0 1 0" type="matrix" in="shadowInnerInner1"></feColorMatrix>
        </filter>
        <linearGradient x1="50%" y1="0%" x2="50%" y2="100%" id="linearGradient-43">
            <stop stop-color="#101315" offset="0%"></stop>
            <stop stop-color="#454950" offset="100%"></stop>
        </linearGradient>
        <linearGradient x1="1.53743067%" y1="1.65019133%" x2="53.7054357%" y2="61.9003081%" id="linearGradient-44">
            <stop stop-color="#000000" stop-opacity="0.483101223" offset="0%"></stop>
            <stop stop-color="#000000" stop-opacity="0" offset="100%"></stop>
        </linearGradient>
        <path d="M71,142 C110.212217,142 142,110.212217 142,71 C91,81 51,81 0,71 C0,110.212217 31.7877828,142 71,142 Z" id="path-45"></path>
    </defs>
    <g id="Apple-iPhone-5c" stroke="none" stroke-width="1" fill="none" fill-rule="evenodd">
        <g id="Apple-iPhone-5c-Yellow">
            <g id="Shadow" transform="translate(29.000000, 1593.000000)" fill="black" fill-opacity="1">
                <g id="Outer-Shadow">
                    <use filter="url(#filter-2)" xlink:href="#path-1"></use>
                </g>
                <g id="Middle-Shadow">
                    <use filter="url(#filter-4)" xlink:href="#path-3"></use>
                </g>
                <g id="Inner-Shadow">
                    <use filter="url(#filter-6)" xlink:href="#path-5"></use>
                </g>
            </g>
            <g id="Device">
                <g id="Phone-Shape" transform="translate(7.000000, 7.000000)">
                    <g id="Edge" fill-rule="nonzero">
                        <use fill="#FDEC60" fill-rule="evenodd" xlink:href="#path-7"></use>
                        <use fill="black" fill-opacity="1" filter="url(#filter-8)" xlink:href="#path-7"></use>
                    </g>
                    <g id="Gap">
                        <use fill="black" fill-opacity="1" filter="url(#filter-10)" xlink:href="#path-9"></use>
                        <use fill="#040606" fill-rule="evenodd" xlink:href="#path-9"></use>
                    </g>
                    <g id="Frontplate" fill-rule="nonzero">
                        <use fill="black" fill-opacity="1" filter="url(#filter-12)" xlink:href="#path-11"></use>
                        <use fill="#000000" fill-rule="evenodd" xlink:href="#path-11"></use>
                    </g>
                    <path d="M11,1471.71163 L11,1471.71163 C11,1543.95508 54.9325498,1588 126.991635,1588 L633.008365,1588 C705.067113,1588 749,1543.95477 749,1471.71163 L749,124.288369 C749,52.0449235 705.06745,8 633.008365,8 L126.991635,8 C54.9328872,8 11,52.0452262 11,124.288369 L11,1471.71163 Z M7,1470.00603 L7,1470.00603 L7,125.993968 C7,51.7245669 52.7237615,6 126.991635,6 L633.008365,6 C707.276625,6 753,51.724314 753,125.993968 L753,1470.00603 C753,1544.27543 707.276238,1590 633.008365,1590 L126.991635,1590 C52.7233751,1590 7,1544.27569 7,1470.00603 L7,1470.00603 Z" id="Reflection" fill="url(#linearGradient-13)" fill-rule="nonzero" filter="url(#filter-14)"></path>
                </g>
                <g id="Power-Button" transform="translate(515.000000, 0.000000)">
                    <g>
                        <use fill="url(#linearGradient-15)" fill-rule="evenodd" xlink:href="#path-16"></use>
                        <use fill="black" fill-opacity="1" filter="url(#filter-17)" xlink:href="#path-16"></use>
                    </g>
                </g>
                <g id="Side-Buttons" transform="translate(0.000000, 230.000000)">
                    <g id="Mute">
                        <use fill="url(#linearGradient-18)" fill-rule="evenodd" xlink:href="#path-19"></use>
                        <use fill="black" fill-opacity="1" filter="url(#filter-20)" xlink:href="#path-19"></use>
                    </g>
                    <g id="Volume-Button">
                        <use fill="url(#linearGradient-21)" fill-rule="evenodd" xlink:href="#path-22"></use>
                        <use fill="black" fill-opacity="1" filter="url(#filter-23)" xlink:href="#path-22"></use>
                    </g>
                    <g id="Volume-Button">
                        <use fill="url(#linearGradient-21)" fill-rule="evenodd" xlink:href="#path-24"></use>
                        <use fill="black" fill-opacity="1" filter="url(#filter-25)" xlink:href="#path-24"></use>
                    </g>
                </g>
                <g id="Lens" transform="translate(341.000000, 84.000000)"></g>
                <g id="Camera" transform="translate(373.000000, 76.000000)">
                    <circle id="Bezel" fill="" cx="14" cy="14" r="14"></circle>
                    <mask id="mask-28" fill="white">
                        <use xlink:href="#path-27"></use>
                    </mask>
                    <g id="Mask">
                        <use fill="black" fill-opacity="1" filter="url(#filter-29)" xlink:href="#path-27"></use>
                        <use fill="url(#radialGradient-26)" fill-rule="evenodd" xlink:href="#path-27"></use>
                        <use fill="black" fill-opacity="1" filter="url(#filter-30)" xlink:href="#path-27"></use>
                    </g>
                    <ellipse id="Reflection" fill="#000000" filter="url(#filter-31)" mask="url(#mask-28)" transform="translate(15.000000, 14.500000) rotate(-30.000000) translate(-15.000000, -14.500000) " cx="15" cy="14.5" rx="6" ry="2.5"></ellipse>
                    <circle id="Reflection" fill="#3ED5FF" mask="url(#mask-28)" cx="18" cy="13" r="1"></circle>
                </g>
                <g id="Speaker" transform="translate(317.000000, 134.000000)">
                    <g id="Bezel">
                        <mask id="mask-34" fill="white">
                            <use xlink:href="#path-33"></use>
                        </mask>
                        <use id="Mask" fill="url(#linearGradient-32)" fill-rule="nonzero" xlink:href="#path-33"></use>
                        <rect id="Reflection" fill="#364646" filter="url(#filter-35)" mask="url(#mask-34)" x="11" y="20" width="124" height="17" rx="8.5"></rect>
                        <path d="M127.180408,23.2600681 C128.499443,19.9214215 132.471421,17.2149136 133.083678,17.2149136 L129.568732,17.2149136 C131.509983,17.2149136 134.473995,19.7670156 136.190839,22.9184972 L137.508816,25.337807 C139.224854,28.4878093 137.709364,31.3095568 134.138205,31.6390344 L129.959375,32.0245762 C126.3818,32.3546457 124.548866,29.9208412 125.869927,26.5770655 L127.180408,23.2600681 Z" id="Reflection" fill="#98AEAF" filter="url(#filter-36)" mask="url(#mask-34)" transform="translate(131.828512, 24.634730) rotate(-40.000000) translate(-131.828512, -24.634730) "></path>
                    </g>
                    <g id="Mash" transform="translate(8.000000, 8.000000)">
                        <mask id="mask-38" fill="white">
                            <use xlink:href="#path-37"></use>
                        </mask>
                        <use id="Mask" fill="#000000" xlink:href="#path-37"></use>
                        <g id="Grid" opacity="0.192164179" mask="url(#mask-38)">
                            <g transform="translate(0.000000, 1.000000)">
                                <path d="M0.0709463904,6 C0.0241930701,6.32660302 0,6.6604787 0,7 L125,7 C125,6.66057225 124.975744,6.32668834 124.928869,6 L0.0709463904,6 L0.0709463904,6 L0.0709463904,6 Z M0.674080899,4 C0.840596875,3.64966918 1.03535975,3.31535505 1.25541669,3 L123.742993,3 C123.963213,3.31541685 124.158127,3.64974172 124.324787,4 L0.674080899,4 L0.674080899,4 L0.674080899,4 Z M3.39352815,1 C4.44703348,0.365180262 5.68103389,0 6.999649,0 L118.0004,0 C119.318749,0 120.551966,0.365401394 121.604791,1 L3.39352815,1 L3.39352815,1 L3.39352815,1 Z M124.709909,9 C124.607091,9.34524817 124.478342,9.67933364 124.325927,10 L0.675223176,10 C0.522608997,9.67926578 0.393685682,9.3451711 0.290714942,9 L124.709909,9 L124.709909,9 Z M122.898011,12 C122.508942,12.3811749 122.075618,12.7173201 121.606504,13 L3.39524651,13 C2.92617588,12.717266 2.49291242,12.3810966 2.10388103,12 L122.898011,12 L122.898011,12 Z" id="Horizontal" stroke="none" fill="#9FF2F8" fill-rule="evenodd"></path>
                                <mask id="mask-40" fill="white">
                                    <use xlink:href="#path-39"></use>
                                </mask>
                                <use id="Vertical" stroke="none" fill="#2A5E61" fill-rule="evenodd" xlink:href="#path-39"></use>
                            </g>
                        </g>
                    </g>
                </g>
                <g id="Homebutton" transform="translate(316.000000, 1413.000000)">
                    <g id="Button">
                        <use fill="#000000" fill-rule="evenodd" xlink:href="#path-41"></use>
                        <use fill="black" fill-opacity="1" filter="url(#filter-42)" xlink:href="#path-41"></use>
                    </g>
                    <g id="Reflection">
                        <use fill="url(#linearGradient-43)" xlink:href="#path-45"></use>
                        <use fill="url(#linearGradient-44)" xlink:href="#path-45"></use>
                    </g>
                    <path d="M47,84.0037583 C47,89.9744761 52.0267591,95 57.9962417,95 L84.0037583,95 C89.9744761,95 95,89.9732409 95,84.0037583 L95,57.9962417 C95,52.0255239 89.9732409,47 84.0037583,47 L57.9962417,47 C52.0255239,47 47,52.0267591 47,57.9962417 L47,84.0037583 Z" id="Square" stroke="#707070" stroke-width="4"></path>
                </g>
                <rect id="Edge" fill="#070B0D" x="59" y="231" width="656" height="1152" rx="10"></rect>
            </g>
            <rect id="Screen" fill="#1D2129" x="67" y="239" width="640" height="1136"></rect>
        </g>
    </g>
</svg>