
<svg width="871px" height="1820px" viewBox="0 0 871 1820" version="1.1" xmlns="http://www.w3.org/2000/svg" xmlns:xlink="http://www.w3.org/1999/xlink">
    <!-- Generator: Sketch 43.2 (39069) - http://www.bohemiancoding.com/sketch -->
    <desc>Created with Sketch.</desc>
    <defs>
        <path d="M375,24.1113841 C582.106781,24.1113841 750,18.1228979 750,10.7357258 C750,3.34855365 520.038168,5.7853704e-16 375,0 C229.961832,-5.71023571e-16 0,3.34855365 0,10.7357258 C0,18.1228979 167.893219,24.1113841 375,24.1113841 Z" id="path-1"></path>
        <filter x="-6.1%" y="-182.5%" width="112.3%" height="481.6%" filterUnits="objectBoundingBox" id="filter-2">
            <feOffset dx="0" dy="2" in="SourceAlpha" result="shadowOffsetOuter1"></feOffset>
            <feGaussianBlur stdDeviation="15" in="shadowOffsetOuter1" result="shadowBlurOuter1"></feGaussianBlur>
            <feColorMatrix values="0 0 0 0 0   0 0 0 0 0   0 0 0 0 0  0 0 0 0.12 0" type="matrix" in="shadowBlurOuter1"></feColorMatrix>
        </filter>
        <path d="M374.89899,20.7824188 C575.102212,20.7824188 737.39899,15.9916298 737.39899,10.0818921 C737.39899,4.17215442 515.102552,1.49331149 374.89899,1.49331149 C234.695428,1.49331149 12.3989899,4.17215442 12.3989899,10.0818921 C12.3989899,15.9916298 174.695768,20.7824188 374.89899,20.7824188 Z" id="path-3"></path>
        <filter x="-2.6%" y="-88.1%" width="105.2%" height="297.0%" filterUnits="objectBoundingBox" id="filter-4">
            <feOffset dx="0" dy="2" in="SourceAlpha" result="shadowOffsetOuter1"></feOffset>
            <feGaussianBlur stdDeviation="6" in="shadowOffsetOuter1" result="shadowBlurOuter1"></feGaussianBlur>
            <feColorMatrix values="0 0 0 0 0   0 0 0 0 0   0 0 0 0 0  0 0 0 0.08 0" type="matrix" in="shadowBlurOuter1"></feColorMatrix>
        </filter>
        <path d="M375.5,14.8116298 C561.896103,14.8116298 713,12.4162353 713,9.46136648 C713,6.50649763 506.034351,5.16707617 375.5,5.16707617 C244.965649,5.16707617 38,6.50649763 38,9.46136648 C38,12.4162353 189.103897,14.8116298 375.5,14.8116298 Z" id="path-5"></path>
        <filter x="-1.9%" y="-114.1%" width="103.9%" height="369.6%" filterUnits="objectBoundingBox" id="filter-6">
            <feOffset dx="0" dy="2" in="SourceAlpha" result="shadowOffsetOuter1"></feOffset>
            <feGaussianBlur stdDeviation="4" in="shadowOffsetOuter1" result="shadowBlurOuter1"></feGaussianBlur>
            <feColorMatrix values="0 0 0 0 0   0 0 0 0 0   0 0 0 0 0  0 0 0 0.24 0" type="matrix" in="shadowBlurOuter1"></feColorMatrix>
        </filter>
        <linearGradient x1="50%" y1="0%" x2="50%" y2="100%" id="linearGradient-7">
            <stop stop-color="#3E4146" offset="0%"></stop>
            <stop stop-color="#2E2F33" offset="100%"></stop>
        </linearGradient>
        <path d="M867,512.900849 L867,1627 C867,1676.57682 852.845703,1776 716,1776 L155,1776 C19.7480469,1776 5,1677.12891 5,1627 L5,674.897922 C6.23647049,673.636788 7,671.910431 7,670.006349 L7,379.993651 C7,378.088889 6.23718702,376.361327 5,375.099738 L5,149 C5,61.4667969 50.0078125,0 155,0 C260.320312,6.20727465e-15 675.771441,1.08235239e-14 719,0 C787.796875,-1.08235242e-14 867,29.7890625 867,149 L867,375.101993 C865.76353,376.363075 865,378.089363 865,379.993367 L865,508.006633 C865,509.911969 865.762813,511.639469 867,512.900849 Z" id="path-8"></path>
        <filter x="-2.7%" y="-0.6%" width="105.3%" height="101.2%" filterUnits="objectBoundingBox" id="filter-9">
            <feMorphology radius="12" operator="erode" in="SourceAlpha" result="shadowSpreadInner1"></feMorphology>
            <feGaussianBlur stdDeviation="5" in="shadowSpreadInner1" result="shadowBlurInner1"></feGaussianBlur>
            <feOffset dx="0" dy="0" in="shadowBlurInner1" result="shadowOffsetInner1"></feOffset>
            <feComposite in="shadowOffsetInner1" in2="SourceAlpha" operator="arithmetic" k2="-1" k3="1" result="shadowInnerInner1"></feComposite>
            <feColorMatrix values="0 0 0 0 0.223529412   0 0 0 0 0.231372549   0 0 0 0 0.239215686  0 0 0 0.6 0" type="matrix" in="shadowInnerInner1"></feColorMatrix>
        </filter>
        <linearGradient x1="50%" y1="0%" x2="50%" y2="100%" id="linearGradient-10">
            <stop stop-color="#191B19" offset="0%"></stop>
            <stop stop-color="#141414" offset="100%"></stop>
        </linearGradient>
        <path d="M9.06835938,-8.21844994e-05 C13.0398288,0.0421463278 19.9958646,0.00776848745 19.9958646,0.00776848745 C21.102718,0.00343268106 22.8957251,-8.21844994e-05 23.9984678,-8.21844994e-05 L94.0015322,-8.21844994e-05 C95.1052555,-8.21844994e-05 96.8932055,-8.21847067e-05 98.0074346,-8.21849297e-05 C98.0074346,-8.21849297e-05 104.825179,-8.21867901e-05 109.105225,-8.21844994e-05 C113.38527,-8.21822087e-05 118,3.99958921 118,3.99958921 L0,3.99958921 C0,3.99958921 5.09688994,-0.0423106968 9.06835938,-8.21844994e-05 Z" id="path-11"></path>
        <filter x="-1.3%" y="-37.5%" width="102.5%" height="175.0%" filterUnits="objectBoundingBox" id="filter-12">
            <feMorphology radius="0.5" operator="dilate" in="SourceAlpha" result="shadowSpreadOuter1"></feMorphology>
            <feOffset dx="0" dy="0" in="shadowSpreadOuter1" result="shadowOffsetOuter1"></feOffset>
            <feColorMatrix values="0 0 0 0 1   0 0 0 0 1   0 0 0 0 1  0 0 0 0.1 0" type="matrix" in="shadowOffsetOuter1"></feColorMatrix>
        </filter>
        <linearGradient x1="50%" y1="0%" x2="50%" y2="100%" id="linearGradient-13">
            <stop stop-color="#222328" offset="0%"></stop>
            <stop stop-color="#46474C" offset="4.23815813%"></stop>
            <stop stop-color="#E5E6EB" offset="8.18956163%"></stop>
            <stop stop-color="#525255" offset="15.9206814%"></stop>
            <stop stop-color="#3E4043" offset="74.3404208%"></stop>
            <stop stop-color="#9D9EA3" offset="87.6831055%"></stop>
            <stop stop-color="#C7C8CD" offset="90.7287881%"></stop>
            <stop stop-color="#4D4E53" offset="95.2799479%"></stop>
            <stop stop-color="#25262A" offset="100%"></stop>
        </linearGradient>
        <path d="M0,3.0078125 C0,1.34664353 1.34967041,0 3.00925446,0 L7,0 L7,70 L3.00925446,70 C1.34728911,70 0,68.6641634 0,66.9921875 L0,3.0078125 Z" id="path-14"></path>
        <filter x="-14.3%" y="-2.9%" width="157.1%" height="105.7%" filterUnits="objectBoundingBox" id="filter-15">
            <feOffset dx="1" dy="0" in="SourceAlpha" result="shadowOffsetOuter1"></feOffset>
            <feGaussianBlur stdDeviation="0.5" in="shadowOffsetOuter1" result="shadowBlurOuter1"></feGaussianBlur>
            <feColorMatrix values="0 0 0 0 0   0 0 0 0 0   0 0 0 0 0  0 0 0 0.1 0" type="matrix" in="shadowBlurOuter1"></feColorMatrix>
        </filter>
        <filter x="-7.1%" y="-2.1%" width="142.9%" height="104.3%" filterUnits="objectBoundingBox" id="filter-16">
            <feOffset dx="1" dy="0" in="SourceAlpha" result="shadowOffsetInner1"></feOffset>
            <feComposite in="shadowOffsetInner1" in2="SourceAlpha" operator="arithmetic" k2="-1" k3="1" result="shadowInnerInner1"></feComposite>
            <feColorMatrix values="0 0 0 0 0.317647059   0 0 0 0 0.321568627   0 0 0 0 0.333333333  0 0 0 1 0" type="matrix" in="shadowInnerInner1"></feColorMatrix>
        </filter>
        <linearGradient x1="50%" y1="0%" x2="50%" y2="98.2554408%" id="linearGradient-17">
            <stop stop-color="#898A8F" offset="0%"></stop>
            <stop stop-color="#16171C" offset="2.09784252%"></stop>
            <stop stop-color="#222328" offset="4.73708843%"></stop>
            <stop stop-color="#D2D3D8" offset="11.3476562%"></stop>
            <stop stop-color="#6E6E73" offset="14.244905%"></stop>
            <stop stop-color="#65666B" offset="84.8754374%"></stop>
            <stop stop-color="#5F6064" offset="89.3643234%"></stop>
            <stop stop-color="#212227" offset="97.993793%"></stop>
            <stop stop-color="#A3A4A9" offset="100%"></stop>
        </linearGradient>
        <linearGradient x1="50%" y1="0%" x2="50%" y2="100%" id="linearGradient-18">
            <stop stop-color="#222328" offset="0%"></stop>
            <stop stop-color="#26252A" offset="8.18956163%"></stop>
            <stop stop-color="#65666B" offset="15.9206814%"></stop>
            <stop stop-color="#65666B" offset="74.3404208%"></stop>
            <stop stop-color="#747579" offset="87.6831055%"></stop>
            <stop stop-color="#4D4E53" offset="95.2799479%"></stop>
            <stop stop-color="#25262A" offset="100%"></stop>
        </linearGradient>
        <path d="M0,2.99796231 C0,1.34223344 1.34967041,0 3.00925446,0 L7,0 L7,131 L3.00925446,131 C1.34728911,131 0,129.660776 0,128.002038 L0,2.99796231 Z" id="path-19"></path>
        <filter x="-14.3%" y="-1.5%" width="157.1%" height="103.1%" filterUnits="objectBoundingBox" id="filter-20">
            <feOffset dx="1" dy="0" in="SourceAlpha" result="shadowOffsetOuter1"></feOffset>
            <feGaussianBlur stdDeviation="0.5" in="shadowOffsetOuter1" result="shadowBlurOuter1"></feGaussianBlur>
            <feColorMatrix values="0 0 0 0 0   0 0 0 0 0   0 0 0 0 0  0 0 0 0.1 0" type="matrix" in="shadowBlurOuter1"></feColorMatrix>
        </filter>
        <filter x="-7.1%" y="-1.1%" width="142.9%" height="102.3%" filterUnits="objectBoundingBox" id="filter-21">
            <feOffset dx="1" dy="0" in="SourceAlpha" result="shadowOffsetInner1"></feOffset>
            <feComposite in="shadowOffsetInner1" in2="SourceAlpha" operator="arithmetic" k2="-1" k3="1" result="shadowInnerInner1"></feComposite>
            <feColorMatrix values="0 0 0 0 0.317647059   0 0 0 0 0.321568627   0 0 0 0 0.333333333  0 0 0 1 0" type="matrix" in="shadowInnerInner1"></feColorMatrix>
        </filter>
        <linearGradient x1="50%" y1="0%" x2="50%" y2="100%" id="linearGradient-22">
            <stop stop-color="#222328" offset="0%"></stop>
            <stop stop-color="#26252A" offset="8.18956163%"></stop>
            <stop stop-color="#C9C9C9" offset="15.9206814%"></stop>
            <stop stop-color="#8F8F8F" offset="74.3404208%"></stop>
            <stop stop-color="#747579" offset="87.6831055%"></stop>
            <stop stop-color="#4D4E53" offset="95.2799479%"></stop>
            <stop stop-color="#25262A" offset="100%"></stop>
        </linearGradient>
        <path d="M0,3.0050168 C0,1.34539185 1.34967041,-1.11022302e-16 3.00925446,-1.11022302e-16 L7,-1.11022302e-16 L7,130.994666 C7,131.549897 6.56211865,132 5.99707067,132 L3.00925446,132 C1.34728911,132 0,130.650553 0,128.994983 L0,3.0050168 Z" id="path-23"></path>
        <filter x="-14.3%" y="-1.5%" width="157.1%" height="103.0%" filterUnits="objectBoundingBox" id="filter-24">
            <feOffset dx="1" dy="0" in="SourceAlpha" result="shadowOffsetOuter1"></feOffset>
            <feGaussianBlur stdDeviation="0.5" in="shadowOffsetOuter1" result="shadowBlurOuter1"></feGaussianBlur>
            <feColorMatrix values="0 0 0 0 0   0 0 0 0 0   0 0 0 0 0  0 0 0 0.1 0" type="matrix" in="shadowBlurOuter1"></feColorMatrix>
        </filter>
        <filter x="-7.1%" y="-1.1%" width="142.9%" height="102.3%" filterUnits="objectBoundingBox" id="filter-25">
            <feOffset dx="1" dy="0" in="SourceAlpha" result="shadowOffsetInner1"></feOffset>
            <feComposite in="shadowOffsetInner1" in2="SourceAlpha" operator="arithmetic" k2="-1" k3="1" result="shadowInnerInner1"></feComposite>
            <feColorMatrix values="0 0 0 0 0.317647059   0 0 0 0 0.321568627   0 0 0 0 0.333333333  0 0 0 1 0" type="matrix" in="shadowInnerInner1"></feColorMatrix>
        </filter>
        <linearGradient x1="50%" y1="0%" x2="50%" y2="100%" id="linearGradient-26">
            <stop stop-color="#222328" offset="0%"></stop>
            <stop stop-color="#26252A" offset="8.18956163%"></stop>
            <stop stop-color="#C2C2C2" offset="15.9206814%"></stop>
            <stop stop-color="#AAAAAD" offset="74.3404208%"></stop>
            <stop stop-color="#747579" offset="87.6831055%"></stop>
            <stop stop-color="#4D4E53" offset="95.2799479%"></stop>
            <stop stop-color="#25262A" offset="100%"></stop>
        </linearGradient>
        <linearGradient x1="50%" y1="0%" x2="50%" y2="100%" id="linearGradient-27">
            <stop stop-color="#222328" offset="0%"></stop>
            <stop stop-color="#76777C" offset="8.18956163%"></stop>
            <stop stop-color="#414447" offset="15.9206814%"></stop>
            <stop stop-color="#393B3F" offset="74.3404208%"></stop>
            <stop stop-color="#9D9EA3" offset="87.6831055%"></stop>
            <stop stop-color="#4D4E53" offset="95.2799479%"></stop>
            <stop stop-color="#25262A" offset="100%"></stop>
        </linearGradient>
        <path d="M0,3.0050168 C0,1.34539185 1.33312307,0.190446153 2.96863019,0.424090028 L4.03136981,0.575909972 C5.67089899,0.810128427 7,2.35041883 7,3.99070607 L7,128.009294 C7,129.661015 5.66687693,131.190446 4.03136981,131.42409 L2.96863019,131.57591 C1.32910101,131.810128 0,130.650553 0,128.994983 L0,3.0050168 Z" id="path-28"></path>
        <filter x="-14.3%" y="-1.5%" width="157.1%" height="103.0%" filterUnits="objectBoundingBox" id="filter-29">
            <feOffset dx="1" dy="0" in="SourceAlpha" result="shadowOffsetOuter1"></feOffset>
            <feGaussianBlur stdDeviation="0.5" in="shadowOffsetOuter1" result="shadowBlurOuter1"></feGaussianBlur>
            <feColorMatrix values="0 0 0 0 0   0 0 0 0 0   0 0 0 0 0  0 0 0 0.1 0" type="matrix" in="shadowBlurOuter1"></feColorMatrix>
        </filter>
        <filter x="-7.1%" y="-1.1%" width="142.9%" height="102.3%" filterUnits="objectBoundingBox" id="filter-30">
            <feOffset dx="1" dy="0" in="SourceAlpha" result="shadowOffsetInner1"></feOffset>
            <feComposite in="shadowOffsetInner1" in2="SourceAlpha" operator="arithmetic" k2="-1" k3="1" result="shadowInnerInner1"></feComposite>
            <feColorMatrix values="0 0 0 0 0.317647059   0 0 0 0 0.321568627   0 0 0 0 0.333333333  0 0 0 1 0" type="matrix" in="shadowInnerInner1"></feColorMatrix>
        </filter>
        <linearGradient x1="50%" y1="0%" x2="50%" y2="98.2554408%" id="linearGradient-31">
            <stop stop-color="#898A8F" offset="0%"></stop>
            <stop stop-color="#16171C" offset="2.09784252%"></stop>
            <stop stop-color="#222328" offset="4.73708843%"></stop>
            <stop stop-color="#D2D3D8" offset="11.3476562%"></stop>
            <stop stop-color="#65666B" offset="14.244905%"></stop>
            <stop stop-color="#65666B" offset="84.8754374%"></stop>
            <stop stop-color="#B9BABF" offset="89.3643234%"></stop>
            <stop stop-color="#212227" offset="97.993793%"></stop>
            <stop stop-color="#A3A4A9" offset="100%"></stop>
        </linearGradient>
        <linearGradient x1="50%" y1="0%" x2="50%" y2="100%" id="linearGradient-32">
            <stop stop-color="#020202" offset="0%"></stop>
            <stop stop-color="#000000" offset="100%"></stop>
        </linearGradient>
        <path d="M0.00200381812,1618 C0.00200381818,1569.55078 -0.00250477268,623.261068 0.00200381812,129 C0.00256285404,67.7148438 27.6133327,-1.11022302e-16 130.002004,-2.22044605e-15 C232.390675,-4.3298698e-15 662.773445,1.08801856e-14 706.002004,-1.11022302e-16 C774.798879,-1.0658141e-14 834.002014,35.6816406 834.002004,129 C834.001949,622.348307 834.002004,1583.68359 834.002004,1619 C834.002004,1654.31641 823.562551,1748 704.002004,1748 L131.002004,1748 C18.1592312,1748 0.00200381806,1666.44922 0.00200381812,1618 Z" id="path-33"></path>
        <filter x="-1.9%" y="-0.8%" width="103.8%" height="101.8%" filterUnits="objectBoundingBox" id="filter-34">
            <feMorphology radius="3" operator="dilate" in="SourceAlpha" result="shadowSpreadOuter1"></feMorphology>
            <feOffset dx="0" dy="2" in="shadowSpreadOuter1" result="shadowOffsetOuter1"></feOffset>
            <feGaussianBlur stdDeviation="2" in="shadowOffsetOuter1" result="shadowBlurOuter1"></feGaussianBlur>
            <feColorMatrix values="0 0 0 0 1   0 0 0 0 1   0 0 0 0 1  0 0 0 0.25 0" type="matrix" in="shadowBlurOuter1"></feColorMatrix>
        </filter>
        <filter x="-1.4%" y="-0.5%" width="102.8%" height="101.3%" filterUnits="objectBoundingBox" id="filter-35">
            <feGaussianBlur stdDeviation="1" in="SourceAlpha" result="shadowBlurInner1"></feGaussianBlur>
            <feOffset dx="0" dy="1" in="shadowBlurInner1" result="shadowOffsetInner1"></feOffset>
            <feComposite in="shadowOffsetInner1" in2="SourceAlpha" operator="arithmetic" k2="-1" k3="1" result="shadowInnerInner1"></feComposite>
            <feColorMatrix values="0 0 0 0 0   0 0 0 0 0   0 0 0 0 0  0 0 0 0.14 0" type="matrix" in="shadowInnerInner1"></feColorMatrix>
        </filter>
        <linearGradient x1="100%" y1="33.82999%" x2="63.3372891%" y2="33.82999%" id="linearGradient-36">
            <stop stop-color="#F4F4F4" offset="0%"></stop>
            <stop stop-color="#77797E" offset="63.2738271%"></stop>
            <stop stop-color="#494B4F" offset="100%"></stop>
        </linearGradient>
        <path d="M-2.89546165e-13,0.284549836 C25.2277343,21.5618487 41.2531138,53.4062004 41.2531138,88.9968495 L41.2531138,1603.00315 C41.2531138,1635.73195 27.6994978,1665.29488 5.89891598,1686.38448 C15.7414926,1665.29488 25.803055,1635.73195 25.803055,1603.00315 L25.803055,88.9968495 C25.803055,53.4062004 15.7794784,21.5618487 2.27373675e-13,0.284549836 Z" id="path-37"></path>
        <filter x="-1577.4%" y="-1.6%" width="1677.4%" height="103.6%" filterUnits="objectBoundingBox" id="filter-38">
            <feGaussianBlur stdDeviation="0" in="SourceGraphic"></feGaussianBlur>
        </filter>
        <filter x="-1584.7%" y="-1.8%" width="1692.0%" height="103.9%" filterUnits="objectBoundingBox" id="filter-39">
            <feGaussianBlur stdDeviation="2" in="SourceAlpha" result="shadowBlurInner1"></feGaussianBlur>
            <feOffset dx="-2" dy="0" in="shadowBlurInner1" result="shadowOffsetInner1"></feOffset>
            <feComposite in="shadowOffsetInner1" in2="SourceAlpha" operator="arithmetic" k2="-1" k3="1" result="shadowInnerInner1"></feComposite>
            <feColorMatrix values="0 0 0 0 1   0 0 0 0 1   0 0 0 0 1  0 0 0 1 0" type="matrix" in="shadowInnerInner1"></feColorMatrix>
        </filter>
        <path d="M-2.89546165e-13,0.284549836 C25.2277343,21.5618487 41.2531138,53.4062004 41.2531138,88.9968495 L41.2531138,1603.00315 C41.2531138,1635.73195 27.6994978,1665.29488 5.89891598,1686.38448 C15.7414926,1665.29488 25.803055,1635.73195 25.803055,1603.00315 L25.803055,88.9968495 C25.803055,53.4062004 15.7794784,21.5618487 2.27373675e-13,0.284549836 Z" id="path-40"></path>
        <filter x="-1577.4%" y="-1.6%" width="1677.4%" height="103.6%" filterUnits="objectBoundingBox" id="filter-41">
            <feGaussianBlur stdDeviation="0" in="SourceGraphic"></feGaussianBlur>
        </filter>
        <filter x="-1584.7%" y="-1.8%" width="1692.0%" height="103.9%" filterUnits="objectBoundingBox" id="filter-42">
            <feGaussianBlur stdDeviation="2" in="SourceAlpha" result="shadowBlurInner1"></feGaussianBlur>
            <feOffset dx="-2" dy="0" in="shadowBlurInner1" result="shadowOffsetInner1"></feOffset>
            <feComposite in="shadowOffsetInner1" in2="SourceAlpha" operator="arithmetic" k2="-1" k3="1" result="shadowInnerInner1"></feComposite>
            <feColorMatrix values="0 0 0 0 1   0 0 0 0 1   0 0 0 0 1  0 0 0 1 0" type="matrix" in="shadowInnerInner1"></feColorMatrix>
        </filter>
        <path d="M417,1712 L417,1712 C450.137085,1712 477,1685.13708 477,1652 C477,1618.86292 450.137085,1592 417,1592 C383.862915,1592 357,1618.86292 357,1652 C357,1685.13708 383.862915,1712 417,1712 L417,1712 Z M417,1720 L417,1720 C379.444637,1720 349,1689.55536 349,1652 C349,1614.44464 379.444637,1584 417,1584 C454.555363,1584 485,1614.44464 485,1652 C485,1689.55536 454.555363,1720 417,1720 L417,1720 Z" id="path-43"></path>
        <filter x="-1.1%" y="-1.1%" width="102.2%" height="102.2%" filterUnits="objectBoundingBox" id="filter-44">
            <feMorphology radius="1" operator="erode" in="SourceAlpha" result="shadowSpreadInner1"></feMorphology>
            <feGaussianBlur stdDeviation="0.5" in="shadowSpreadInner1" result="shadowBlurInner1"></feGaussianBlur>
            <feOffset dx="1" dy="0" in="shadowBlurInner1" result="shadowOffsetInner1"></feOffset>
            <feComposite in="shadowOffsetInner1" in2="SourceAlpha" operator="arithmetic" k2="-1" k3="1" result="shadowInnerInner1"></feComposite>
            <feColorMatrix values="0 0 0 0 0   0 0 0 0 0   0 0 0 0 0  0 0 0 0.112686821 0" type="matrix" in="shadowInnerInner1"></feColorMatrix>
        </filter>
        <rect id="path-45" x="0" y="0" width="151" height="13" rx="6.5"></rect>
        <rect id="path-47" x="0" y="0" width="151" height="13" rx="6.5"></rect>
        <filter x="-1.3%" y="-15.4%" width="102.6%" height="130.8%" filterUnits="objectBoundingBox" id="filter-49">
            <feMorphology radius="2" operator="erode" in="SourceAlpha" result="shadowSpreadInner1"></feMorphology>
            <feGaussianBlur stdDeviation="1" in="shadowSpreadInner1" result="shadowBlurInner1"></feGaussianBlur>
            <feOffset dx="0" dy="0" in="shadowBlurInner1" result="shadowOffsetInner1"></feOffset>
            <feComposite in="shadowOffsetInner1" in2="SourceAlpha" operator="arithmetic" k2="-1" k3="1" result="shadowInnerInner1"></feComposite>
            <feColorMatrix values="0 0 0 0 0   0 0 0 0 0   0 0 0 0 0  0 0 0 0.5 0" type="matrix" in="shadowInnerInner1"></feColorMatrix>
        </filter>
        <radialGradient cx="121.058392%" cy="134.125808%" fx="121.058392%" fy="134.125808%" r="100.661381%" id="radialGradient-50">
            <stop stop-color="#434343" offset="0%"></stop>
            <stop stop-color="#161616" offset="100%"></stop>
        </radialGradient>
        <radialGradient cx="50%" cy="0%" fx="50%" fy="0%" r="100%" id="radialGradient-51">
            <stop stop-color="#2A4893" offset="0%"></stop>
            <stop stop-color="#213054" offset="100%"></stop>
        </radialGradient>
        <circle id="path-52" cx="14.5" cy="14.5" r="7.5"></circle>
        <filter x="-60.0%" y="-60.0%" width="220.0%" height="220.0%" filterUnits="objectBoundingBox" id="filter-54">
            <feMorphology radius="1.5" operator="dilate" in="SourceAlpha" result="shadowSpreadOuter1"></feMorphology>
            <feOffset dx="0" dy="0" in="shadowSpreadOuter1" result="shadowOffsetOuter1"></feOffset>
            <feGaussianBlur stdDeviation="1.5" in="shadowOffsetOuter1" result="shadowBlurOuter1"></feGaussianBlur>
            <feColorMatrix values="0 0 0 0 0   0 0 0 0 0   0 0 0 0 0  0 0 0 0.4 0" type="matrix" in="shadowBlurOuter1"></feColorMatrix>
        </filter>
        <filter x="-150.2%" y="-150.2%" width="400.3%" height="400.3%" filterUnits="objectBoundingBox" id="filter-55">
            <feGaussianBlur stdDeviation="1.00104255" in="SourceGraphic"></feGaussianBlur>
        </filter>
        <filter x="-150.2%" y="-150.2%" width="400.3%" height="400.3%" filterUnits="objectBoundingBox" id="filter-56">
            <feGaussianBlur stdDeviation="1.00104255" in="SourceGraphic"></feGaussianBlur>
        </filter>
        <filter x="-100.1%" y="-100.1%" width="300.2%" height="300.2%" filterUnits="objectBoundingBox" id="filter-57">
            <feGaussianBlur stdDeviation="1.00104255" in="SourceGraphic"></feGaussianBlur>
        </filter>
        <filter x="-100.1%" y="-100.1%" width="300.2%" height="300.2%" filterUnits="objectBoundingBox" id="filter-58">
            <feGaussianBlur stdDeviation="1.00104255" in="SourceGraphic"></feGaussianBlur>
        </filter>
        <filter x="-42.9%" y="-100.1%" width="185.8%" height="300.2%" filterUnits="objectBoundingBox" id="filter-59">
            <feGaussianBlur stdDeviation="1.00104255" in="SourceGraphic"></feGaussianBlur>
        </filter>
        <filter x="-42.9%" y="-42.9%" width="185.8%" height="185.8%" filterUnits="objectBoundingBox" id="filter-60">
            <feGaussianBlur stdDeviation="1.00104255" in="SourceGraphic"></feGaussianBlur>
        </filter>
    </defs>
    <g id="Page-1" stroke="none" stroke-width="1" fill="none" fill-rule="evenodd">
        <g id="Apple-iPhone-7-Matte-Black">
            <g id="Shadow" transform="translate(61.000000, 1764.000000)" fill="black" fill-opacity="1">
                <g id="Outer-Shadow">
                    <use filter="url(#filter-2)" xlink:href="#path-1"></use>
                </g>
                <g id="Middle-Shadow">
                    <use filter="url(#filter-4)" xlink:href="#path-3"></use>
                </g>
                <g id="Inner-Shadow">
                    <use filter="url(#filter-6)" xlink:href="#path-5"></use>
                </g>
            </g>
            <g id="Device">
                <g id="Body">
                    <g id="Phone-Shape">
                        <use fill="url(#linearGradient-7)" fill-rule="evenodd" xlink:href="#path-8"></use>
                        <use fill="black" fill-opacity="1" filter="url(#filter-9)" xlink:href="#path-8"></use>
                    </g>
                    <g id="Antenna" transform="translate(5.000000, 140.000000)" fill="#1A1D22">
                        <path d="M0,2 C0,2 5.21191406,1.42997454e-08 16,0 L16,25 C5.52832031,25.888916 0,28 0,28 L0,2 Z" id="Top-Left"></path>
                        <path d="M846,2 C846,2 851.211914,1.42997454e-08 862,0 L862,25 C851.52832,25.888916 846,28 846,28 L846,2 Z" id="Top-Right" transform="translate(854.000000, 14.000000) scale(-1, 1) translate(-854.000000, -14.000000) "></path>
                        <path d="M0,1472 C0,1472 5.21191406,1470 16,1470 L16,1496 C4.62646484,1495.6001 0,1497 0,1497 L0,1472 Z" id="Bottom-Left" transform="translate(8.000000, 1483.500000) scale(1, -1) translate(-8.000000, -1483.500000) "></path>
                        <path d="M846,1472 C846,1472 851.211914,1470 862,1470 L862,1496 C850.626465,1495.6001 846,1497 846,1497 L846,1472 Z" id="Bottom-Right" transform="translate(854.000000, 1483.500000) scale(-1, -1) translate(-854.000000, -1483.500000) "></path>
                    </g>
                    <g id="Plug" transform="translate(377.000000, 1772.000000)" opacity="0.902810168">
                        <g id="Lightning-Connector">
                            <use fill="black" fill-opacity="1" filter="url(#filter-12)" xlink:href="#path-11"></use>
                            <use fill="url(#linearGradient-10)" fill-rule="evenodd" xlink:href="#path-11"></use>
                        </g>
                    </g>
                    <g id="Silent-Button" transform="translate(0.000000, 227.000000)">
                        <g id="Rectangle-165">
                            <use fill="black" fill-opacity="1" filter="url(#filter-15)" xlink:href="#path-14"></use>
                            <use fill="url(#linearGradient-13)" fill-rule="evenodd" xlink:href="#path-14"></use>
                            <use fill="black" fill-opacity="1" filter="url(#filter-16)" xlink:href="#path-14"></use>
                        </g>
                        <rect id="Rectangle-166" fill="url(#linearGradient-17)" x="1" y="0" width="2" height="70" rx="1"></rect>
                    </g>
                    <g id="Volume-Up-Button" transform="translate(1.000000, 379.000000)">
                        <g id="Rectangle-165">
                            <use fill="black" fill-opacity="1" filter="url(#filter-20)" xlink:href="#path-19"></use>
                            <use fill="url(#linearGradient-18)" fill-rule="evenodd" xlink:href="#path-19"></use>
                            <use fill="black" fill-opacity="1" filter="url(#filter-21)" xlink:href="#path-19"></use>
                        </g>
                        <rect id="Rectangle-166" fill="url(#linearGradient-22)" x="1" y="0" width="2" height="130" rx="1"></rect>
                    </g>
                    <g id="Volume-Down-Button" transform="translate(1.000000, 540.000000)">
                        <g id="Rectangle-165">
                            <use fill="black" fill-opacity="1" filter="url(#filter-24)" xlink:href="#path-23"></use>
                            <use fill="url(#linearGradient-18)" fill-rule="evenodd" xlink:href="#path-23"></use>
                            <use fill="black" fill-opacity="1" filter="url(#filter-25)" xlink:href="#path-23"></use>
                        </g>
                        <rect id="Rectangle-166" fill="url(#linearGradient-26)" x="1" y="1" width="2" height="130" rx="1"></rect>
                    </g>
                    <g id="Sleep-Button" transform="translate(867.500000, 444.000000) scale(-1, 1) translate(-867.500000, -444.000000) translate(864.000000, 378.000000)">
                        <g id="Rectangle-165">
                            <use fill="black" fill-opacity="1" filter="url(#filter-29)" xlink:href="#path-28"></use>
                            <use fill="url(#linearGradient-27)" fill-rule="evenodd" xlink:href="#path-28"></use>
                            <use fill="black" fill-opacity="1" filter="url(#filter-30)" xlink:href="#path-28"></use>
                        </g>
                        <rect id="Rectangle-166" fill="url(#linearGradient-31)" x="1" y="1" width="2" height="130" rx="1"></rect>
                    </g>
                </g>
                <g id="Front" transform="translate(19.000000, 14.000000)">
                    <g id="Black-Surface">
                        <use fill="black" fill-opacity="1" filter="url(#filter-34)" xlink:href="#path-33"></use>
                        <use fill="url(#linearGradient-32)" fill-rule="evenodd" xlink:href="#path-33"></use>
                        <use fill="black" fill-opacity="1" filter="url(#filter-35)" xlink:href="#path-33"></use>
                    </g>
                    <path d="M7.00200382,1618 L7.00200382,1618 C7.00200382,1647.68504 13.6767305,1675.53368 28.9069391,1697.13479 C48.7025474,1725.21105 81.7197379,1741 131.002004,1741 L704.002004,1741 C755.36169,1741 788.672277,1723.52335 807.916353,1693.00956 C821.617178,1671.28526 827.002004,1645.27843 827.002004,1619 C827.002004,1617.73341 827.001996,1434.94086 827.001992,1326.64048 C827.001984,1119.48837 827.00198,919.32607 827.00198,731.359247 C827.001979,485.701066 827.001987,280.823692 827.002004,128.999999 C827.002009,86.52624 814.392665,55.1838039 791.177344,34.7614051 C770.212608,16.3188336 740.674734,7 706.002004,7 L599.983279,7 C511.516283,7 511.516283,7 408.866233,7 L363.003797,7 L130.002004,7 C84.2663111,7 52.1736698,20.8026116 32.0693058,45.8949758 C15.1097267,67.0623171 7.00230454,96.0326492 7.00200382,129.000064 C7.00061916,280.795091 6.99999483,483.909544 7.00000003,726.915567 C7.00000403,913.745247 7.00037277,1112.19701 7.00100191,1320.26574 C7.00130485,1420.45481 7.00200382,1612.83602 7.00200382,1618 L7.00200382,1618 Z M0.00200381812,1618 C0.00200381818,1569.55078 -0.00250477268,623.261068 0.00200381812,129 C0.00256285404,67.7148438 27.6133327,2.31327928e-15 130.002004,2.03855535e-16 C232.390675,-1.90556821e-15 662.773445,1.33044872e-14 706.002004,2.31327928e-15 C774.798879,-8.23383945e-15 834.002014,35.6816406 834.002004,129 C834.001949,622.348307 834.002004,1583.68359 834.002004,1619 C834.002004,1654.31641 823.562551,1748 704.002004,1748 L131.002004,1748 C18.1592312,1748 0.00200381806,1666.44922 0.00200381812,1618 L0.00200381812,1618 Z" id="Stroke" fill="#18191A" fill-rule="nonzero"></path>
                    <g id="Gloss" opacity="0.698577425" transform="translate(5.000000, 33.000000)">
                        <g id="lights-left">
                            <g id="Light-left" filter="url(#filter-38)" transform="translate(20.626557, 843.334515) scale(-1, 1) translate(-20.626557, -843.334515) ">
                                <use fill="url(#linearGradient-36)" fill-rule="evenodd" xlink:href="#path-37"></use>
                                <use fill="black" fill-opacity="1" filter="url(#filter-39)" xlink:href="#path-37"></use>
                            </g>
                        </g>
                        <g id="lights-right" transform="translate(803.000000, 843.500000) scale(-1, 1) translate(-803.000000, -843.500000) translate(782.000000, 0.000000)">
                            <g id="Light-left" filter="url(#filter-41)" transform="translate(20.626557, 843.334515) scale(-1, 1) translate(-20.626557, -843.334515) ">
                                <use fill="url(#linearGradient-36)" fill-rule="evenodd" xlink:href="#path-40"></use>
                                <use fill="black" fill-opacity="1" filter="url(#filter-42)" xlink:href="#path-40"></use>
                            </g>
                        </g>
                    </g>
                    <g id="Home-Button" fill-rule="nonzero">
                        <use fill="" fill-rule="evenodd" xlink:href="#path-43"></use>
                        <use fill="black" fill-opacity="1" filter="url(#filter-44)" xlink:href="#path-43"></use>
                    </g>
                    <g id="Speaker" opacity="0.801364272" transform="translate(342.000000, 96.000000)">
                        <mask id="mask-46" fill="white">
                            <use xlink:href="#path-45"></use>
                        </mask>
                        <use id="Mask" fill="#333333" xlink:href="#path-45"></use>
                        <path d="M-2.22058824,0 L152.110294,0 L152.110294,0.928571429 L-2.22058824,0.928571429 L-2.22058824,0 Z M-2.22058824,2.78571429 L152.110294,2.78571429 L152.110294,3.71428571 L-2.22058824,3.71428571 L-2.22058824,2.78571429 Z M-2.22058824,5.57142857 L152.110294,5.57142857 L152.110294,6.5 L-2.22058824,6.5 L-2.22058824,5.57142857 Z M-2.22058824,8.35714286 L152.110294,8.35714286 L152.110294,9.28571429 L-2.22058824,9.28571429 L-2.22058824,8.35714286 Z M-2.22058824,11.1428571 L152.110294,11.1428571 L152.110294,12.0714286 L-2.22058824,12.0714286 L-2.22058824,11.1428571 Z" id="Grid" fill-opacity="0.149999991" fill="#000000" mask="url(#mask-46)"></path>
                        <path d="M1.11029412,-0.928571429 L2.22058824,-0.928571429 L2.22058824,14.8571429 L1.11029412,14.8571429 L1.11029412,-0.928571429 Z M4.44117647,-0.928571429 L5.55147059,-0.928571429 L5.55147059,14.8571429 L4.44117647,14.8571429 L4.44117647,-0.928571429 Z M7.77205882,-0.928571429 L8.88235294,-0.928571429 L8.88235294,14.8571429 L7.77205882,14.8571429 L7.77205882,-0.928571429 Z M11.1029412,-0.928571429 L12.2132353,-0.928571429 L12.2132353,14.8571429 L11.1029412,14.8571429 L11.1029412,-0.928571429 Z M14.4338235,-0.928571429 L15.5441176,-0.928571429 L15.5441176,14.8571429 L14.4338235,14.8571429 L14.4338235,-0.928571429 Z M17.7647059,-0.928571429 L18.875,-0.928571429 L18.875,14.8571429 L17.7647059,14.8571429 L17.7647059,-0.928571429 Z M21.0955882,-0.928571429 L22.2058824,-0.928571429 L22.2058824,14.8571429 L21.0955882,14.8571429 L21.0955882,-0.928571429 Z M24.4264706,-0.928571429 L25.5367647,-0.928571429 L25.5367647,14.8571429 L24.4264706,14.8571429 L24.4264706,-0.928571429 Z M27.7573529,-0.928571429 L28.8676471,-0.928571429 L28.8676471,14.8571429 L27.7573529,14.8571429 L27.7573529,-0.928571429 Z M31.0882353,-0.928571429 L32.1985294,-0.928571429 L32.1985294,14.8571429 L31.0882353,14.8571429 L31.0882353,-0.928571429 Z M34.4191176,-0.928571429 L35.5294118,-0.928571429 L35.5294118,14.8571429 L34.4191176,14.8571429 L34.4191176,-0.928571429 Z M37.75,-0.928571429 L38.8602941,-0.928571429 L38.8602941,14.8571429 L37.75,14.8571429 L37.75,-0.928571429 Z M41.0808824,-0.928571429 L42.1911765,-0.928571429 L42.1911765,14.8571429 L41.0808824,14.8571429 L41.0808824,-0.928571429 Z M44.4117647,-0.928571429 L45.5220588,-0.928571429 L45.5220588,14.8571429 L44.4117647,14.8571429 L44.4117647,-0.928571429 Z M47.7426471,-0.928571429 L48.8529412,-0.928571429 L48.8529412,14.8571429 L47.7426471,14.8571429 L47.7426471,-0.928571429 Z M51.0735294,-0.928571429 L52.1838235,-0.928571429 L52.1838235,14.8571429 L51.0735294,14.8571429 L51.0735294,-0.928571429 Z M54.4044118,-0.928571429 L55.5147059,-0.928571429 L55.5147059,14.8571429 L54.4044118,14.8571429 L54.4044118,-0.928571429 Z M57.7352941,-0.928571429 L58.8455882,-0.928571429 L58.8455882,14.8571429 L57.7352941,14.8571429 L57.7352941,-0.928571429 Z M61.0661765,-0.928571429 L62.1764706,-0.928571429 L62.1764706,14.8571429 L61.0661765,14.8571429 L61.0661765,-0.928571429 Z M64.3970588,-0.928571429 L65.5073529,-0.928571429 L65.5073529,14.8571429 L64.3970588,14.8571429 L64.3970588,-0.928571429 Z M67.7279412,-0.928571429 L68.8382353,-0.928571429 L68.8382353,14.8571429 L67.7279412,14.8571429 L67.7279412,-0.928571429 Z M71.0588235,-0.928571429 L72.1691176,-0.928571429 L72.1691176,14.8571429 L71.0588235,14.8571429 L71.0588235,-0.928571429 Z M74.3897059,-0.928571429 L75.5,-0.928571429 L75.5,14.8571429 L74.3897059,14.8571429 L74.3897059,-0.928571429 Z M77.7205882,-0.928571429 L78.8308824,-0.928571429 L78.8308824,14.8571429 L77.7205882,14.8571429 L77.7205882,-0.928571429 Z M81.0514706,-0.928571429 L82.1617647,-0.928571429 L82.1617647,14.8571429 L81.0514706,14.8571429 L81.0514706,-0.928571429 Z M84.3823529,-0.928571429 L85.4926471,-0.928571429 L85.4926471,14.8571429 L84.3823529,14.8571429 L84.3823529,-0.928571429 Z M87.7132353,-0.928571429 L88.8235294,-0.928571429 L88.8235294,14.8571429 L87.7132353,14.8571429 L87.7132353,-0.928571429 Z M91.0441176,-0.928571429 L92.1544118,-0.928571429 L92.1544118,14.8571429 L91.0441176,14.8571429 L91.0441176,-0.928571429 Z M94.375,-0.928571429 L95.4852941,-0.928571429 L95.4852941,14.8571429 L94.375,14.8571429 L94.375,-0.928571429 Z M97.7058824,-0.928571429 L98.8161765,-0.928571429 L98.8161765,14.8571429 L97.7058824,14.8571429 L97.7058824,-0.928571429 Z M101.036765,-0.928571429 L102.147059,-0.928571429 L102.147059,14.8571429 L101.036765,14.8571429 L101.036765,-0.928571429 Z M104.367647,-0.928571429 L105.477941,-0.928571429 L105.477941,14.8571429 L104.367647,14.8571429 L104.367647,-0.928571429 Z M107.698529,-0.928571429 L108.808824,-0.928571429 L108.808824,14.8571429 L107.698529,14.8571429 L107.698529,-0.928571429 Z M111.029412,-0.928571429 L112.139706,-0.928571429 L112.139706,14.8571429 L111.029412,14.8571429 L111.029412,-0.928571429 Z M114.360294,-0.928571429 L115.470588,-0.928571429 L115.470588,14.8571429 L114.360294,14.8571429 L114.360294,-0.928571429 Z M117.691176,-0.928571429 L118.801471,-0.928571429 L118.801471,14.8571429 L117.691176,14.8571429 L117.691176,-0.928571429 Z M121.022059,-0.928571429 L122.132353,-0.928571429 L122.132353,14.8571429 L121.022059,14.8571429 L121.022059,-0.928571429 Z M124.352941,-0.928571429 L125.463235,-0.928571429 L125.463235,14.8571429 L124.352941,14.8571429 L124.352941,-0.928571429 Z M127.683824,-0.928571429 L128.794118,-0.928571429 L128.794118,14.8571429 L127.683824,14.8571429 L127.683824,-0.928571429 Z M131.014706,-0.928571429 L132.125,-0.928571429 L132.125,14.8571429 L131.014706,14.8571429 L131.014706,-0.928571429 Z M134.345588,-0.928571429 L135.455882,-0.928571429 L135.455882,14.8571429 L134.345588,14.8571429 L134.345588,-0.928571429 Z M137.676471,-0.928571429 L138.786765,-0.928571429 L138.786765,14.8571429 L137.676471,14.8571429 L137.676471,-0.928571429 Z M141.007353,-0.928571429 L142.117647,-0.928571429 L142.117647,14.8571429 L141.007353,14.8571429 L141.007353,-0.928571429 Z M144.338235,-0.928571429 L145.448529,-0.928571429 L145.448529,14.8571429 L144.338235,14.8571429 L144.338235,-0.928571429 Z M147.669118,-0.928571429 L148.779412,-0.928571429 L148.779412,14.8571429 L147.669118,14.8571429 L147.669118,-0.928571429 Z" id="Grid" fill-opacity="0.149999991" fill="#000000" mask="url(#mask-46)"></path>
                        <mask id="mask-48" fill="white">
                            <use xlink:href="#path-47"></use>
                        </mask>
                        <g id="Shadow" opacity="0.200000018" fill-opacity="1" fill="black">
                            <use filter="url(#filter-49)" xlink:href="#path-47"></use>
                        </g>
                    </g>
                    <g id="Camera" transform="translate(266.000000, 88.000000)">
                        <circle id="Oval-57" fill="url(#radialGradient-50)" cx="14.5" cy="14.5" r="14.5"></circle>
                        <mask id="mask-53" fill="white">
                            <use xlink:href="#path-52"></use>
                        </mask>
                        <g id="Mask" opacity="0.387534981">
                            <use fill="black" fill-opacity="1" filter="url(#filter-54)" xlink:href="#path-52"></use>
                            <use fill="url(#radialGradient-51)" fill-rule="evenodd" xlink:href="#path-52"></use>
                        </g>
                        <circle id="Oval-59" fill="#BEE5FF" filter="url(#filter-55)" mask="url(#mask-53)" cx="10" cy="17" r="1"></circle>
                        <circle id="Oval-59" fill="#BEE5FF" filter="url(#filter-56)" mask="url(#mask-53)" cx="10" cy="17" r="1"></circle>
                        <circle id="Oval-59" fill="#75C9FF" filter="url(#filter-57)" mask="url(#mask-53)" cx="21.5" cy="10.5" r="1.5"></circle>
                        <circle id="Oval-59" fill="#75C9FF" filter="url(#filter-58)" mask="url(#mask-53)" cx="21.5" cy="10.5" r="1.5"></circle>
                        <ellipse id="Oval-61" fill="#3358B6" filter="url(#filter-59)" mask="url(#mask-53)" transform="translate(12.500000, 10.500000) rotate(-29.000000) translate(-12.500000, -10.500000) " cx="12.5" cy="10.5" rx="3.5" ry="1.5"></ellipse>
                        <circle id="Oval-61" fill="#00154F" filter="url(#filter-60)" mask="url(#mask-53)" transform="translate(15.500000, 14.500000) rotate(-16.000000) translate(-15.500000, -14.500000) " cx="15.5" cy="14.5" r="3.5"></circle>
                    </g>
                </g>
            </g>
            <rect id="Screen" fill="#1D2129" x="61" y="228" width="750" height="1334"></rect>
        </g>
    </g>
</svg>